<?xml version="1.0" encoding="UTF-8"?>
<svg width="46px" height="46px" viewBox="0 0 46 46" version="1.1" xmlns="http://www.w3.org/2000/svg" xmlns:xlink="http://www.w3.org/1999/xlink">
    <!-- Generator: Sketch 51.3 (57544) - http://www.bohemiancoding.com/sketch -->
    <title>10000ft</title>
    <desc>Created with Sketch.</desc>
    <defs></defs>
    <g id="Page-4" stroke="none" stroke-width="1" fill="none" fill-rule="evenodd">
        <g id="10000ft">
            <rect id="Rectangle-17-Copy-6" fill="#FFFFFF" fill-rule="nonzero" x="0" y="0" width="46" height="46" rx="4"></rect>
            <path d="M25.137931,10.0000325 C25.6822155,10.3039075 26.311181,10.293345 26.8934655,10.4641325 C31.7061983,11.8759325 33.968181,16.1597575 32.3869224,20.8852575 C31.7782672,22.704445 30.7973103,24.3156325 29.6065345,25.802995 C28.1830086,27.5812325 26.7108362,29.3212825 25.2878017,31.1000075 C24.9847845,31.478795 24.6544138,31.55387 24.1964483,31.62537 C22.5789914,31.877895 21.5312069,31.25487 20.61675,29.929195 C19.4972241,28.30582 18.1243103,26.856645 16.9048707,25.298595 C15.6410431,23.68367 14.7031638,21.8940575 14.2022845,19.8966075 C14.1706724,19.770995 14.1739483,19.6219825 14,19.5875325 L14,16.5000325 C14.920681,12.59012 17.4688103,10.424645 21.5588879,10.07527 C21.6109741,10.0708825 21.6568362,10.03887 21.6982759,10.0000325 L25.137931,10.0000325 Z" id="Fill-4" fill="#202256"></path>
            <path d="M21.862069,36.0000325 C21.9937586,35.320295 21.7346379,34.6746825 21.6743621,34.0116825 C21.6386552,33.6164825 21.6601121,33.41352 22.14625,33.433345 C23.0140259,33.468445 23.88475,33.4604825 24.753181,33.43627 C25.2021379,33.4237575 25.3054914,33.5576575 25.2193362,34.0012825 C25.09125,34.658595 25.0514483,35.33297 24.9741379,36.0000325 L21.862069,36.0000325 Z" id="Fill-10" fill="#27285B"></path>
            <path d="M21.5538431,20.7604087 C20.3488172,20.7491962 19.6672741,20.0393962 19.6820155,18.8112212 C19.695119,17.7114212 20.4832914,16.9735087 21.6247655,16.9925212 C22.7388862,17.0110462 23.4908603,17.7925087 23.4736621,18.9142462 C23.4566276,20.0276962 22.6836879,20.7708087 21.5538431,20.7604087" id="Fill-24" fill="#FBFBFC"></path>
            <path d="M27.6925629,17.155265 C26.0507009,18.2978025 26.2924595,19.4811275 27.6691405,20.60189 C26.1992612,21.234665 25.8926405,19.9712275 25.1287095,19.23754 C25.1287095,19.6507775 25.1064336,19.910615 25.1336233,20.1652525 C25.1819422,20.61944 25.0094681,20.77024 24.5418388,20.774465 C24.0496405,20.779015 23.9531664,20.57784 23.9652871,20.14884 C23.9900198,19.2591525 23.9957526,18.3676775 23.9641405,17.4784775 C23.9466147,16.9857775 24.2199853,16.9864275 24.5775457,16.984315 C24.9254422,16.9822025 25.1642526,17.03079 25.126744,17.46044 C25.1011922,17.7534275 25.121994,18.050315 25.121994,18.4586775 C25.9330974,17.89984 26.1656836,16.4943775 27.6925629,17.155265" id="Fill-26" fill="#86BCE4"></path>
            <path d="M19.2297828,17.0284662 C19.2297828,18.1859537 19.220119,19.2877037 19.2345328,20.3891287 C19.2402655,20.8256037 18.9459293,20.7747412 18.6850069,20.7563787 C18.4270328,20.7385037 18.0385155,20.9156287 18.0457224,20.4016412 C18.0524379,19.9435537 18.0422828,19.4853037 18.0463776,19.0273787 C18.0503086,18.5952912 18.1528431,18.0850412 17.4036534,18.3837162 C17.1774552,18.4739037 17.1117741,18.2979162 17.1315931,18.1238787 C17.1609121,17.8648537 16.9520759,17.5049162 17.4211793,17.4113162 C18.0021534,17.2957787 18.5805069,17.1665912 19.2297828,17.0284662" id="Fill-28" fill="#FBFBFC"></path>
            <path d="M27.8158009,18.5726875 C28.4565595,17.728825 28.7818526,16.64495 30.1092319,17.0419375 C29.585094,18.37915 29.0851974,18.7397375 27.8158009,18.5726875" id="Fill-30" fill="#86BBE3"></path>
            <path d="M22.3516138,18.9511662 C22.252519,19.4680787 22.1080534,19.9477787 21.5043121,19.8891162 C20.8689586,19.8278537 20.7785448,19.2982662 20.8016397,18.7919162 C20.8242431,18.2967787 21.0180103,17.8408037 21.6202776,17.8949162 C22.2638207,17.9527662 22.300019,18.4917787 22.3516138,18.9511662" id="Fill-40" fill="#27285B"></path>
        </g>
    </g>
</svg>