<?xml version="1.0" encoding="UTF-8"?>
<svg width="46px" height="46px" viewBox="0 0 46 46" version="1.1" xmlns="http://www.w3.org/2000/svg" xmlns:xlink="http://www.w3.org/1999/xlink">
    <!-- Generator: Sketch 51.3 (57544) - http://www.bohemiancoding.com/sketch -->
    <title>17hats</title>
    <desc>Created with Sketch.</desc>
    <defs></defs>
    <g id="Page-10-(Q2)" stroke="none" stroke-width="1" fill="none" fill-rule="evenodd">
        <g id="17hats" fill-rule="nonzero">
            <rect id="Rectangle-17-Copy-7" fill="#FFFFFF" x="0" y="0" width="46" height="46" rx="4"></rect>
            <g id="17hats-0" transform="translate(11.000000, 10.000000)" fill="#0B763E">
                <path d="M11.4386503,4.33588235 C11.3941718,2.99917647 11.3604294,2.18552941 11.2852761,0.845764706 C11.2802456,0.751891817 11.3139469,0.660053326 11.3785493,0.591589078 C11.4431517,0.52312483 11.5330302,0.4839958 11.6273006,0.483294118 C15.8282209,0.434352941 19.7852761,0.305882353 23.958589,0.0412941176 C24.0568842,0.0352984599 24.153218,0.0705482646 24.2242944,0.13851925 C24.2953709,0.206490236 24.3347185,0.300993744 24.3328221,0.399176471 C24.3067485,1.64258824 24.3328221,2.67952941 24.3665644,4.07741176 L24.3420245,4.21964706 C22.1947853,9.64141176 20.6196319,14.43 19.8696319,19.6024706 C19.8404795,19.7600834 19.7117626,19.880376 19.5521472,19.8991765 C17.797546,20.0383529 16.7714724,20.1041176 15.0521472,20.1790588 C14.9455084,20.1834394 14.8427462,20.1388039 14.773337,20.0579557 C14.7039278,19.9771074 14.675541,19.8689799 14.696319,19.7645882 C15.797546,14.5141176 17.1625767,9.70870588 19.5904908,4.43529412 C16.9570552,4.57141176 14.4187117,4.65247059 11.7898773,4.67541176 C11.6000165,4.67550024 11.4444539,4.52511858 11.4386503,4.33588235 Z M4.6595092,0.458823529 C6.39570552,0.495529412 7.44631902,0.506235294 9.26840491,0.504705882 C9.45116817,0.505162307 9.60217585,0.647043361 9.61349693,0.828941176 C9.96932515,7.20505882 10.0552147,13.5704706 10.0184049,19.9618824 C10.0167214,20.149893 9.86339713,20.3014193 9.67484663,20.3014118 C7.91411043,20.3014118 6.88803681,20.2830588 5.13957055,20.1958824 C4.95367002,20.1859927 4.80984282,20.0296569 4.81595092,19.8441176 C5.03983761,13.4998797 4.87131761,7.14791219 4.31134969,0.824352941 C4.30442659,0.728665208 4.33823845,0.63449472 4.40449405,0.564933586 C4.47074965,0.495372452 4.56332139,0.456853985 4.6595092,0.458823529 Z M22.7776074,19.6590588 C22.8448628,19.6300613 22.9213521,19.6311748 22.9877301,19.6621176 C24.3159509,20.2096471 24.952454,20.8030588 24.952454,21.5677647 C24.9555215,23.5942353 19.3742331,25.6589412 12.4861963,25.9021176 C5.59815951,26.1452941 0.00613496933,24.4705882 0.00613496933,22.4441176 C0.00613496933,21.6748235 0.627300613,21.0171765 2,20.3794118 C2.02607362,20.3625882 2.14417178,20.3381176 2.17944785,20.3794118 C2.21933557,20.407201 2.2455332,20.4505551 2.25153374,20.4987059 C2.45092025,22.1932941 6.86809816,23.4611765 12.4754601,23.2638824 C18.0828221,23.0665882 22.5107362,21.4867059 22.6840491,19.812 C22.6827808,19.7472217 22.7192664,19.6875781 22.7776074,19.6590588 Z" id="Combined-Shape"></path>
            </g>
        </g>
    </g>
</svg>