<?xml version="1.0" encoding="UTF-8"?>
<svg width="46px" height="46px" viewBox="0 0 46 46" version="1.1" xmlns="http://www.w3.org/2000/svg" xmlns:xlink="http://www.w3.org/1999/xlink">
    <!-- Generator: Sketch 55.2 (78181) - https://sketchapp.com -->
    <title>1CRM</title>
    <desc>Created with Sketch.</desc>
    <defs>
        <rect id="path-1" x="0" y="0" width="26" height="26"></rect>
    </defs>
    <g id="Page-11-(Q3)" stroke="none" stroke-width="1" fill="none" fill-rule="evenodd">
        <g id="1CRM">
            <rect id="Rectangle-17-Copy-6" fill="#FFFFFF" fill-rule="nonzero" x="0" y="0" width="46" height="46" rx="4"></rect>
            <g id="Group-51" transform="translate(10.000000, 10.000000)">
                <mask id="mask-2" fill="white">
                    <use xlink:href="#path-1"></use>
                </mask>
                <use id="Rectangle" fill="#398D9D" xlink:href="#path-1"></use>
                <g id="Group-50" mask="url(#mask-2)">
                    <g transform="translate(4.420000, 3.640000)">
                        <polygon id="Path" fill="#FFFFFF" fill-rule="evenodd" points="7.9758286 0.106929396 5.17310812 0.142143474 2.84217094e-14 1.52925802 0.80896341 5.09308277 3.83241213 4.25210657 3.82825047 18.5648686 8.05409989 18.5648686"></polygon>
                        <rect id="Rectangle" fill="#FFFFFF" fill-rule="evenodd" x="10.2646571" y="0.106940658" width="7.01028144" height="18.4579128"></rect>
                        <path d="M14.0337417,18.0927849 C14.2934484,18.0927849 14.5288327,18.0696432 14.7409808,18.0258628 C14.9530817,17.9808546 15.1472831,17.9166245 15.3234435,17.8330782 C15.4996984,17.7493902 15.6629655,17.6478973 15.8146618,17.5294967 C15.9651302,17.4112378 16.1103562,17.2775354 16.2479786,17.1283894 L15.4919058,16.3645712 C15.3517803,16.4944009 15.2128828,16.6049616 15.0727574,16.7002205 C14.9325847,16.7940625 14.7821636,16.8673131 14.6200299,16.9188388 C14.4594075,16.9701757 14.2767769,16.9971901 14.0722797,16.9971901 C13.8395402,16.9958677 13.6286672,16.9508594 13.4370633,16.8622125 C13.2455066,16.7734239 13.0808698,16.6512923 12.9419723,16.4957233 C12.8030748,16.3400599 12.6963868,16.160074 12.6205859,15.9556241 C12.5446433,15.7512213 12.5073804,15.532603 12.5061052,15.2998635 L12.5061052,15.2843727 C12.5073804,15.0516332 12.5459657,14.8330621 12.623089,14.6312096 C12.6989371,14.4279876 12.8082699,14.2505521 12.9471674,14.096211 C13.0872928,13.9419172 13.2531575,13.8223831 13.4435335,13.7349169 C13.6337679,13.6474979 13.8433657,13.6037648 14.0722797,13.6024896 C14.2510849,13.6024896 14.4194526,13.6269065 14.5776664,13.6757403 C14.7358801,13.724574 14.8863013,13.7953215 15.0302994,13.8853381 C15.1742503,13.9766298 15.3145174,14.0845929 15.4534149,14.212014 L16.2094405,13.3401382 C16.0435759,13.1742735 15.8609925,13.028953 15.6603208,12.9041766 C15.4597435,12.779542 15.2308294,12.683008 14.9736731,12.6135828 C14.7152887,12.5428825 14.4182247,12.5081227 14.0800251,12.5068948 C13.7469733,12.5081227 13.4370633,12.5557286 13.1502477,12.6495706 C12.8623459,12.743507 12.6038199,12.8759343 12.3723556,13.048222 C12.1408912,13.2192818 11.9428643,13.4211342 11.7770468,13.6538737 C11.6123628,13.8853381 11.4864058,14.1412193 11.3976644,14.4203367 C11.308923,14.6980845 11.2651427,14.9912286 11.2639147,15.2998635 L11.2639147,15.3152598 C11.2651427,15.626445 11.3101982,15.9209115 11.3989396,16.1999344 C11.4889561,16.4776822 11.6162827,16.7322411 11.7808251,16.9624303 C11.9466897,17.1939419 12.1434415,17.393244 12.3723556,17.5617062 C12.6012224,17.7301684 12.8558757,17.8599981 13.1348986,17.9526122 C13.4151967,18.0451791 13.7148111,18.0915097 14.0337417,18.0927849" id="Path" fill="#333333" fill-rule="nonzero" transform="translate(13.755947, 15.299840) rotate(-90.000000) translate(-13.755947, -15.299840) "></path>
                        <path d="M11.4220537,12.2252528 L12.6102153,12.2252528 L12.6102153,10.4970864 L13.5437237,10.4970864 L14.70114,12.2252528 L16.0898789,12.2252528 L14.7705179,10.2964147 C15.0006126,10.211546 15.2025595,10.0932871 15.3761696,9.94286595 C15.5484573,9.79239759 15.6833876,9.60721665 15.7799216,9.38737038 C15.8776363,9.16747687 15.9264701,8.9128708 15.9277925,8.62222977 L15.9277925,8.60678622 C15.9277925,8.35090499 15.887932,8.11944063 15.8094391,7.91111798 C15.7310879,7.70279534 15.6153793,7.52276225 15.464911,7.37229389 C15.287381,7.19358319 15.0662123,7.05855837 14.8025857,6.96466914 C14.5389591,6.87210229 14.2342913,6.8245437 13.8908966,6.8245437 L11.4220537,6.8245437 L11.4220537,12.2252528 Z M12.6102153,9.44777497 L12.6102153,7.89699681 L13.7906316,7.89699681 C13.9848803,7.89699681 14.1506978,7.92523915 14.2895953,7.98309343 C14.4297207,8.04094772 14.5364088,8.12718602 14.611029,8.24161943 C14.685602,8.35600561 14.7242345,8.49877582 14.7242345,8.66856043 L14.7242345,8.68395675 C14.7242345,8.8369282 14.6881523,8.97072508 14.617452,9.08378888 C14.5454765,9.19826952 14.4425668,9.28701091 14.3075419,9.35133542 C14.1712892,9.41433756 14.0079748,9.44649982 13.8138206,9.44777497 L12.6102153,9.44777497 Z" id="Shape" fill="#333333" fill-rule="nonzero" transform="translate(13.755966, 9.524898) rotate(-90.000000) translate(-13.755966, -9.524898) "></path>
                        <polygon id="Path" fill="#398D9E" fill-rule="nonzero" transform="translate(13.755929, 2.180402) rotate(-90.000000) translate(-13.755929, -2.180402) " points="13.0652905 2.58514564 13.8760061 1.3548566 13.8760061 4.88080359 15.0563752 4.88080359 15.0563752 -0.52 13.7755994 -0.52 12.4554827 1.60374809"></polygon>
                        <polygon id="Path" fill="#333333" fill-rule="nonzero" transform="translate(13.755954, 4.627084) rotate(-90.000000) translate(-13.755954, -4.627084) " points="12.1023604 7.32748618 13.2673804 7.32748618 13.2673804 3.8246809 14.7718279 6.1084374 14.8026205 6.1084374 15.4095474 5.18730276 13.7725309 2.55320905 13.3831362 1.92668259 12.1023604 1.92668259"></polygon>
                    </g>
                </g>
            </g>
        </g>
    </g>
</svg>