<?xml version="1.0" encoding="UTF-8"?>
<svg width="46px" height="46px" viewBox="0 0 46 46" version="1.1" xmlns="http://www.w3.org/2000/svg" xmlns:xlink="http://www.w3.org/1999/xlink">
    <!-- Generator: Sketch 51.3 (57544) - http://www.bohemiancoding.com/sketch -->
    <title>3dcart</title>
    <desc>Created with Sketch.</desc>
    <defs></defs>
    <g id="Page-10-(Q2)" stroke="none" stroke-width="1" fill="none" fill-rule="evenodd">
        <g id="3dcart" fill-rule="nonzero">
            <rect id="Rectangle-17-Copy-7" fill="#FFFFFF" x="0" y="0" width="46" height="46" rx="4"></rect>
            <path d="M15.9669567,28.0207249 C15.5391636,28.0207249 15.1709913,27.7184253 15.0877349,27.2988121 L12.9900687,16.7265385 L10.2738641,14.0422801 C10.2713498,14.0397954 10.2688502,14.0372958 10.2663655,14.0347816 C9.91839157,13.6826663 9.9217488,13.1151318 10.2738641,12.7671579 L10.7913745,12.2557341 C11.1405477,11.9106676 11.7023264,11.9106676 12.0514996,12.2557341 L15.6791516,15.84072 L34.8754144,15.84072 C34.9631966,15.84072 35.0506747,15.8510359 35.136049,15.8714554 C35.7378824,16.0153999 36.1090747,16.6199724 35.9651301,17.2218058 L33.546799,27.3328716 C33.450327,27.7362219 33.0897531,28.0207249 32.6750264,28.0207249 L15.9669567,28.0207249 Z M18.3682345,34 C17.2543799,34 16.3514223,33.1076624 16.3514223,32.0069083 C16.3514223,30.9061541 17.2543799,30.0138166 18.3682345,30.0138166 C19.4820891,30.0138166 20.3850466,30.9061541 20.3850466,32.0069083 C20.3850466,33.1076624 19.4820891,34 18.3682345,34 Z M30.2450172,34 C29.1311626,34 28.228205,33.1076624 28.228205,32.0069083 C28.228205,30.9061541 29.1311626,30.0138166 30.2450172,30.0138166 C31.3588718,30.0138166 32.2618293,30.9061541 32.2618293,32.0069083 C32.2618293,33.1076624 31.3588718,34 30.2450172,34 Z" id="Combined-Shape" fill="#23AC61"></path>
        </g>
    </g>
</svg>