<?xml version="1.0" encoding="UTF-8"?>
<svg width="46px" height="46px" viewBox="0 0 46 46" version="1.1" xmlns="http://www.w3.org/2000/svg" xmlns:xlink="http://www.w3.org/1999/xlink">
    <!-- Generator: Sketch 51.3 (57544) - http://www.bohemiancoding.com/sketch -->
    <title>abstract</title>
    <desc>Created with Sketch.</desc>
    <defs></defs>
    <g id="Page-6" stroke="none" stroke-width="1" fill="none" fill-rule="evenodd">
        <g id="abstract" fill-rule="nonzero">
            <rect id="Rectangle-17-Copy-7" fill="#FFFFFF" x="0" y="0" width="46" height="46" rx="4"></rect>
            <g id="svgexport-0-(2)" transform="translate(10.000000, 10.000000)" fill="#000000">
                <g id="Group">
                    <path d="M12.9541176,0 C2.58980392,0 0,2.58980392 0,12.9541176 C0,23.3184314 2.58980392,25.9082353 12.9541176,25.9082353 C23.3184314,25.9082353 25.9082353,23.3184314 25.9082353,12.9541176 C25.9082353,2.58980392 23.3184314,0 12.9541176,0 Z M10.8282353,20.0403922 C8.09069313,20.0319516 5.87752501,17.8073847 5.88314772,15.0698353 C5.88877043,12.332286 8.111058,10.1168292 10.8486117,10.119634 C13.5861655,10.1224389 15.8039086,12.3424448 15.8039216,15.08 C15.798296,17.8231887 13.5714283,20.0432115 10.8282353,20.0403922 Z M19.8364706,19.8364706 L17.4047059,19.8364706 L17.4047059,8.49843137 L6.07176471,8.49843137 L6.07176471,6.07176471 L19.8364706,6.07176471 L19.8364706,19.8364706 Z M10.8282353,17.6086275 C9.43171292,17.6086275 8.29960784,16.4765224 8.29960784,15.08 C8.29960784,13.6834776 9.43171292,12.5513725 10.8282353,12.5513725 C12.2247577,12.5513725 13.3568627,13.6834776 13.3568627,15.08 C13.3568627,16.4765224 12.2247577,17.6086275 10.8282353,17.6086275 Z" id="Combined-Shape"></path>
                </g>
            </g>
        </g>
    </g>
</svg>