<?xml version="1.0" encoding="UTF-8"?>
<svg width="46px" height="46px" viewBox="0 0 46 46" version="1.1" xmlns="http://www.w3.org/2000/svg" xmlns:xlink="http://www.w3.org/1999/xlink">
    <!-- Generator: Sketch 63.1 (92452) - https://sketch.com -->
    <desc>Created with Sketch.</desc>
    <g id="Page-13-(2020-Q1)" stroke="none" stroke-width="1" fill="none" fill-rule="evenodd">
        <g id="accelo">
            <rect id="Rectangle-17-Copy-7" fill="#FFFFFF" fill-rule="nonzero" x="0" y="0" width="46" height="46" rx="4"></rect>
            <g id="Group-13" transform="translate(10.000000, 14.000000)">
                <path d="M19.3521569,13.4537255 L19.3521569,13.4537255 C19.3521569,14.0060131 18.9103268,14.4478431 18.3580392,14.4478431 L4.19738562,14.4478431 C3.64509804,14.4478431 3.20326797,14.0060131 3.20326797,13.4537255 L3.20326797,13.4537255 C3.20326797,12.9014379 3.64509804,12.4596078 4.19738562,12.4596078 L18.3580392,12.4596078 C18.9103268,12.4596078 19.3521569,12.9014379 19.3521569,13.4537255 Z" id="Path" fill="#FFA216"></path>
                <path d="M12.5921569,0.994117647 L12.5921569,0.994117647 C12.5921569,1.54640523 12.1503268,1.98823529 11.5980392,1.98823529 L0.994117647,1.98823529 C0.441830065,1.98823529 0,1.54640523 0,0.994117647 L0,0.994117647 C0,0.441830065 0.441830065,0 0.994117647,0 L11.5980392,0 C12.1503268,0 12.5921569,0.441830065 12.5921569,0.994117647 Z" id="Path" fill="#6556C4"></path>
                <path d="M19.3521569,5.14732026 L19.3521569,5.14732026 C19.3521569,5.69960784 18.9103268,6.14143791 18.3580392,6.14143791 L4.19738562,6.14143791 C3.64509804,6.14143791 3.20326797,5.69960784 3.20326797,5.14732026 L3.20326797,5.14732026 C3.20326797,4.59503268 3.64509804,4.15320261 4.19738562,4.15320261 L18.3580392,4.15320261 C18.9103268,4.15320261 19.3521569,4.59503268 19.3521569,5.14732026 Z" id="Path" fill="#2D96CB"></path>
                <path d="M25.6924183,9.30052288 L25.6924183,9.30052288 C25.6924183,9.85281046 25.2505882,10.2946405 24.6983007,10.2946405 L7.4669281,10.2946405 C6.91464052,10.2946405 6.47281046,9.85281046 6.47281046,9.30052288 L6.47281046,9.30052288 C6.47281046,8.74823529 6.91464052,8.30640523 7.4669281,8.30640523 L24.6983007,8.30640523 C25.2505882,8.30640523 25.6924183,8.74823529 25.6924183,9.30052288 Z" id="Path" fill="#45AE3D"></path>
                <path d="M12.5921569,17.6069281 L12.5921569,17.6069281 C12.5921569,18.1592157 12.1503268,18.6010458 11.5980392,18.6010458 L0.994117647,18.6010458 C0.441830065,18.6010458 0,18.1592157 0,17.6069281 L0,17.6069281 C0,17.0546405 0.441830065,16.6128105 0.994117647,16.6128105 L11.5980392,16.6128105 C12.1503268,16.6128105 12.5921569,17.0546405 12.5921569,17.6069281 Z" id="Path" fill="#F74E0A"></path>
            </g>
        </g>
    </g>
</svg>