<?xml version="1.0" encoding="UTF-8"?>
<svg width="46px" height="46px" viewBox="0 0 46 46" version="1.1" xmlns="http://www.w3.org/2000/svg" xmlns:xlink="http://www.w3.org/1999/xlink">
    <!-- Generator: Sketch 64 (93537) - https://sketch.com -->
    <desc>Created with Sketch.</desc>
    <defs>
        <linearGradient x1="50%" y1="0%" x2="50%" y2="100%" id="linearGradient-1">
            <stop stop-color="#74C947" offset="0%"></stop>
            <stop stop-color="#81CE59" offset="100%"></stop>
        </linearGradient>
        <linearGradient x1="50%" y1="0%" x2="50%" y2="100%" id="linearGradient-2">
            <stop stop-color="#74C947" offset="0%"></stop>
            <stop stop-color="#74C947" offset="100%"></stop>
        </linearGradient>
    </defs>
    <g id="Page-13-(2020-Q1)" stroke="none" stroke-width="1" fill="none" fill-rule="evenodd">
        <g id="acorns" fill-rule="nonzero">
            <rect id="Rectangle-17-Copy-7" fill="#FFFFFF" x="0" y="0" width="46" height="46" rx="4"></rect>
            <path d="M32.7690435,22.3296522 L13.8252174,22.3313478 C12.155,22.2013478 12.2092609,14.0656087 21.9021739,13.367 C21.9943043,13.3246087 22.014087,13.315 22.0677826,13.1386522 C22.1576522,12.8125217 22.209087,12.4948696 22.2181304,12.1941739 C22.2283043,11.8267826 22.1791304,11.4989565 22.068913,11.1931739 C21.9705652,10.9218696 21.8196522,10.6635652 21.624087,10.4329565 C21.9225217,10.4335217 22.2181304,10.4934348 22.5041304,10.6104348 C22.8715217,10.7573913 23.244,11.0106087 23.5797391,11.3446522 C23.8911739,11.6515652 24.1788696,12.0268696 24.4360435,12.4603913 C24.5586957,12.6683913 24.6700435,12.8792174 24.7746087,13.1058696 C24.8243478,13.216087 24.8729565,13.3296957 24.9181739,13.4495217 C34.3793478,14.2656957 34.4262609,22.1996522 32.7690435,22.3296522" id="Fill-7" fill="url(#linearGradient-1)"></path>
            <path d="M32.3225217,23.1876522 C32.3225217,23.1876522 33.8203478,32.5092174 24.6474348,34.2698696 C24.2314348,34.6248261 23.5407391,35.4381739 23.2892174,35.4347932 C23.0371304,35.4381739 22.3464348,34.6248261 21.9298696,34.2698696 C12.7055217,32.6889565 14.2542174,23.1876522 14.2542174,23.1876522 L32.3225217,23.1876522" id="Fill-8" fill="url(#linearGradient-2)"></path>
        </g>
    </g>
</svg>