<?xml version="1.0" encoding="UTF-8"?>
<svg width="46px" height="46px" viewBox="0 0 46 46" version="1.1" xmlns="http://www.w3.org/2000/svg" xmlns:xlink="http://www.w3.org/1999/xlink">
    <!-- Generator: Sketch 51.3 (57544) - http://www.bohemiancoding.com/sketch -->
    <title>activecampaign</title>
    <desc>Created with Sketch.</desc>
    <defs></defs>
    <g id="Page-4" stroke="none" stroke-width="1" fill="none" fill-rule="evenodd">
        <g id="activecampaign" fill-rule="nonzero">
            <rect id="Rectangle-17-Copy-6" fill="#356AE5" x="0" y="0" width="46" height="46" rx="4"></rect>
            <g id="Group-53" transform="translate(15.000000, 10.000000)" fill="#FFFFFF">
                <path d="M15.6618571,11.46275 C16.2269048,11.860875 16.5150952,12.35325 16.5150952,12.9244375 L16.5150952,13.208 C16.508619,13.6491875 16.3507619,14.2699375 15.6618571,14.789125 L15.6594286,14.79075 C15.3275238,15.0288125 11.949381,17.37775 8.37290476,19.865625 C4.87414286,22.2990625 0.931761905,25.04125 0.450095238,25.3833125 L0.450095238,25.779 L0.216142857,25.384125 C0.204809524,25.3638125 0.194285714,25.34675 0.206428571,25.319125 L0.199142857,25.319125 L0.199142857,23.25375 C0.199142857,22.5493125 0.276857143,22.2105 1.05804762,21.6880625 C1.71052381,21.2671875 12.0384286,14.079 13.4089524,13.12675 C12.0489524,12.1785625 1.85380952,5.074875 1.15519048,4.561375 L1.07261905,4.50125 C0.556142857,4.125875 0.149761905,3.830125 0.149761905,3.0485 L0.149761905,0.589875 L0.345666667,0.728 C0.955238095,1.15375 15.2627619,11.1629375 15.6618571,11.46275 Z" id="Path"></path>
                <path d="M6.71904762,14.243125 C6.36528571,14.243125 6.0147619,14.119625 5.64561905,13.8734375 C4.75190476,13.274625 0.167571429,10.075 0.121428571,10.0425 L0.068,10.005125 L0.068,8.42725 C0.068,8.064875 0.223428571,7.7780625 0.496238095,7.639125 C0.78847619,7.489625 1.15357143,7.538375 1.47252381,7.77075 C2.1622381,8.216 8.83271429,12.861875 8.89990476,12.9098125 L9.05128571,13.014625 L8.89747619,13.1178125 C8.89747619,13.1178125 8.44657143,13.41925 7.94628571,13.77025 C7.51804762,14.0855 7.11733333,14.243125 6.71904762,14.243125 Z" id="Path"></path>
            </g>
        </g>
    </g>
</svg>