<?xml version="1.0" encoding="UTF-8"?>
<svg width="46px" height="46px" viewBox="0 0 46 46" version="1.1" xmlns="http://www.w3.org/2000/svg" xmlns:xlink="http://www.w3.org/1999/xlink">
    <!-- Generator: Sketch 51.3 (57544) - http://www.bohemiancoding.com/sketch -->
    <title>active_collab</title>
    <desc>Created with Sketch.</desc>
    <defs></defs>
    <g id="Page-7" stroke="none" stroke-width="1" fill="none" fill-rule="evenodd">
        <g id="active_collab" fill-rule="nonzero">
            <rect id="Rectangle-17-Copy-7" fill="#FFFFFF" x="0" y="0" width="46" height="46" rx="4"></rect>
            <g id="Group-9" transform="translate(10.000000, 11.000000)" fill="#449DF5">
                <path d="M14.6211,0.0256557904 L14.6198,0.0262968161 C14.34225,3.64873271 13.7527,6.80642502 12.94475,9.51155323 C12.54435,10.8538609 12.116,11.9942455 11.69025,12.9346301 C11.5427,13.2589891 11.5102,13.2974507 11.5102,13.2974507 L9.34895,12.0455276 C9.098614,11.9003312 8.78874818,11.8978729 8.53607599,12.0390788 C8.2834038,12.1802847 8.12631216,12.4437022 8.12397598,12.7301044 C8.1216398,13.0165067 8.27441399,13.2823825 8.52475,13.4275789 L11.43285,15.1134763 C11.816291,15.3362465 12.3100998,15.2133556 12.54045,14.8378353 C12.67435,14.6173225 12.89535,14.2012968 13.17485,13.5878353 C13.6305,12.5827071 14.0829,11.3756558 14.5054,9.96283528 C15.3465,7.14360451 15.9588,3.86283528 16.2435,0.114117329 C24.3854,0.753860919 26,4.14745066 26,12.0192455 C26,19.6442455 23.98825,24.8397584 13,24.8397584 C2.01175,24.8397584 0,19.6577071 0,12.0192455 C0,3.1833481 2.028,1.47647893e-05 13,1.47647893e-05 C13.5404742,-0.000405419549 14.0809174,0.00814279886 14.6211,0.0256557904 Z M18.2806,8.4134763 C18.953697,8.4134763 19.49935,7.87535701 19.49935,7.21155323 C19.49935,6.54774944 18.953697,6.00963015 18.2806,6.00963015 C17.607503,6.00963015 17.06185,6.54774944 17.06185,7.21155323 C17.06185,7.87535701 17.607503,8.4134763 18.2806,8.4134763 Z M7.7181,8.4134763 C8.39119704,8.4134763 8.93685,7.87535701 8.93685,7.21155323 C8.93685,6.54774944 8.39119704,6.00963015 7.7181,6.00963015 C7.04500296,6.00963015 6.49935,6.54774944 6.49935,7.21155323 C6.49935,7.87535701 7.04500296,8.4134763 7.7181,8.4134763 Z M7.4438,17.8121943 C7.5101,17.9134763 7.6258,18.0609122 7.7948,18.2378353 C8.0613,18.5179635 8.3889,18.7929635 8.7828,19.0480917 C9.88,19.7596301 11.2801,20.180784 12.99285,20.180784 C14.70365,20.180784 16.10505,19.7628353 17.2068,19.057066 C17.5684292,18.8281078 17.9017476,18.5583366 18.2,18.2532199 C18.369,18.0775789 18.486,17.931425 18.55295,17.830143 C18.7892925,17.4612932 18.6829427,16.9737554 18.3137062,16.7333821 C17.9444698,16.4930088 17.448088,16.5881676 17.19705,16.9474507 L17.17235,16.9795019 C17.1251955,17.0373397 17.0753069,17.0929567 17.02285,17.1461686 C16.83955,17.3365532 16.60685,17.5295019 16.32085,17.7121943 C15.4804,18.2506558 14.3858,18.5775789 12.99285,18.5775789 C11.60055,18.5775789 10.50985,18.2493737 9.67395,17.7083481 C9.42043549,17.5464492 9.18701317,17.3558354 8.97845,17.1403994 C8.92636973,17.0865499 8.87691394,17.0302898 8.83025,16.9718096 L8.80555,16.9397584 C8.64975234,16.6944457 8.3719092,16.5510693 8.07872465,16.564692 C7.78554009,16.5783147 7.52259693,16.7468185 7.39087697,17.0054905 C7.25915701,17.2641625 7.2791394,17.5727858 7.44315,17.8128353 L7.4438,17.8121943 Z" id="Shape"></path>
            </g>
        </g>
    </g>
</svg>