<?xml version="1.0" encoding="UTF-8"?>
<svg width="46px" height="46px" viewBox="0 0 46 46" version="1.1" xmlns="http://www.w3.org/2000/svg" xmlns:xlink="http://www.w3.org/1999/xlink">
    <!-- Generator: Sketch 51.3 (57544) - http://www.bohemiancoding.com/sketch -->
    <title>acuityscheduling</title>
    <desc>Created with Sketch.</desc>
    <defs>
        <linearGradient x1="-1.11022302e-14%" y1="50%" x2="100%" y2="50%" id="linearGradient-1">
            <stop stop-color="#FDE59B" offset="0%"></stop>
            <stop stop-color="#F6AE1D" offset="100%"></stop>
        </linearGradient>
    </defs>
    <g id="Page-1" stroke="none" stroke-width="1" fill="none" fill-rule="evenodd">
        <g id="acuityscheduling" fill-rule="nonzero">
            <rect id="Rectangle-17-Copy-3" fill="#FFFFFF" x="0" y="0" width="46" height="46" rx="4"></rect>
            <g id="Group-22" transform="translate(12.000000, 10.000000)">
                <path d="M4.70216869,20.9107501 L6.39447485,17.7732317 C7.77977151,18.9302194 9.55917494,19.6258065 11.5,19.6258065 C15.918278,19.6258065 19.5,16.0209766 19.5,11.5741935 C19.5,7.12741053 15.918278,3.52258065 11.5,3.52258065 C7.081722,3.52258065 3.5,7.12741053 3.5,11.5741935 C3.5,12.6898701 3.72546369,13.7525471 4.13303543,14.7185891 L2.46024211,18.729484 C0.919325315,16.7602619 0,14.2752803 0,11.5741935 C0,5.18194296 5.14872538,0 11.5,0 C17.8512746,0 23,5.18194296 23,11.5741935 C23,17.9664441 17.8512746,23.1483871 11.5,23.1483871 C8.95678377,23.1483871 6.60638558,22.3175088 4.70216869,20.9107501 Z" id="Combined-Shape" fill="url(#linearGradient-1)"></path>
                <path d="M6.66666667,14.4258065 L2.52164714,24.0709677 C2.49116686,24.1785912 2.50969272,24.2558893 2.57722473,24.302862 C2.64475674,24.3498346 2.73012627,24.3284505 2.83333333,24.2387097 L10.5,17.0258065 C9.61111111,16.8021505 8.86111111,16.4946237 8.25,16.1032258 C7.63888889,15.711828 7.11111111,15.1526882 6.66666667,14.4258065 Z" id="Path-10" fill="#1B2737"></path>
                <path d="M9.64404178,14.3808125 C8.75380477,13.7878507 8.16666667,12.7709989 8.16666667,11.616129 C8.16666667,9.7864631 9.64039603,8.30322581 11.4583333,8.30322581 C12.6536272,8.30322581 13.7001177,8.94443861 14.2767483,9.90373614 L14.2871908,9.90373614 L14.3356807,10.0058463 C14.4019715,10.1255756 14.4610987,10.2498718 14.5124791,10.3781482 L21.7453613,25.6091482 C21.771525,25.7688878 21.7377013,25.8762144 21.6438904,25.9311279 C21.5500794,25.9860414 21.4290094,25.969384 21.2806803,25.8811555 L9.64404178,14.3808125 Z" id="Combined-Shape" fill="#1B2737"></path>
            </g>
        </g>
    </g>
</svg>