<?xml version="1.0" encoding="UTF-8"?>
<svg width="46px" height="46px" viewBox="0 0 46 46" version="1.1" xmlns="http://www.w3.org/2000/svg" xmlns:xlink="http://www.w3.org/1999/xlink">
    <!-- Generator: Sketch 55.2 (78181) - https://sketchapp.com -->
    <title>AdEspresso</title>
    <desc>Created with Sketch.</desc>
    <g id="Page-11-(Q3)" stroke="none" stroke-width="1" fill="none" fill-rule="evenodd">
        <g id="AdEspresso">
            <rect id="Rectangle-17-Copy-6" fill="#FFFFFF" fill-rule="nonzero" x="0" y="0" width="46" height="46" rx="4"></rect>
            <path d="M28.3695323,23.7117214 C28.7184425,24.3074792 28.9673961,24.73255 29.2163497,25.1576209 C29.5877702,24.8881441 30.1124754,24.7001689 30.2981857,24.3324511 C30.672822,23.590155 30.9105204,22.7616922 31.1037341,21.9439316 C31.1704612,21.6618317 31.0252159,21.1470267 30.8167273,21.024637 C30.5897481,20.8915451 30.0125188,20.9700282 29.873973,21.1670591 C29.3262216,21.9450293 28.8904858,22.8055988 28.3695323,23.7117214 Z M15.716848,22.9310071 C16.961348,22.9310071 17.9309003,22.9565278 18.8975048,22.9142677 C19.1697727,22.9024678 19.6264109,22.7419342 19.6711636,22.5632892 C20.0538393,21.0394555 20.3606766,19.4958639 20.6900242,17.9580349 C20.6005189,17.9355328 20.5110135,17.9130307 20.4215081,17.8908029 C18.9055442,19.5147986 17.3895803,21.1390686 15.716848,22.9310071 Z M36,26.2931555 C34.6662626,26.8142721 33.3952326,27.4706758 32.0499721,27.7417991 C31.6354068,27.8252217 31.0187844,26.857081 30.4771964,26.3543504 C28.1224546,28.6468241 26.9714797,28.5376064 25.5549365,25.6743468 C21.0780595,29.5932859 20.2307062,29.4643102 19.3511952,24.7196525 C18.5617256,24.8376515 17.7743999,25.0160221 16.9803746,25.0563613 C16.2329778,25.0942307 15.4783457,24.9863851 14.5731086,24.9334228 C14.3697116,25.5492129 14.0864566,26.2113795 13.9390675,26.9037318 C13.7804232,27.6473999 13.918433,28.497816 12.7532552,28.4843696 C11.5819138,28.4709232 10.727861,28.0326804 10.4486256,26.8403416 C10.1525075,25.5752825 10.4116444,24.3642834 11.2493504,23.3697987 C12.0045186,22.4735551 12.8087271,21.6121623 13.6584922,20.8100435 C14.8721745,19.6643555 16.2477168,18.6830428 17.3641222,17.4509136 C18.3033927,16.4144433 18.962088,15.1139844 19.7668325,13.9460687 C19.9262807,13.7147357 20.1564757,13.4735238 20.4051613,13.3804967 C20.8601916,13.2109074 21.3484515,13.1115687 21.8310838,13.0476297 C24.2541606,12.7276603 25.5458251,14.035254 25.0645327,16.5050006 C24.6912363,18.4209752 24.0518356,20.2815177 23.5710792,22.1774599 C23.3666103,22.9839694 23.2645098,23.8173717 23.0715641,24.8829302 C24.4851596,24.5753095 25.1342076,23.8807619 25.4831178,22.839352 C25.6851748,22.2364594 25.7945107,21.5945997 26.048288,21.018051 C27.0226639,18.8032371 28.5399677,18.3018785 31.6536294,19.185499 C31.6820353,18.6756335 31.7570698,18.1874469 31.726788,17.7063952 C31.6201319,16.0261442 33.3922849,14.6653138 34.9508576,15.2750668 C36.0621714,15.7100166 35.9986601,16.66279 35.7625696,17.5735777 C35.2718978,19.4667757 34.6917208,21.3352763 34.1841663,23.2240837 C34.0493723,23.7251678 34.0445486,24.2627493 33.9802334,24.7838659 C34.1177072,24.8711303 34.255181,24.9583947 34.3923869,25.0459335 L36,26.2931555 Z M10,34 C10.0592236,32.5370867 10.9714282,32.0261236 11.9281174,31.8485762 C14.4591902,31.3793244 17.0066098,30.8837285 19.5666245,30.7253903 C23.6107134,30.4756715 27.6716851,30.5204014 31.7232775,30.3782537 C32.7812632,30.3409331 33.8400529,30.1148141 34.8824958,29.8961043 C35.6057744,29.7443521 36.0318628,30.0390752 35.853656,30.6984975 C35.6550827,31.43311 35.3310947,32.3694184 34.7686043,32.7094202 C33.852916,33.2631922 32.6979214,33.6742679 31.6455632,33.6707004 C27.8166624,33.6569796 23.9882975,33.332894 20.1604686,33.3463404 C17.2386807,33.3562194 14.3179647,33.6989653 11.3969807,33.8948986 C10.960441,33.9242611 10.5241692,33.9602096 10,34 Z" id="Combined-Shape" fill="#3A5998"></path>
        </g>
    </g>
</svg>