<?xml version="1.0" encoding="UTF-8"?>
<svg width="46px" height="46px" viewBox="0 0 46 46" version="1.1" xmlns="http://www.w3.org/2000/svg" xmlns:xlink="http://www.w3.org/1999/xlink">
    <!-- Generator: Sketch 51.3 (57544) - http://www.bohemiancoding.com/sketch -->
    <title>aeries</title>
    <desc>Created with Sketch.</desc>
    <defs></defs>
    <g id="Page-7" stroke="none" stroke-width="1" fill="none" fill-rule="evenodd">
        <g id="aeries" fill-rule="nonzero">
            <rect id="Rectangle-17-Copy-7" fill="#FFFFFF" x="0" y="0" width="46" height="46" rx="4"></rect>
            <g id="Group-2" transform="translate(10.000000, 10.000000)">
                <path d="M11.5,0 L2,26 C0.8954305,26 1.3527075e-16,25.1045695 0,24 L0,2 C-1.3527075e-16,0.8954305 0.8954305,2.02906125e-16 2,0 L11.5,0 Z M18.5,0 L24,0 C25.1045695,-2.02906125e-16 26,0.8954305 26,2 L26,20.5 L18.5,0 Z M21.5,26 L8,26 L9.75,21.5 L20.25,21.5 L21.5,26 Z M14.75,5.75 L18.5,17 L11,17 L14.75,5.75 Z" id="Combined-Shape" fill="#284B97"></path>
                <path d="M18.5,0 L24,0 C25.1045695,-2.02906125e-16 26,0.8954305 26,2 L26,20.5 L18.5,-2.22044605e-16 Z" id="Combined-Shape" fill="#BA2428"></path>
            </g>
        </g>
    </g>
</svg>