<?xml version="1.0" encoding="UTF-8"?>
<svg width="46px" height="46px" viewBox="0 0 46 46" version="1.1" xmlns="http://www.w3.org/2000/svg" xmlns:xlink="http://www.w3.org/1999/xlink">
    <!-- Generator: Sketch 63.1 (92452) - https://sketch.com -->
    <desc>Created with Sketch.</desc>
    <defs>
        <linearGradient x1="100%" y1="0%" x2="0%" y2="100%" id="linearGradient-1">
            <stop stop-color="#4726EA" offset="0%"></stop>
            <stop stop-color="#0A77E3" offset="100%"></stop>
        </linearGradient>
    </defs>
    <g id="Page-13-(2020-Q1)" stroke="none" stroke-width="1" fill="none" fill-rule="evenodd">
        <g id="affinity" fill-rule="nonzero">
            <rect id="Rectangle-17-Copy-7" fill="#FFFFFF" x="0" y="0" width="46" height="46" rx="4"></rect>
            <path d="M21.0459334,11.8951826 L22.2091505,13.0588699 C22.4441947,12.9877784 22.6935133,12.9495587 22.9517587,12.9495587 C23.2372019,12.9495587 23.5117392,12.9962527 23.7681487,13.082419 L24.9540666,11.8951826 C27.4809767,9.36827248 31.5779074,9.36827248 34.1048174,11.8951826 C36.6317275,14.4220926 36.6317275,18.5190233 34.1048174,21.0459334 L34.1048174,21.0459334 L32.7156712,22.4350923 C32.7657873,22.6350432 32.792399,22.8443166 32.792399,23.0598056 C32.792399,23.2404465 32.7736984,23.4167196 32.7381277,23.5867947 L34.1048174,24.9540666 C36.6317275,27.4809767 36.6317275,31.5779074 34.1048174,34.1048174 C31.5779074,36.6317275 27.4809767,36.6317275 24.9540666,34.1048174 L23.6530927,32.8032382 C23.4302074,32.8665548 23.1949409,32.9004459 22.9517587,32.9004459 C22.7359142,32.9004459 22.5263056,32.8737463 22.3260556,32.8234697 L21.0459334,34.1048174 C18.5190233,36.6317275 14.4220926,36.6317275 11.8951826,34.1048174 C9.36827248,31.5779074 9.36827248,27.4809767 11.8951826,24.9540666 L11.8951826,24.9540666 L13.294068,23.5565988 C13.2624788,23.3958847 13.2459217,23.2297787 13.2459217,23.0598056 C13.2459217,22.85534 13.2698804,22.6564703 13.3151434,22.4658506 L11.8951826,21.0459334 C9.36827248,18.5190233 9.36827248,14.4220926 11.8951826,11.8951826 C14.4220926,9.36827248 18.5190233,9.36827248 21.0459334,11.8951826 Z M30.876899,25.5389688 C30.6706025,25.5925529 30.4541995,25.6210681 30.2311364,25.6210681 C30.0160031,25.6210681 29.8070647,25.5945442 29.6074131,25.5445882 L25.4365413,29.71546 C25.4864974,29.9151116 25.5130212,30.12405 25.5130212,30.3391833 C25.5130212,30.4992614 25.4983358,30.6559095 25.4702388,30.807854 L26.860473,32.198411 C28.3345039,33.6724419 30.7243801,33.6724419 32.198411,32.198411 C33.6577016,30.7391204 33.6722945,28.3822098 32.2421897,26.9049669 Z M15.1320103,25.5311411 L13.7578103,26.9049669 C12.3277055,28.3822098 12.3422984,30.7391204 13.801589,32.198411 C15.2756199,33.6724419 17.6654961,33.6724419 19.139527,32.198411 L19.139527,32.198411 L20.4497025,30.8892349 C20.4109284,30.7120502 20.3904962,30.5280028 20.3904962,30.3391833 C20.3904962,30.0960011 20.4243872,29.8607346 20.4877038,29.6378494 L16.4011392,25.5518465 C16.2105196,25.5971095 16.0116498,25.6210681 15.8071843,25.6210681 C15.5734957,25.6210681 15.3471168,25.5897716 15.1320103,25.5311411 Z M23.3746063,18.0373435 C23.2370526,18.0601944 23.0957941,18.0720838 22.9517587,18.0720838 C22.8370186,18.0720838 22.7240408,18.0645389 22.6132942,18.0499183 L18.2786004,22.3849274 C18.3371789,22.5999456 18.3684468,22.8262241 18.3684468,23.0598056 C18.3684468,23.2592929 18.3456406,23.4534535 18.3024934,23.6398224 L22.483088,27.8207032 C22.6350325,27.7926062 22.7916806,27.7779208 22.9517587,27.7779208 C23.1402226,27.7779208 23.3239323,27.7982761 23.5008092,27.8369082 L27.7288613,23.6088561 C27.6902292,23.4319792 27.6698739,23.2482695 27.6698739,23.0598056 C27.6698739,22.8367425 27.6983891,22.6203396 27.7519732,22.4140431 Z M13.801589,13.801589 C12.3422984,15.2608796 12.3277055,17.6177902 13.7578103,19.0950331 L15.2271674,20.5644965 C15.4135363,20.5213492 15.607697,20.4985431 15.8071843,20.4985431 C15.977513,20.4985431 16.1439584,20.5151694 16.3049861,20.5468877 L20.5233565,16.3272113 C20.4371902,16.0708017 20.3904962,15.7962645 20.3904962,15.5108213 C20.3904962,15.3667859 20.4023856,15.2255274 20.4252365,15.0879737 L19.139527,13.801589 C17.6654961,12.3275581 15.2756199,12.3275581 13.801589,13.801589 Z M32.198411,13.801589 C30.7243801,12.3275581 28.3345039,12.3275581 26.860473,13.801589 L26.860473,13.801589 L25.4908557,15.1723567 C25.5054764,15.2831033 25.5130212,15.3960812 25.5130212,15.5108213 C25.5130212,15.7693393 25.4747208,16.0189117 25.4034849,16.2541739 L29.703143,20.5530246 C29.8735284,20.5173173 30.0501399,20.4985431 30.2311364,20.4985431 C30.419956,20.4985431 30.6040033,20.5189753 30.781188,20.5577493 L32.2421897,19.0950331 C33.6722945,17.6177902 33.6577016,15.2608796 32.198411,13.801589 Z" id="Combined-Shape" fill="url(#linearGradient-1)"></path>
        </g>
    </g>
</svg>