<?xml version="1.0" encoding="UTF-8"?>
<svg width="46px" height="46px" viewBox="0 0 46 46" version="1.1" xmlns="http://www.w3.org/2000/svg" xmlns:xlink="http://www.w3.org/1999/xlink">
    <!-- Generator: Sketch 51.3 (57544) - http://www.bohemiancoding.com/sketch -->
    <title>agilecrm</title>
    <desc>Created with Sketch.</desc>
    <defs></defs>
    <g id="Page-1" stroke="none" stroke-width="1" fill="none" fill-rule="evenodd">
        <g id="agilecrm" fill-rule="nonzero">
            <rect id="Rectangle-17-Copy-3" fill="#FFFFFF" x="0" y="0" width="46" height="46" rx="4"></rect>
            <path d="M21.2893264,14.2004082 C22.5100488,13.9331973 23.4653968,13.9331973 24.5799695,14.2004082 C27.3929386,14.7882724 29.6751588,17.0862869 30.4182072,19.8652811 C30.6835817,20.8272407 30.6835817,21.7892002 30.6305068,22.7511598 C31.7981543,22.5908332 32.9658019,22.8580442 33.9211499,23.4993505 C35.2480221,24.3544257 36.0972203,26.0111338 35.9910705,27.6143997 C35.9379956,29.9658564 33.6557754,32.0501021 31.3204803,31.9966599 L16.8841106,31.9966599 C15.9287626,31.9966599 15.1326393,32.0501021 14.2303662,31.7294489 C12.4788948,31.1415847 10.9927979,29.7520876 10.3558993,27.9884951 C9.87822528,26.8662089 9.98437506,25.6370384 10.0905248,24.5147523 C10.5151239,21.7892002 12.9034939,19.6515123 15.5572384,19.3843014 C16.4064366,16.8190759 18.6355819,14.7348302 21.2893264,14.2004082 Z M17.8394586,19.8118389 C19.3786304,20.0790499 20.7055026,21.0410095 22.1915995,21.6823158 C21.926225,22.1098534 21.5547008,23.2855817 21.3424012,23.7131193 C20.5462779,23.2855817 19.6970797,22.9114864 18.9009564,22.4305066 C17.9456084,21.9495268 16.8310357,21.5754314 15.8226128,21.8426424 C13.9119168,22.27018 12.2665953,23.8734459 12.4788948,25.8508072 C12.5850446,27.9884951 14.8672648,29.4848766 16.9902604,29.4848766 L30.524357,29.4848766 C31.6389297,29.5383188 33.0719516,29.4848766 33.6557754,28.4694749 C34.0803745,27.4540731 34.1865243,26.2249026 33.1250265,25.262943 C32.3289032,24.5147523 31.1612557,24.5147523 30.2059077,24.995732 C29.9405332,25.7439228 29.5159341,26.2249026 28.9851852,26.8127667 C28.613661,26.4921136 27.5521632,25.797365 27.180639,25.530154 C27.8706126,24.7285211 28.3482866,23.7131193 28.4544363,22.6442754 C28.8259605,20.1859343 27.2337139,17.6207089 24.9514937,16.7656337 C22.2446743,15.6967898 18.7948066,17.1397291 17.8394586,19.8118389 Z" id="path18" fill="#409CE3"></path>
        </g>
    </g>
</svg>