<?xml version="1.0" encoding="UTF-8"?>
<svg width="46px" height="46px" viewBox="0 0 46 46" version="1.1" xmlns="http://www.w3.org/2000/svg" xmlns:xlink="http://www.w3.org/1999/xlink">
    <!-- Generator: Sketch 51.3 (57544) - http://www.bohemiancoding.com/sketch -->
    <title>agorapulse</title>
    <desc>Created with Sketch.</desc>
    <defs></defs>
    <g id="Page-1" stroke="none" stroke-width="1" fill="none" fill-rule="evenodd">
        <g id="agorapulse">
            <rect id="Rectangle-17-Copy-3" fill="#FFFFFF" fill-rule="nonzero" x="0" y="0" width="46" height="46" rx="4"></rect>
            <g id="Group-38" transform="translate(8.000000, 15.000000)">
                <g id="Group-33" fill="#E84810">
                    <path d="M10.0754472,2.51089428 C10.0929326,1.78012323 9.75972141,1.35927306 9.13635264,1.32424276 C8.45805352,1.28629327 8.05572581,1.70373771 8.05374633,2.45186173 C8.05193182,3.10332806 8.28583944,3.56164119 9.0352346,3.58256207 C9.70644062,3.60121246 10.0581268,3.23696218 10.0754472,2.51089428 M9.17610704,8.67444366 C9.46115103,8.58038081 9.98967009,8.49718384 10.4117925,8.24305196 C10.9226613,7.93556375 10.8165946,7.23009237 10.2570638,7.14170572 C9.59163123,7.03661481 8.89205279,7.0231541 8.22513563,7.1068376 C7.98908358,7.13651605 7.64597507,7.56661033 7.64267595,7.81766083 C7.63937683,8.06368384 7.96813416,8.36695544 8.22332111,8.54502615 C8.39883431,8.66747003 8.69756965,8.61930337 9.17610704,8.67444366 M6.88833211,6.71112492 C6.14784457,5.73303345 6.18726906,5.2319055 7.00594575,4.3162523 C6.75422287,3.82242233 6.40286657,3.37383984 6.29498534,2.87433367 C6.00284824,1.52161257 6.94441716,0.413941414 8.48494135,0.202137823 C8.78169721,0.161431313 9.10451613,0.117967789 9.38527126,0.189650168 C9.93556452,0.329933558 10.4647434,0.695805612 11.0028299,0.695967789 C11.5169978,0.696129966 12.0313306,0.350530079 12.6860411,0.104020539 L12.6860411,1.62118945 C12.4226063,1.6630312 12.1357478,1.70860303 11.8505389,1.75401268 C11.8320638,4.03892907 10.9335484,4.84608563 8.5342632,4.71374893 C8.13902859,4.69185499 7.7385154,4.68763838 7.80581745,5.17741392 C7.83270528,5.37316195 8.22134164,5.63637576 8.47042522,5.66605421 C9.28431818,5.76254972 10.1132221,5.73222256 10.9295894,5.81525735 C11.6370858,5.88710191 12.161316,6.26497508 12.3708101,6.96655421 C12.588717,7.69651437 12.450154,8.35430561 11.9031598,8.91219562 C10.8583284,9.97802503 7.88928519,10.2950817 6.63298021,9.4746266 C5.90783358,9.00123098 5.7615176,7.97318889 6.33127566,7.26269001 C6.48254032,7.07423996 6.67652859,6.91854972 6.88833211,6.71112492" id="Fill-6"></path>
                    <path d="M14.2843163,3.56733361 C14.3474945,3.94536897 14.3841147,4.32097166 14.47682,4.68278928 C14.6295693,5.28025056 15.0383303,5.58546829 15.6724212,5.57800814 C16.3084916,5.57071016 16.7603061,5.25122082 16.8302474,4.64954293 C16.9123955,3.94212542 16.9128904,3.21151655 16.8327218,2.50377469 C16.7645949,1.90339422 16.322018,1.58244529 15.680504,1.57141723 C15.0417944,1.56038917 14.6363325,1.8599307 14.480449,2.45641891 C14.3860942,2.81758782 14.3483193,3.19319052 14.2843163,3.56733361 M18.8331433,3.57982127 C18.8336382,5.70531734 17.6253354,6.97484147 15.6156763,6.96040769 C13.6650715,6.94629826 12.481842,5.67077357 12.4790378,3.57836167 C12.4760685,1.4421619 13.6729894,0.154149551 15.65807,0.157717452 C17.6561822,0.161285354 18.8326485,1.42918771 18.8331433,3.57982127" id="Fill-8"></path>
                    <path d="M27.1998607,5.46214865 C27.0624523,4.83711723 27.1101246,4.11672553 26.7840066,3.8651885 C26.5187573,3.66084506 25.7691972,3.94579063 25.3102896,4.16651397 C25.151437,4.24306167 25.0760521,4.86403866 25.2131305,5.08816773 C25.6327786,5.77401566 26.3378006,5.53496627 27.1998607,5.46214865 M27.018904,2.54360544 C26.9301576,1.54134955 26.5502639,1.43106897 24.2327969,1.74374686 C23.5853446,0.690080752 23.666173,0.463843378 24.8592999,0.271338889 C25.4221298,0.180681762 26.0097031,0.143218799 26.5766569,0.190736756 C28.0147434,0.311234512 28.8114809,1.15309703 28.8528849,2.57652744 C28.8867009,3.73544663 28.8860411,4.89663631 28.8454619,6.05490679 C28.8380389,6.26687256 28.5805425,6.63615034 28.413937,6.65025976 C27.2796994,6.74594439 26.1264919,6.88736302 25.0041312,6.77481195 C23.9485777,6.66891016 23.4273167,5.92013743 23.3819538,4.9345858 C23.3341166,3.89324517 23.7954985,3.17707009 24.8546811,2.87769074 C25.5278666,2.68745673 26.2477346,2.65664304 27.018904,2.54360544" id="Fill-10"></path>
                    <path d="M3.9352566,5.47007912 C3.81021994,4.86953648 3.69854472,4.33386476 3.5868695,3.79819304 C3.07303152,3.90960887 2.52273827,3.94885578 2.06548021,4.17217396 C1.90728739,4.24937037 1.83619135,4.87034736 1.97458944,5.09382772 C2.3973717,5.77626992 3.10041422,5.53073345 3.9352566,5.47007912 M3.77640396,2.54440011 C3.6813893,1.53954938 3.38463343,1.45391975 0.984193548,1.74032492 C0.350102639,0.675792929 0.427137097,0.461394501 1.61828446,0.270511785 C2.18111437,0.180503367 2.76852273,0.142553872 3.33531158,0.190234007 C4.78082111,0.312029181 5.5665066,1.14432323 5.60725073,2.5745651 C5.64007698,3.73315993 5.64024194,4.89402525 5.59999267,6.05197138 C5.59256965,6.2657211 5.33754765,6.63856678 5.17226173,6.65251403 C4.03818915,6.74754994 2.88465176,6.88913075 1.76278592,6.77479574 C0.706902493,6.66727217 0.183497067,5.91395847 0.142093109,4.93424523 C0.0978848974,3.88901235 0.554648094,3.17948653 1.61432551,2.87880976 C2.28668622,2.68808923 3.00605938,2.65743771 3.77640396,2.54440011" id="Fill-12"></path>
                    <path d="M21.1855645,0.797815152 C21.9367742,0.620555331 22.6368475,0.45545881 23.3369208,0.29036229 C23.4090066,0.766677104 23.4812573,1.24299192 23.5525183,1.71395488 C21.5684274,2.02274052 21.3430975,2.28919787 21.3401283,4.16169731 C21.3386437,5.02010191 21.3397984,5.87834433 21.3397984,6.80551212 L19.5521701,6.80551212 C19.5318805,6.52835107 19.503673,6.3184936 19.5031782,6.10831178 C19.4997141,4.1960789 19.5011987,2.28384602 19.5011987,0.393993603 C20.763607,0.0415822671 21.1268402,0.251926263 21.1855645,0.797815152" id="Fill-16"></path>
                </g>
                <g id="Group-34" transform="translate(12.371701, 8.433221)" fill="#000000">
                    <path d="M8.70658496,0 C8.73813279,0.17597859 8.79609783,0.351857249 8.79718945,0.528035701 C8.80483079,1.89339372 8.80788733,3.25885168 8.79806274,4.6242097 C8.79478788,5.07579814 8.85187963,5.43824808 9.50150286,5.3732929 C9.57365897,5.36609786 9.69570212,5.48641485 9.73019732,5.56995722 C9.74875486,5.61472633 9.64636088,5.74393718 9.57082075,5.77201781 C8.96660892,5.99586338 8.25989394,5.62861675 8.25389003,5.04302076 C8.23631494,3.36228032 8.26153137,1.68104023 8.26993684,0 L8.70658496,0 Z" id="Fill-4"></path>
                    <path d="M0.454517548,4.09857583 L0.448295917,4.09857583 C0.448295917,4.38648289 0.432119676,4.67571249 0.456384038,4.96168661 C0.465923872,5.07471302 0.536954161,5.23331624 0.62872322,5.28102946 C1.32710131,5.64401618 2.4691854,5.24745726 2.7171174,4.50225612 C2.85648194,4.08362094 2.87981305,3.60099511 2.83885398,3.15753684 C2.77072712,2.42088135 2.3275396,2.0793605 1.63548683,2.11456045 C0.947581814,2.14945519 0.498898517,2.58904756 0.457109895,3.28592508 C0.441037348,3.55592697 0.454517548,3.8275566 0.454517548,4.09857583 M0.446325734,5.76813159 C0.446325734,6.31373073 0.459494853,6.8033762 0.436578512,7.29149567 C0.431290125,7.40462381 0.303228218,7.51215659 0.23167946,7.62233446 C0.154531235,7.5187693 0.0109152496,7.41581455 0.0100856987,7.31163899 C-0.00360188971,5.55011575 -0.00256495119,3.78838903 0.00842659712,2.02676405 C0.00904876023,1.92625092 0.123837854,1.82644992 0.185535696,1.72624198 C0.294621629,1.84700017 0.403914949,1.96775837 0.502320414,2.07671542 C0.782086427,1.9450717 1.07108119,1.7397726 1.39056195,1.67150912 C2.44429887,1.4460667 3.22843178,2.00122883 3.40834062,3.04888499 C3.70905279,4.80043831 2.77311208,5.91869783 1.07979148,5.82805288 C0.893142542,5.81798122 0.707323159,5.79325987 0.446325734,5.76813159" id="Fill-14"></path>
                    <path d="M16.1348281,3.37623441 C16.0770743,2.48683621 15.6561776,2.06435149 14.9234519,2.1072376 C14.222927,2.14816966 13.795798,2.63863451 13.8301802,3.37623441 L16.1348281,3.37623441 Z M16.6228272,3.84623323 L13.8120023,3.84623323 C13.6290806,5.14402647 14.5445203,5.65547157 16.2971828,5.25859511 C16.4854021,5.52383076 16.4882067,5.74227223 16.1014846,5.77312554 C15.5890752,5.8140576 15.0613963,5.87967232 14.5609324,5.80284757 C13.8463845,5.69311261 13.3910018,5.20542456 13.2636526,4.50094055 C13.1890712,4.08781468 13.1728669,3.64527531 13.2339447,3.23101814 C13.4057519,2.06733398 14.2446367,1.46775124 15.357956,1.65585361 C16.3001952,1.81515956 16.8079303,2.65611806 16.6228272,3.84623323 Z" id="Fill-18"></path>
                    <path d="M4.14279927,1.80743652 C4.27483388,1.80105888 4.40973189,1.79447878 4.62639591,1.78395062 C4.62639591,2.15790284 4.6261838,2.5050285 4.62650196,2.85205292 C4.62671406,3.23946904 4.61791175,3.62718886 4.62989562,4.01430129 C4.6652109,5.1651104 5.19812167,5.57398778 6.40573459,5.41454686 C6.74520671,5.36970094 6.88413469,5.24923447 6.87342345,4.90150142 C6.84754679,4.05985584 6.8649393,3.21719793 6.8649393,2.37484372 L6.8649393,1.81168828 L7.42192385,1.81168828 C7.42192385,3.05137938 7.42860512,4.26130817 7.40898552,5.47083204 C7.40739474,5.56578796 7.22880335,5.72907571 7.11967595,5.73950264 C6.54402627,5.79467426 5.95978638,5.86725784 5.38678799,5.82646121 C4.67889159,5.77624997 4.21279352,5.34884708 4.15966152,4.64325775 C4.09062173,3.72497929 4.14279927,2.79839979 4.14279927,1.80743652" id="Fill-20"></path>
                    <path d="M12.6215514,1.8019253 C12.5513975,2.06882003 12.51968,2.18963244 12.4874685,2.31245838 C12.4143503,2.31245838 12.3672187,2.3145726 12.320186,2.31215635 C11.929893,2.29151756 11.53298,2.22033892 11.1522715,2.27218758 C10.9895341,2.29423584 10.7763057,2.55589537 10.7420192,2.73902684 C10.713266,2.89265994 10.8685927,3.16056145 11.0172993,3.25338564 C11.2922829,3.42503993 11.6255634,3.49722534 11.9283121,3.62599123 C12.4756115,3.85875646 12.7249049,4.22290518 12.6999064,4.72759899 C12.674315,5.2445754 12.3674164,5.70356185 11.8134968,5.79316438 C11.2643201,5.8819615 10.6903425,5.81259504 10.0623167,5.81259504 C10.1272338,5.57952778 10.164781,5.44482195 10.1784165,5.3955909 C10.6612928,5.3955909 11.0853782,5.42649874 11.5029422,5.38612726 C11.8548975,5.35189708 12.1221741,5.1469187 12.151619,4.74582153 C12.1792853,4.36979292 11.9584487,4.15676039 11.6436453,4.02940398 C11.3840758,3.92449854 11.1148231,3.84435965 10.8562417,3.73723932 C10.4197065,3.55642342 10.1469955,3.24402268 10.1873093,2.73731533 C10.2285123,2.21943283 10.5290873,1.87703034 11.0172005,1.81561737 C11.5108469,1.75349966 12.0179313,1.8019253 12.6215514,1.8019253" id="Fill-22"></path>
                </g>
            </g>
        </g>
    </g>
</svg>