<?xml version="1.0" encoding="UTF-8"?>
<svg width="46px" height="46px" viewBox="0 0 46 46" version="1.1" xmlns="http://www.w3.org/2000/svg" xmlns:xlink="http://www.w3.org/1999/xlink">
    <!-- Generator: Sketch 51.3 (57544) - http://www.bohemiancoding.com/sketch -->
    <title>aha</title>
    <desc>Created with Sketch.</desc>
    <defs></defs>
    <g id="Page-3" stroke="none" stroke-width="1" fill="none" fill-rule="evenodd">
        <g id="aha" fill-rule="nonzero">
            <rect id="Rectangle-17-Copy-6" fill="#FFFFFF" x="0" y="0" width="46" height="46" rx="4"></rect>
            <g id="svgexport-1-(4)" transform="translate(12.000000, 10.000000)" fill="#0173CF">
                <path d="M7.80357143,19.90625 L6.57142857,25.35 C6.57142857,25.5125 6.40714286,25.59375 6.24285714,25.59375 L0.328571429,25.59375 C0.246428571,25.59375 0.0821428571,25.5125 0.0821428571,25.43125 C0,25.35 0,25.26875 0,25.1875 L7.80357143,1.7875 C7.80357143,1.7875 7.96785714,1.38125 8.46071429,1.21875 C10.1857143,0.89375 12.8964286,0.4875 14.7857143,0.1625 C15.1964286,0.08125 15.3607143,0.4875 15.3607143,0.4875 L23,25.35 C23,25.43125 23,25.5125 22.9178571,25.59375 C22.8357143,25.675 22.7535714,25.675 22.6714286,25.675 L19.2214286,25.675 C18.3178571,25.675 16.5107143,25.75625 15.8535714,25.75625 C15.6892857,25.75625 15.525,25.675 15.525,25.5125 L14.2928571,19.9875 L7.80357143,19.90625 Z M13.3071429,15.1125 C12.8142857,13.1625 12.075,9.66875 11.3357143,6.6625 C10.8428571,8.775 9.69285714,13.08125 9.11785714,15.1125 L13.3071429,15.1125 Z" id="Shape"></path>
            </g>
        </g>
    </g>
</svg>