<?xml version="1.0" encoding="UTF-8"?>
<svg width="46px" height="46px" viewBox="0 0 46 46" version="1.1" xmlns="http://www.w3.org/2000/svg" xmlns:xlink="http://www.w3.org/1999/xlink">
    <!-- Generator: Sketch 51.3 (57544) - http://www.bohemiancoding.com/sketch -->
    <title>airbnb</title>
    <desc>Created with Sketch.</desc>
    <defs></defs>
    <g id="Page-6" stroke="none" stroke-width="1" fill="none" fill-rule="evenodd">
        <g id="airbnb" fill-rule="nonzero">
            <rect id="Rectangle-17-Copy-7" fill="#FFFFFF" x="0" y="0" width="46" height="46" rx="4"></rect>
            <g transform="translate(11.000000, 10.000000)" fill="#FF5A5F" id="Shape">
                <path d="M22.3163006,21.0188165 C22.1352291,22.3700466 21.2303881,23.5393302 19.963404,24.0589543 C19.3426981,24.3185067 18.6705895,24.396632 17.9982227,24.3185067 C17.3519446,24.2406409 16.7054081,24.0327395 16.0332996,23.6434108 C15.1023698,23.1232677 14.1714401,22.318136 13.0855276,21.122897 C14.792146,19.0184458 15.8261393,17.0956813 16.2141128,15.3813374 C16.3951843,14.5756866 16.4210148,13.8481611 16.3435235,13.1725461 C16.2402016,12.5231459 16.0074692,11.9253966 15.6453261,11.4057726 C14.843807,10.2367484 13.4993316,9.56113336 11.9996151,9.56113336 C10.4998986,9.56113336 9.15542313,10.2627036 8.35390397,11.4057726 C7.99176093,11.9253966 7.75928679,12.5231459 7.65570665,13.1725461 C7.55238481,13.8481611 7.57821527,14.6016418 7.78511725,15.3813374 C8.17283244,17.0956813 9.23291451,19.0444011 10.9137025,21.1485927 C9.85362047,22.3440913 8.89686023,23.1494825 7.96593047,23.6691065 C7.29382191,24.0589543 6.6472855,24.2668557 6.00100741,24.344462 C5.30281009,24.4225873 4.63044322,24.3185067 4.03582604,24.0849095 C2.76884199,23.5652855 1.864001,22.3957422 1.68292947,21.0447717 C1.60543809,20.3953715 1.65709901,19.7459713 1.91566192,19.0184458 C1.99315329,18.7583742 2.1225639,18.4990814 2.2517162,18.1870993 C2.43278772,17.7715559 2.6396897,17.3295381 2.84633337,16.8877798 L2.87242214,16.8361288 C4.65627367,12.9646446 6.56979412,9.01555415 8.56080595,5.17054424 L8.63829733,5.01429367 C8.84519932,4.624965 9.05184299,4.20942154 9.25900327,3.81957377 C9.46564697,3.40377075 9.69837937,3.01392299 9.98277272,2.6759857 C10.525729,2.05228117 11.2497568,1.71460344 12.051276,1.71460344 C12.8527951,1.71460344 13.5768229,2.05228117 14.1197792,2.6759857 C14.4041725,3.01392299 14.6369049,3.40377075 14.843807,3.81957377 C15.0507089,4.20942154 15.2573526,4.624965 15.4642546,5.01429367 L15.5420043,5.17054424 C17.5069273,9.04150939 19.4204478,12.9905999 21.2045576,16.8620841 L21.2045576,16.8877798 C21.4114596,17.3035828 21.5922728,17.7715559 21.7991748,18.1870993 C21.9285854,18.4990814 22.0577377,18.7583742 22.1352291,19.0184458 C22.3421311,19.6938013 22.4196224,20.3437205 22.3163006,21.0188165 Z M11.9996151,19.7976222 C10.6034787,18.0311083 9.69837937,16.3681558 9.38815556,14.9655343 C9.25900327,14.3677851 9.23291451,13.8481611 9.31066419,13.3804476 C9.36232511,12.9646446 9.51756619,12.6007521 9.72420984,12.28877 C10.2155052,11.5879784 11.0428548,11.1454415 11.9996151,11.1454415 C12.9563752,11.1454415 13.8095554,11.561504 14.2750202,12.28877 C14.4816639,12.6007521 14.6369049,12.9646446 14.6885659,13.3804476 C14.7660573,13.8481611 14.7402268,14.3937404 14.6110745,14.9655343 C14.3008507,16.3424601 13.3957514,18.0051531 11.9996151,19.7976222 Z M23.660776,18.4466517 C23.5316237,18.1349293 23.4022132,17.7972515 23.2730608,17.5114843 C23.0661589,17.0440304 22.8592568,16.6020126 22.6781854,16.1862096 L22.6523549,16.1605138 C20.8685033,12.2630744 18.9549829,8.31398389 16.9381406,4.41732305 L16.8606492,4.26107248 C16.6537473,3.87122471 16.4468452,3.45542169 16.2402016,3.03987823 C15.9813803,2.57190517 15.7228175,2.07875552 15.3092718,1.61078247 C14.4816639,0.571534482 13.2924295,0 12.0254455,0 C10.732631,0 9.56922712,0.571534482 8.71578871,1.55913153 C8.32807351,2.02658549 8.04368015,2.52025423 7.78511725,2.98822729 C7.57821527,3.40377075 7.37131328,3.81957377 7.16441131,4.20942154 L7.08691993,4.36489345 C5.0961664,8.2620734 3.1568155,12.2114234 1.37270566,16.1086033 L1.3468752,16.1605138 C1.16580367,16.5760573 0.958901691,17.017556 0.751999713,17.485529 C0.622847415,17.7715559 0.493436812,18.0832784 0.364284514,18.4209561 C0.0279719302,19.3820788 -0.0753499082,20.2915505 0.0538023898,21.226718 C0.338454054,23.1754377 1.63126855,24.812435 3.4153784,25.539701 C4.08748696,25.8257277 4.78568428,25.955504 5.50971206,25.955504 C5.71661405,25.955504 5.97517695,25.9295488 6.18207892,25.9033339 C7.03525901,25.7992534 7.91426955,25.5140053 8.76744963,25.020077 C9.82779,24.4225873 10.8362111,23.5652855 11.9737846,22.318136 C13.1113581,23.5652855 14.1456097,24.4225873 15.1798612,25.020077 C16.0332996,25.5140053 16.9123102,25.7992534 17.7654902,25.9033339 C17.9723922,25.9295488 18.2309551,25.955504 18.4378571,25.955504 C19.1618849,25.955504 19.8856543,25.8257277 20.5321908,25.539701 C22.3421311,24.812435 23.6091151,23.1494825 23.8935084,21.226718 C24.1004105,20.3172462 23.9968303,19.4082936 23.660776,18.4466517 Z"></path>
            </g>
        </g>
    </g>
</svg>