<?xml version="1.0" encoding="UTF-8"?>
<svg width="46px" height="46px" viewBox="0 0 46 46" version="1.1" xmlns="http://www.w3.org/2000/svg" xmlns:xlink="http://www.w3.org/1999/xlink">
    <!-- Generator: Sketch 55.2 (78181) - https://sketchapp.com -->
    <title>aircall-updated</title>
    <desc>Created with Sketch.</desc>
    <g id="Page-6" stroke="none" stroke-width="1" fill="none" fill-rule="evenodd">
        <g id="aircall-updated" fill-rule="nonzero">
            <rect id="Rectangle-17-Copy-7" fill="#FFFFFF" x="0" y="0" width="46" height="46" rx="4"></rect>
            <g id="Group-22" transform="translate(10.000000, 10.000000)">
                <path d="M19.5456314,0.559204568 C18.083496,0.22079538 15.6800684,0 12.9629629,0 C10.2458575,0 7.84242986,0.22079538 6.38029453,0.559204568 C3.46507143,1.17269369 1.16935268,3.47497164 0.557611392,6.39852394 C0.22016633,7.86483685 3.55271368e-15,10.2751314 3.55271368e-15,13 C3.55271368e-15,15.7248686 0.22016633,18.1351632 0.557611392,19.601476 C1.16935268,22.5250284 3.46507143,24.8273063 6.38029453,25.4407954 C7.84242986,25.7792046 10.2458575,26 12.9629629,26 C15.6800684,26 18.083496,25.7792046 19.5456314,25.4407954 C22.4608545,24.8273063 24.7565733,22.5250284 25.3683145,19.601476 C25.7057596,18.1351631 25.9259259,15.7248686 25.9259259,13 C25.9259259,10.2751314 25.7057596,7.86483685 25.3683145,6.39852394 C24.7565733,3.47497164 22.4608545,1.17269369 19.5456314,0.559204568 Z" id="a" fill="#00B388"></path>
                <path d="M16.0779256,19.9582701 C15.8319177,19.3710512 15.3097682,18.9288708 14.6744567,18.7951738 C14.2943016,18.7071874 13.6694104,18.6497806 12.9629629,18.6497806 C12.2565156,18.6497806 11.6316244,18.7071874 11.2514692,18.7951738 C10.6206966,18.9279156 10.101475,19.3647488 9.85331529,19.9457063 C9.76725366,20.1471821 9.5610385,20.2701259 9.34287555,20.2500264 C9.28892107,20.2450607 9.24231594,20.2406154 9.20305971,20.2366955 C8.18647745,20.1351863 7.38744753,19.9935756 6.9232111,19.8283129 C6.92245814,19.8279175 6.92153735,19.8275147 6.9204486,19.8271043 C6.60892108,19.7096982 6.38724756,19.4081733 6.38724756,19.0547259 C6.38724756,19.0459403 6.38738453,19.0371868 6.38765643,19.0284674 C6.38837059,19.0142421 6.38920338,18.9997146 6.39015408,18.9848883 C6.39043043,18.9815826 6.39072622,18.9782824 6.39104134,18.974988 C6.3919262,18.9657369 6.39248066,18.9567929 6.39270473,18.9481559 C6.47183802,17.8871011 7.11438201,15.4030043 8.07409564,12.5677014 C9.17124565,9.32636705 10.3186283,6.70224211 10.8360244,6.19041225 C10.9186023,6.10417451 11.0138946,6.03195113 11.1192244,5.97625337 C11.1603377,5.95270627 11.212431,5.93018817 11.2742787,5.90894405 C11.2758948,5.90838589 11.2775127,5.90783137 11.2791322,5.90728052 C11.619074,5.79199764 12.2455822,5.7147806 12.9623383,5.7147806 C13.6803437,5.7147806 14.306852,5.79199764 14.6461726,5.9070755 C14.6484133,5.90783137 14.6500311,5.90838589 14.6516473,5.90894405 C14.7134949,5.93018817 14.7655882,5.95270627 14.8067015,5.97625337 C14.9120313,6.03195113 15.0073236,6.10417451 15.0891484,6.1894835 C15.0894154,6.18976193 15.0896665,6.19007151 15.0899015,6.19041225 C15.6072976,6.70224211 16.7546803,9.32636705 17.8518303,12.5677014 C18.8115439,15.4030043 19.4540879,17.8871011 19.5332212,18.9481559 C19.5334453,18.9567929 19.5339997,18.9657369 19.5348846,18.974988 C19.5351997,18.9782824 19.5354955,18.9815826 19.5357718,18.9848883 C19.5367225,18.9997146 19.5375553,19.0142421 19.5382695,19.0284674 C19.5385414,19.0371868 19.5386784,19.0459403 19.5386784,19.0547259 C19.5386784,19.4081733 19.3170048,19.7096982 19.0054773,19.8271043 C19.0043886,19.8275147 19.0034678,19.8279175 19.0027148,19.8283129 C18.5388859,19.9934305 17.740851,20.1349377 16.7255429,20.2364281 C16.6814923,20.2408314 16.6282268,20.2458932 16.5657463,20.2516135 L16.5657455,20.2516038 C16.3565496,20.2707564 16.1590968,20.152025 16.0779256,19.9582701 L16.0779256,19.9582701 Z" id="Path" fill="#FFFFFF"></path>
            </g>
        </g>
    </g>
</svg>