<?xml version="1.0" encoding="UTF-8"?>
<svg width="46px" height="46px" viewBox="0 0 46 46" version="1.1" xmlns="http://www.w3.org/2000/svg" xmlns:xlink="http://www.w3.org/1999/xlink">
    <!-- Generator: Sketch 50.2 (55047) - http://www.bohemiancoding.com/sketch -->
    <title>airtable-icon</title>
    <desc>Created with Sketch.</desc>
    <defs></defs>
    <g id="Page-1" stroke="none" stroke-width="1" fill="none" fill-rule="evenodd">
        <g id="up-to-July-2018-Copy" transform="translate(-332.000000, -80.000000)">
            <g id="airtable-icon" transform="translate(332.000000, 80.000000)">
                <rect id="Rectangle-7" fill="#FFFFFF" x="0" y="0" width="46" height="46" rx="2"></rect>
                <g id="airtable" transform="translate(7.000000, 9.000000)" fill-rule="nonzero">
                    <path d="M14.9120308,0.350724472 L2.95624468,5.47646639 C2.29137979,5.76155327 2.2982677,6.74001351 2.9673016,7.01477115 L14.9731158,11.9476381 C16.0280541,12.3810903 17.2028058,12.3810903 18.2575628,11.9476381 L30.2635583,7.01477115 C30.9324109,6.74001351 30.9394801,5.76155327 30.2744339,5.47646639 L18.318829,0.350724472 C17.2280011,-0.116908157 16.0026775,-0.116908157 14.9120308,0.350724472" id="Shape" fill="#FCB400"></path>
                    <path d="M17.2307692,14.4953758 L17.2307692,26.2102626 C17.2307692,26.7674768 17.7931666,27.1490104 18.3116016,26.9436928 L31.5014017,21.8289635 C31.8025265,21.7097008 32,21.4190425 32,21.0955333 L32,9.38064645 C32,8.82343232 31.4376026,8.44189865 30.9191677,8.64721626 L17.7293675,13.7619456 C17.4284214,13.8812083 17.2307692,14.1718666 17.2307692,14.4953758" id="Shape" fill="#18BFFF"></path>
                    <path d="M14.3119236,14.8953354 L10.2426542,16.7382833 L9.82948515,16.9256102 L1.23950718,20.7862862 C0.694993459,21.0326864 0,20.6604723 0,20.0930897 L0,9.3612641 C0,9.1559887 0.112209583,8.97876877 0.262689321,8.84528749 C0.325482101,8.78621418 0.396634867,8.73759632 0.470574294,8.6990854 C0.675858381,8.58355265 0.968643651,8.55270906 1.21758544,8.64506556 L14.2435575,13.4861146 C14.9056683,13.7325148 14.957686,14.602757 14.3119236,14.8953354" id="Shape" fill="#F82B60"></path>
                    <path d="M13.1116723,15.2385421 L9.31396165,17.1818182 L0,8.85913559 C0.0586023648,8.79684639 0.12500682,8.74558183 0.194011971,8.70497441 C0.385596625,8.58315217 0.658843155,8.55062949 0.891172057,8.64801379 L13.0478685,13.7526047 C13.6657941,14.0124186 13.7143404,14.930036 13.1116723,15.2385421" id="Shape" fill-opacity="0.25" fill="#000000"></path>
                </g>
            </g>
        </g>
    </g>
</svg>