<?xml version="1.0" encoding="UTF-8"?>
<svg width="46px" height="46px" viewBox="0 0 46 46" version="1.1" xmlns="http://www.w3.org/2000/svg" xmlns:xlink="http://www.w3.org/1999/xlink">
    <!-- Generator: Sketch 51.3 (57544) - http://www.bohemiancoding.com/sketch -->
    <title>aisleplanner</title>
    <desc>Created with Sketch.</desc>
    <defs></defs>
    <g id="Page-3" stroke="none" stroke-width="1" fill="none" fill-rule="evenodd">
        <g id="aisleplanner" fill-rule="nonzero">
            <rect id="Rectangle-17-Copy-6" fill="#FFFFFF" x="0" y="0" width="46" height="46" rx="4"></rect>
            <path d="M10.6350227,27.0181818 L15.2175462,27.0181818 C15.2175462,27.0181818 15.2175462,26.9393939 15.2175462,26.7818182 C15.2175462,26.7818182 14.4270089,26.7818182 12.8459343,26.7818182 C12.8459343,26.7818182 13.4783641,25.2848485 14.7432238,22.2909091 C14.7432238,22.2909091 16.0871372,22.2909091 18.774964,22.2909091 C19.8817162,25.4424242 21.2256296,27.0181818 22.8067042,27.0181818 L26.364122,27.0181818 L26.364122,33.4 L23.5181878,33.4 L23.5181878,33.8727273 L30.1968734,33.8727273 C28.1429483,35.2176259 25.6850818,36 23.0438654,36 C17.2470039,36 12.3333412,32.2312931 10.6350227,27.0181818 Z M10.5605309,26.7818182 C10.1960184,25.5851286 10,24.3153786 10,23 C10,15.8202983 15.8399375,10 23.0438654,10 C29.7333006,10 35.2466161,15.0186329 36,21.4841387 C35.4320208,20.7131084 34.4335659,20.1153652 33.0046353,19.6909091 L23.5181878,19.6909091 C23.5181878,19.6909091 23.5181878,19.769697 23.5181878,19.9272727 C23.5181878,19.9272727 24.4668325,19.9272727 26.364122,19.9272727 C26.364122,19.9272727 26.364122,22.2121212 26.364122,26.7818182 C24.577693,26.7818182 23.3918871,26.0727273 22.8067042,24.6545455 C21.3837371,20.8727273 20.3560386,18.1939394 19.7236087,16.6181818 C19.0911789,15.0424242 18.1425341,14.1757576 16.8776745,14.0181818 L14.2689014,14.0181818 C15.0062473,14.0181818 15.7967846,14.8060606 16.6405133,16.3818182 L12.6087731,26.7818182 L10.5605309,26.7818182 Z M35.8686655,25.3851733 C35.2616266,28.6477602 33.4320975,31.4826109 30.8714563,33.4 L29.2100563,33.4 L29.2100563,27.0181818 C30.9201336,27.0181818 32.1849933,27.0181818 33.0046353,27.0181818 C33.8089647,27.0181818 35.0834412,26.4647543 35.8686655,25.3851733 Z M16.8776745,17.0909091 L18.774964,21.8181818 L14.980385,21.8181818 L16.8776745,17.0909091 Z M29.2100563,19.9272727 L31.8188294,19.9272727 C32.9255816,20.4 33.4789577,20.9515152 33.4789577,21.5818182 C33.4789577,22.2121212 33.4789577,23.3939394 33.4789577,25.1272727 C33.3208502,26.0727273 32.7674741,26.5454545 31.8188294,26.5454545 C30.8701846,26.5454545 30.0005936,26.5454545 29.2100563,26.5454545 L29.2100563,19.9272727 Z" id="Combined-Shape" fill="#000000"></path>
        </g>
    </g>
</svg>