<?xml version="1.0" encoding="UTF-8"?>
<svg width="46px" height="46px" viewBox="0 0 46 46" version="1.1" xmlns="http://www.w3.org/2000/svg" xmlns:xlink="http://www.w3.org/1999/xlink">
    <!-- Generator: Sketch 51.3 (57544) - http://www.bohemiancoding.com/sketch -->
    <title>alexa</title>
    <desc>Created with Sketch.</desc>
    <defs></defs>
    <g id="Page-1" stroke="none" stroke-width="1" fill="none" fill-rule="evenodd">
        <g id="alexa" fill-rule="nonzero">
            <rect id="Rectangle-8-Copy" fill="#FFFFFF" x="0" y="0" width="46" height="46" rx="4"></rect>
            <path d="M23,34 C29.0751322,34 34,29.0751322 34,23 C34,16.9248678 29.0751322,12 23,12 C16.9248678,12 12,16.9248678 12,23 C12,29.0751322 16.9248678,34 23,34 Z M23,36 C15.8202983,36 10,30.1797017 10,23 C10,15.8202983 15.8202983,10 23,10 C30.1797017,10 36,15.8202983 36,23 C36,30.1797017 30.1797017,36 23,36 Z" id="Oval-7" fill="#263D54"></path>
            <path d="M28.6522358,27.584065 C28.6341387,27.5933319 28.610311,27.6025988 28.5934205,27.6025988 C28.1980913,27.8490983 27.6847092,28.06165 27.2390703,27.832109 C26.7173334,27.5432907 26.6165029,26.880059 26.5996425,26.3360305 L26.5996425,20.1296817 C26.5996425,19.8578528 26.5936102,19.5771585 26.5408272,19.3051442 C26.3556345,18.7610848 26.0530525,18.2510967 25.5986667,17.8939505 C24.6564156,17.0863097 23.3526164,16.9588281 22.1581231,17.0097651 C21.0812001,17.0004982 20.0045184,17.2815941 19.087573,17.8426428 C18.4146054,18.3189303 17.8003929,18.9564619 17.5901056,19.7895558 C17.5659762,20.0956722 17.5901056,20.4185926 17.6911472,20.7162144 C17.7752983,20.9030968 17.8932305,21.0731134 18.0528763,21.2093059 C18.6333983,21.7620453 19.7607517,21.6344402 20.0886997,20.8607471 C20.094732,20.8184283 20.1306244,20.7418219 20.147515,20.7078433 C20.1825025,20.4526948 20.197885,20.1805879 20.0718091,19.9424904 C19.9538769,19.6533633 19.7100499,19.4408116 19.5755287,19.1604571 C19.390336,18.8203312 19.6765704,18.4974725 19.945673,18.3188995 C20.5429045,17.9193727 21.2748985,17.7492634 21.9899416,17.7748709 C22.8564868,17.7322432 23.7565718,18.1064095 24.286573,18.8203312 C24.606317,19.2115486 24.7155928,19.7215367 24.7155928,20.2146282 C24.7095605,20.7757079 24.7216251,21.3282311 24.7095605,21.8809705 C23.7504189,21.9998956 22.7915487,22.1447681 21.8492675,22.3826184 C20.5957478,22.7141879 19.3591186,23.1902593 18.2992672,23.955365 C17.8365567,24.3548918 17.4159219,24.8140665 17.171944,25.3837334 C17.0036418,25.8512174 16.9532718,26.3528962 17.0458681,26.8458642 C17.2057251,27.6960091 17.8703378,28.4017141 18.6695923,28.6907795 C19.6790135,29.0732551 20.7893858,29.0648223 21.8326484,28.8609815 C22.9345151,28.6311625 23.8095358,27.8576238 24.5666242,27.0584776 C24.6169943,26.9905204 24.6930017,26.9565418 24.7768512,26.9565418 C25.0461951,27.8152123 25.5929359,28.7502421 26.5434815,28.9288151 C27.3763361,29.149985 28.2513266,28.8268793 28.8905131,28.2658305 C28.9146424,28.2472968 28.9746642,28.1978733 29,28.1722349 C28.907102,27.9683632 28.7725809,27.7812646 28.6546487,27.5856713 L28.6522358,27.584065 Z M24.715261,23.2143841 C24.715261,23.6987956 24.715261,24.1837013 24.697164,24.6765457 C24.697164,24.6765457 24.6820832,24.7735392 24.679067,24.8631192 C24.6700185,25.3023083 24.341799,25.9600416 23.9043339,26.4276492 C23.4920237,26.929328 22.9621733,27.2949379 22.3985118,27.6009926 C21.6245629,27.9918393 20.6824023,28.145052 19.866408,27.7795348 C19.6845331,27.6723477 19.5424414,27.5225329 19.4688167,27.4372774 C19.3952222,27.3523309 19.3373117,27.2930228 19.2857353,27.2015894 C18.9659912,26.6489735 18.8567154,25.926341 19.1762483,25.356705 C19.5547172,24.7021841 20.2361903,24.3110903 20.8587577,23.9285837 C21.1616715,23.7670308 21.4059208,23.6128915 21.7292843,23.4827534 L21.8158483,23.4456858 L21.8900461,23.4178851 C22.1859322,23.2736304 22.4416731,23.2282226 22.6585658,23.1392604 C23.3230881,22.9353887 24.0212708,22.7908252 24.7110987,22.7228371 C24.71134,22.8843899 24.71134,23.0458192 24.71134,23.2159286 L24.715261,23.2143841 Z" id="path15" fill="#263D54"></path>
        </g>
    </g>
</svg>