<?xml version="1.0" encoding="UTF-8"?>
<svg width="46px" height="46px" viewBox="0 0 46 46" version="1.1" xmlns="http://www.w3.org/2000/svg" xmlns:xlink="http://www.w3.org/1999/xlink">
    <!-- Generator: Sketch 51.3 (57544) - http://www.bohemiancoding.com/sketch -->
    <title>algolia</title>
    <desc>Created with Sketch.</desc>
    <defs></defs>
    <g id="Page-3" stroke="none" stroke-width="1" fill="none" fill-rule="evenodd">
        <g id="algolia" fill-rule="nonzero">
            <path d="M6.05666667,0 L39.9433333,0 C43.2783333,0 46,2.68586777 46,6.00661157 L46,39.615124 C46,42.922562 43.29175,45.6198347 39.9433333,45.6198347 L6.05666667,45.6198347 C2.72166667,45.6198347 0,42.9358678 0,39.615124 L0,5.99140496 C0,2.68586777 2.70633333,5.40247369e-15 6.05666667,5.40247369e-15" id="Shape" fill="#5468FF"></path>
            <path d="M27.4542337,13.0042153 L27.4542337,11.6777833 C27.4535035,10.7508348 26.6823229,9.99982181 25.7313956,10 L21.7152979,10 C20.7643705,9.99982181 19.99319,10.7508348 19.9924598,11.6777833 L19.9924598,13.0396727 C19.9924598,13.1911729 20.1363052,13.2975453 20.2933778,13.2620878 C21.4294529,12.9423358 22.6061734,12.7806421 23.7886559,12.7818002 C24.9344589,12.7818002 26.0686882,12.9333003 27.1648894,13.2266303 C27.3103882,13.2620878 27.4542337,13.1573271 27.4542337,13.0042153 M16.4475799,14.7400199 L15.7614207,14.0711629 C15.438539,13.7562002 15.0004803,13.5792373 14.543695,13.5792373 C14.0869096,13.5792373 13.6488509,13.7562002 13.3259692,14.0711629 L12.505885,14.8689561 C12.1820787,15.1826802 12,15.6093335 12,16.054364 C12,16.4993945 12.1820787,16.9260479 12.505885,17.2397719 L13.1804704,17.8973469 C13.2895945,18.0021076 13.4466671,17.9779321 13.542564,17.8731714 C13.9405581,17.3403589 14.380004,16.8381753 14.8570134,16.3710637 C15.3380364,15.900572 15.8578435,15.4693382 16.4112052,15.081701 C16.5315724,15.010786 16.5434768,14.8463923 16.4475799,14.7400199 M23.7767514,18.951401 L23.7767514,24.6890652 C23.7767514,24.853459 23.9586249,24.9711133 24.1140441,24.8889165 L29.3470408,22.2489462 C29.4660853,22.1909249 29.50246,22.049095 29.4429378,21.9330523 C28.3583103,20.0779817 26.3444746,18.8111828 24.0181471,18.7289859 C23.8974493,18.7289859 23.7767514,18.8224647 23.7767514,18.951401 M23.7767514,32.7733697 C19.4134407,32.7733697 15.8685608,29.3227126 15.8685608,25.0758741 C15.8685608,20.8290355 19.4134407,17.3799901 23.7767514,17.3799901 C28.1417155,17.3799901 31.6852727,20.8290355 31.6852727,25.0758741 C31.6852727,29.3227126 28.1536199,32.7733697 23.7767514,32.7733697 M23.7767514,14.1420779 C17.5798251,14.1420779 12.5535028,19.0352095 12.5535028,25.0758741 C12.5535028,31.1181503 17.5798251,36 23.7767514,36 C29.9736777,36 35,31.1068683 35,25.0645921 C35,19.0223159 29.9852515,14.1420779 23.7767514,14.1420779" id="Shape" fill="#FFFFFF"></path>
        </g>
    </g>
</svg>