<?xml version="1.0" encoding="UTF-8"?>
<svg width="80px" height="80px" viewBox="0 0 80 80" version="1.1" xmlns="http://www.w3.org/2000/svg" xmlns:xlink="http://www.w3.org/1999/xlink">
    <!-- Generator: sketchtool 51.3 (57544) - http://www.bohemiancoding.com/sketch -->
    <title>1F84E6AD-0989-4057-BF49-ADEDC92C3B5E</title>
    <desc>Created with sketchtool.</desc>
    <defs>
        <rect id="path-1" x="0" y="0" width="80" height="80" rx="5.51724138"></rect>
    </defs>
    <g id="UI-Kit-&amp;-Styleguide" stroke="none" stroke-width="1" fill="none" fill-rule="evenodd">
        <g transform="translate(-599.000000, -353.000000)" id="Group-13">
            <g>
                <g id="Group-12" transform="translate(599.000000, 353.000000)">
                    <g id="Shift-Logo-Menu">
                        <g id="Group">
                            <g>
                                <mask id="mask-2" fill="white">
                                    <use xlink:href="#path-1"></use>
                                </mask>
                                <g id="Rectangle-12"></g>
                                <rect id="Rectangle-14" fill="#4285F4" mask="url(#mask-2)" x="0" y="0" width="22" height="20"></rect>
                                <rect id="Rectangle-14-Copy" fill="#41B161" mask="url(#mask-2)" x="0" y="20" width="22" height="20"></rect>
                                <rect id="Rectangle-14-Copy-2" fill="#FBC32E" mask="url(#mask-2)" x="0" y="40" width="22" height="20"></rect>
                                <rect id="Rectangle-14-Copy-3" fill="#EB4E43" mask="url(#mask-2)" x="0" y="59.3103448" width="22" height="20.6896552"></rect>
                                <path d="M8,5.51449615 C8,2.46892402 10.478403,0 13.515299,0 L74.484701,0 C77.5307165,0 80,2.47092124 80,5.51449615 L80,74.4855038 C80,77.531076 77.521597,80 74.484701,80 L13.515299,80 C10.4692835,80 8,77.5290788 8,74.4855038 L8,5.51449615 Z" id="Rectangle-12" fill="#343745" mask="url(#mask-2)"></path>
                                <path d="M32.0739377,55.3658226 C31.5272889,54.8333906 31.5288727,53.9720818 32.082223,53.4374481 L44.9460578,41.0087239 C45.4972824,40.476144 45.5033236,39.6082036 44.9663098,39.0768126 L32.1928022,26.4370493 C31.6527624,25.902664 31.6565098,25.039408 32.2080038,24.5022591 L35.8488776,20.9560895 C36.397313,20.4219197 37.2907515,20.426429 37.8342185,20.9562086 L56.4232642,39.0770837 C56.9713023,39.6113193 56.9667312,40.479976 56.4232642,41.007375 L37.8342185,59.0468194 C37.2861804,59.5786543 36.3996661,59.5790514 35.8521126,59.0457382 L32.0739377,55.3658226 Z" id="Path-4" fill="#FFFFFF" mask="url(#mask-2)"></path>
                            </g>
                        </g>
                    </g>
                </g>
            </g>
        </g>
    </g>
</svg>