<?xml version="1.0" encoding="UTF-8"?>
<svg width="16px" height="17px" viewBox="0 0 16 17" version="1.1" xmlns="http://www.w3.org/2000/svg" xmlns:xlink="http://www.w3.org/1999/xlink">
    <!-- Generator: sketchtool 51.3 (57544) - http://www.bohemiancoding.com/sketch -->
    <title>38D1B6FD-DC0F-407E-803D-CBB06B5B963F</title>
    <desc>Created with sketchtool.</desc>
    <defs></defs>
    <g id="Apps-&amp;-Extensions" stroke="none" stroke-width="1" fill="none" fill-rule="evenodd">
        <g transform="translate(-430.000000, -832.000000)" fill="#1F87FF" fill-rule="nonzero" id="Group-13-Copy-3">
            <g transform="translate(430.000000, 830.000000)">
                <g id="search-icon" transform="translate(0.000000, 2.000000)">
                    <path d="M12.7,11.3 C13.6,10.1 14.1,8.7 14.1,7.1 C14.1,3.2 11,0 7.1,0 C3.2,0 0,3.2 0,7.1 C0,11 3.2,14.2 7.1,14.2 C8.7,14.2 10.2,13.7 11.3,12.8 L14.3,15.8 C14.5,16 14.8,16.1 15,16.1 C15.2,16.1 15.5,16 15.7,15.8 C16.1,15.4 16.1,14.8 15.7,14.4 L12.7,11.3 Z M7.1,12.1 C4.3,12.1 2,9.9 2,7.1 C2,4.3 4.3,2 7.1,2 C9.9,2 12.2,4.3 12.2,7.1 C12.2,9.9 9.9,12.1 7.1,12.1 Z" id="Shape"></path>
                </g>
            </g>
        </g>
    </g>
</svg>