<?xml version="1.0" encoding="UTF-8"?>
<svg width="121px" height="40px" viewBox="0 0 121 40" version="1.1" xmlns="http://www.w3.org/2000/svg" xmlns:xlink="http://www.w3.org/1999/xlink">
    <!-- Generator: sketchtool 51.3 (57544) - http://www.bohemiancoding.com/sketch -->
    <title>5C528A4B-163E-4D41-80C5-1480400E6916</title>
    <desc>Created with sketchtool.</desc>
    <defs>
        <rect id="path-1" x="0" y="0" width="40.1028571" height="40" rx="2.75862069"></rect>
    </defs>
    <g id="Homepage" stroke="none" stroke-width="1" fill="none" fill-rule="evenodd">
        <g transform="translate(-130.000000, -30.000000)" id="MENU">
            <g transform="translate(130.000000, 30.000000)">
                <g id="Shift-Logo-Menu">
                    <g id="Group">
                        <mask id="mask-2" fill="white">
                            <use xlink:href="#path-1"></use>
                        </mask>
                        <g id="Rectangle-12"></g>
                        <rect id="Rectangle-14" fill="#4285F4" mask="url(#mask-2)" x="0" y="0" width="11.0628571" height="10"></rect>
                        <rect id="Rectangle-14-Copy" fill="#41B161" mask="url(#mask-2)" x="0" y="10" width="11.0628571" height="10"></rect>
                        <rect id="Rectangle-14-Copy-2" fill="#FBC32E" mask="url(#mask-2)" x="0" y="20" width="11.0628571" height="10"></rect>
                        <rect id="Rectangle-14-Copy-3" fill="#EB4E43" mask="url(#mask-2)" x="0" y="29.6551724" width="11.0628571" height="10.3448276"></rect>
                        <rect id="Rectangle-12" fill="#343745" mask="url(#mask-2)" x="4.14857143" y="0" width="35.9542857" height="40" rx="2.75862069"></rect>
                        <path d="M16.0304345,27.6765469 C15.7607189,27.4138459 15.7644363,26.9860409 16.0411115,26.7187241 L22.4730289,20.5043619 C22.7486412,20.238072 22.7596039,19.8119607 22.4888583,19.54405 L16.0906977,13.212881 C15.8238277,12.9488052 15.8282549,12.519704 16.0975554,12.2574084 L17.9308853,10.4717659 C18.2015427,10.2081487 18.635809,10.2038887 18.9171092,10.4781043 L28.2116321,19.5385418 C28.4856511,19.8056596 28.4929323,20.2307041 28.2116321,20.5036875 L18.9171092,29.5234097 C18.6430902,29.7893272 18.1950528,29.7848698 17.9325907,29.5292335 L16.0304345,27.6765469 Z" id="Path-4" fill="#FFFFFF" mask="url(#mask-2)"></path>
                    </g>
                    <path d="M61.3231737,18.3391507 C57.6863733,17.2303379 57.3687716,16.4331482 57.3687716,14.942848 C57.3687716,13.5564223 58.778914,12.1070982 60.3221003,12.1070982 C61.8654891,12.1070982 63.0428048,12.398643 64.6180351,13.6424721 L67.2466637,10.1890077 C65.1506158,8.51492982 62.7635345,7.87262973 60.3221003,7.87262973 C56.7459405,7.87262973 52.8369682,10.5067772 52.8369682,15.0815521 C52.8369682,19.6909517 55.5937732,21.2505015 59.2646456,22.3246895 C62.8324905,23.3644576 64.4450376,24.0577729 64.4450376,25.8599011 C64.4450376,27.2114972 63.4500487,28.4245942 60.6025875,28.4245942 C58.4467101,28.4245942 57.0353513,27.4616562 55.3497917,25.8062224 C54.2438657,27.2557514 53.2778783,28.5204782 52.5485714,29.4731722 C55.0070421,32.0292603 57.9135212,33.1034483 60.4654871,33.1034483 C65.5773294,33.1034483 69.1794492,30.3305967 69.1794492,25.7904466 C69.1794492,20.8345942 65.131146,19.5522477 61.3231737,18.3391507 Z M92.6326735,7.5862069 C91.0967886,7.5862069 89.8111719,8.92141257 89.8111719,10.4727671 C89.8111719,12.0241216 91.0967886,13.3232684 92.6326735,13.3232684 C94.2042532,13.3232684 95.4898698,12.0241216 95.4898698,10.4727671 C95.4898698,8.92141257 94.2042532,7.5862069 92.6326735,7.5862069 Z M100.459745,13.8364938 L100.459745,15.2893009 L98.0138482,15.2893009 L98.0138482,19.5868725 L100.483879,19.5868725 L100.483879,32.6178817 L104.909612,32.6178817 L104.909612,19.5868725 L108.761798,19.5868725 L108.761798,15.2893009 L104.885275,15.2893009 L104.885275,13.8364938 C104.885275,11.9651161 106.223217,11.9304913 108.761798,12.0689904 L108.761798,8.01420211 C102.552345,7.32109163 100.459745,9.15784458 100.459745,13.8364938 Z M121,19.5868725 L121,15.2893009 L117.123477,15.2893009 L117.123477,7.87262973 L112.697744,9.79215434 L112.697744,15.2893009 L110.182486,15.2893009 L110.182486,19.5868725 L112.697744,19.5868725 L112.697744,26.79559 C112.697744,31.4742392 114.790547,33.311197 121,32.6178817 L121,28.5630934 C118.461217,28.7017974 117.123477,28.6671726 117.123477,26.79559 L117.123477,19.5868725 L121,19.5868725 Z M90.437857,32.6178817 L94.8633876,32.6178817 L94.8633876,15.2893009 L90.437857,15.2893009 L90.437857,32.6178817 Z M80.3823028,14.804144 C78.6987716,14.804144 77.0762869,15.3491259 75.8788927,16.2059358 L75.8788927,8.35799142 L71.4531592,8.35799142 L71.4531592,32.6178817 L75.8788927,32.6178817 L75.8788927,24.4898658 C75.8788927,21.4748455 77.498133,19.5991653 79.0441584,19.3727725 C81.3353102,19.0369734 82.2378174,20.6760168 82.2378174,23.5572501 L82.2378174,32.6178817 L86.6633484,32.6178817 L86.6633484,21.9782367 C86.6633484,17.3688371 83.5662271,14.804144 80.3823028,14.804144 Z" id="Fill-1" fill="#1B1D24" fill-rule="nonzero"></path>
                </g>
            </g>
        </g>
    </g>
</svg>