<?xml version="1.0" encoding="UTF-8"?>
<svg width="46px" height="46px" viewBox="0 0 46 46" version="1.1" xmlns="http://www.w3.org/2000/svg" xmlns:xlink="http://www.w3.org/1999/xlink">
    <!-- Generator: Sketch 51.3 (57544) - http://www.bohemiancoding.com/sketch -->
    <title>facebook2019</title>
    <desc>Created with Sketch.</desc>
    <defs>
        <polygon id="path-1" points="0.0015234375 0.001015625 26 0.001015625 26 25.8420703 0.0015234375 25.8420703"></polygon>
    </defs>
    <g id="facebook-2019" stroke="none" stroke-width="1" fill="none" fill-rule="evenodd">
        <g id="facebook2019">
            <rect id="Rectangle-17-Copy-7" fill="#FFFFFF" fill-rule="nonzero" x="0" y="0" width="46" height="46" rx="4"></rect>
            <g id="f_logo_RGB-Blue_1024" transform="translate(10.000000, 10.000000)">
                <g id="Group-3">
                    <mask id="mask-2" fill="white">
                        <use xlink:href="#path-1"></use>
                    </mask>
                    <g id="Clip-2"></g>
                    <path d="M26,13 C26,5.82029297 20.179707,0 13,0 C5.82029297,0 0,5.82029297 0,13 C0,19.4886758 4.75391211,24.8668164 10.96875,25.8420703 L10.96875,16.7578125 L7.66796875,16.7578125 L7.66796875,13 L10.96875,13 L10.96875,10.1359375 C10.96875,6.8778125 12.9095586,5.078125 15.879043,5.078125 C17.3013496,5.078125 18.7890625,5.33203125 18.7890625,5.33203125 L18.7890625,8.53125 L17.149793,8.53125 C15.534873,8.53125 15.03125,9.5333418 15.03125,10.5614082 L15.03125,13 L18.6367188,13 L18.0603516,16.7578125 L15.03125,16.7578125 L15.03125,25.8420703 C21.2460879,24.8668164 26,19.4886758 26,13" id="Fill-1" fill="#1877F2" mask="url(#mask-2)"></path>
                </g>
                <path d="M18.0603516,16.7578125 L18.6367188,13 L15.03125,13 L15.03125,10.5614082 C15.03125,9.5333418 15.534873,8.53125 17.149793,8.53125 L18.7890625,8.53125 L18.7890625,5.33203125 C18.7890625,5.33203125 17.3013496,5.078125 15.879043,5.078125 C12.9095586,5.078125 10.96875,6.8778125 10.96875,10.1359375 L10.96875,13 L7.66796875,13 L7.66796875,16.7578125 L10.96875,16.7578125 L10.96875,25.8420703 C11.6306074,25.945918 12.3089687,26 13,26 C13.6910313,26 14.3693926,25.945918 15.03125,25.8420703 L15.03125,16.7578125 L18.0603516,16.7578125" id="Fill-4" fill="#FFFFFE"></path>
            </g>
        </g>
    </g>
</svg>