<?xml version="1.0" encoding="UTF-8"?>
<svg width="46px" height="46px" viewBox="0 0 46 46" version="1.1" xmlns="http://www.w3.org/2000/svg" xmlns:xlink="http://www.w3.org/1999/xlink">
    <!-- Generator: Sketch 51.3 (57544) - http://www.bohemiancoding.com/sketch -->
    <title>flock</title>
    <desc>Created with Sketch.</desc>
    <defs></defs>
    <g id="Page-3" stroke="none" stroke-width="1" fill="none" fill-rule="evenodd">
        <g id="flock" fill-rule="nonzero">
            <rect id="Rectangle-17-Copy-6" fill="#FFFFFF" x="0" y="0" width="46" height="46" rx="4"></rect>
            <g id="Group-15" transform="translate(10.000000, 11.000000)" fill="#0ABE51">
                <path d="M25.6203175,22.5571895 C26.4209524,23.1454248 25.6203175,23.4395425 25.3066667,23.4885621 C23.5238095,23.7990196 21.6996825,23.5866013 20.032381,22.8921569 C19.8755556,22.8267974 19.5949206,22.9166667 19.2647619,23.0718954 C16.0126984,25.0898693 12.0095238,25.5228758 8.39428571,24.2565359 C1.84063492,21.9607843 -1.5847619,14.8447712 0.734603175,8.36601307 C3.05396825,1.8872549 10.2266667,-1.51143791 16.7803175,0.784313725 C23.3339683,3.08006536 26.7593651,10.1960784 24.44,16.6748366 L24.44,16.6830065 C24.3326984,16.9771242 24.2171429,17.2712418 24.0850794,17.5571895 C23.8704762,18.1699346 23.655873,19.0114379 23.7053968,19.7630719 C23.8044444,21.1683007 24.8114286,21.9689542 25.6203175,22.5571895 Z M8.88126984,6.87091503 C8.09714286,6.87091503 7.4615873,7.5 7.4615873,8.27614379 L7.4615873,8.33333333 C7.4615873,9.10947712 8.09714286,9.73856209 8.88126984,9.73856209 L17.3333333,9.73856209 C18.1174603,9.73856209 18.7530159,9.10947712 18.7530159,8.33333333 L18.7530159,8.27614379 C18.7530159,7.5 18.1174603,6.87091503 17.3333333,6.87091503 L8.88126984,6.87091503 Z M8.88126984,11.127451 C8.09714286,11.127451 7.4615873,11.7565359 7.4615873,12.5326797 L7.4615873,12.5980392 C7.4615873,13.374183 8.09714286,14.003268 8.88126984,14.003268 L14.2215873,14.003268 C15.0057143,14.003268 15.6412698,13.374183 15.6412698,12.5980392 L15.6412698,12.5326797 C15.6412698,11.7565359 15.0057143,11.127451 14.2215873,11.127451 L8.88126984,11.127451 Z M8.88126984,15.3104575 C8.09714286,15.3104575 7.4615873,15.9395425 7.4615873,16.7156863 L7.4615873,16.7728758 C7.4615873,17.5490196 8.09714286,18.1781046 8.88126984,18.1781046 L9.84698413,18.1781046 C10.6311111,18.1781046 11.2666667,17.5490196 11.2666667,16.7728758 L11.2666667,16.7156863 C11.2666667,15.9395425 10.6311111,15.3104575 9.84698413,15.3104575 L8.88126984,15.3104575 Z" id="Combined-Shape"></path>
            </g>
        </g>
    </g>
</svg>