<?xml version="1.0" encoding="UTF-8"?>
<svg width="52px" height="52px" viewBox="0 0 52 52" version="1.1" xmlns="http://www.w3.org/2000/svg" xmlns:xlink="http://www.w3.org/1999/xlink">
    <!-- Generator: sketchtool 51.3 (57544) - http://www.bohemiancoding.com/sketch -->
    <title>804E63CB-56E2-456C-A3D3-16BFDB9B526C</title>
    <desc>Created with sketchtool.</desc>
    <defs></defs>
    <g id="Homepage" stroke="none" stroke-width="1" fill="none" fill-rule="evenodd">
        <g transform="translate(-134.000000, -4636.000000)" id="3rd-Section">
            <g transform="translate(-15.000000, 3515.000000)">
                <g id="Group-42" transform="translate(0.000000, 737.000000)">
                    <g id="github-ico-big" transform="translate(150.000000, 385.000000)">
                        <circle id="Oval-3-Copy-3" stroke="#DFE4EB" fill="#FFFFFF" fill-rule="nonzero" cx="25" cy="25" r="25"></circle>
                        <path d="M25.0495201,13 C18.422284,13 13,18.5347571 13,25.2994603 C13,30.731722 16.4140307,35.3440196 21.2338387,36.9839476 C21.8363147,37.0864431 22.0371401,36.6764611 22.0371401,36.3689746 C22.0371401,36.0614881 22.0371401,35.3440196 22.0371401,34.3190645 C18.723522,35.0365331 18.0206334,32.6791365 18.0206334,32.6791365 C17.51857,31.2441995 16.7152687,30.8342175 16.7152687,30.8342175 C15.5103167,30.1167489 16.7152687,30.1167489 16.7152687,30.1167489 C17.9202207,30.2192444 18.5226967,31.346695 18.5226967,31.346695 C19.627236,33.191614 21.3342514,32.6791365 22.0371401,32.37165 C22.1375527,31.551686 22.4387907,31.0392085 22.8404414,30.731722 C20.1292994,30.4242354 17.3177447,29.3992804 17.3177447,24.6844873 C17.3177447,23.3520458 17.819808,22.2245952 18.5226967,21.4046312 C18.5226967,20.9946492 18.0206334,19.7647032 18.723522,18.1247751 C18.723522,18.1247751 19.7276487,17.8172886 22.0371401,19.3547212 C23.0412667,19.0472347 24.0453934,18.9447392 25.0495201,18.9447392 C26.0536467,18.9447392 27.0577734,19.0472347 28.0619001,19.3547212 C30.3713914,17.7147931 31.3755181,18.1247751 31.3755181,18.1247751 C32.0784068,19.8671987 31.5763434,21.0971447 31.4759308,21.4046312 C32.2792321,22.2245952 32.6808828,23.3520458 32.6808828,24.6844873 C32.6808828,29.3992804 29.8693281,30.4242354 27.1581861,30.731722 C27.5598368,31.141704 27.9614874,31.8591725 27.9614874,32.986623 C27.9614874,34.6265511 27.9614874,35.9589926 27.9614874,36.3689746 C27.9614874,36.6764611 28.1623128,37.0864431 28.7647888,36.9839476 C33.5845968,35.3440196 36.9986275,30.731722 36.9986275,25.2994603 C37.0990401,18.5347571 31.6767561,13 25.0495201,13 Z" id="Shape" fill="#444655"></path>
                    </g>
                </g>
            </g>
        </g>
    </g>
</svg>