<?xml version="1.0" encoding="UTF-8"?>
<svg width="62px" height="62px" viewBox="0 0 62 62" version="1.1" xmlns="http://www.w3.org/2000/svg" xmlns:xlink="http://www.w3.org/1999/xlink">
    <!-- Generator: sketchtool 51.3 (57544) - http://www.bohemiancoding.com/sketch -->
    <title>58E4D29B-3E8E-4FBB-85FD-6FC1783BC718</title>
    <desc>Created with sketchtool.</desc>
    <defs></defs>
    <g id="Homepage" stroke="none" stroke-width="1" fill="none" fill-rule="evenodd">
        <g transform="translate(-224.000000, -4511.000000)" fill-rule="nonzero" id="3rd-Section">
            <g transform="translate(-15.000000, 3515.000000)">
                <g id="Group-42" transform="translate(0.000000, 737.000000)">
                    <g id="adwords-ico-big" transform="translate(240.000000, 260.000000)">
                        <circle id="Oval-3-Copy-2" stroke="#DFE4EB" fill="#FFFFFF" cx="30" cy="30" r="30"></circle>
                        <g id="adwords" transform="translate(17.000000, 18.000000)">
                            <path d="M26,24.9745968 L19.3809688,24.9745968 C18.3453359,24.9745968 17.4229453,24.3258569 17.0804766,23.3568548 L13.4551016,13.1080645 L13,11.8221774 L13.1364492,5.54359879 L17.1732539,0.025453629 L18.3699141,3.40851815 L26,24.9745968 Z" id="Shape" fill="#28B446"></path>
                            <polygon id="Shape" fill="#219B38" points="18.3698633 3.40846774 13.4550508 13.1080645 13 11.8221774 13.1364492 5.54354839 17.1732539 0.0254032258"></polygon>
                            <path d="M17.1732539,0.0254032258 L13,11.8221774 L8.91886328,23.3561996 C8.57639453,24.3259073 7.65400391,24.9745968 6.61837109,24.9745968 L0,24.9745968 L8.82608594,0.0254032258 L17.1732539,0.0254032258 Z" id="Shape" fill="#518EF8"></path>
                        </g>
                    </g>
                </g>
            </g>
        </g>
    </g>
</svg>