<?xml version="1.0" encoding="UTF-8"?>
<svg width="82px" height="82px" viewBox="0 0 82 82" version="1.1" xmlns="http://www.w3.org/2000/svg" xmlns:xlink="http://www.w3.org/1999/xlink">
    <!-- Generator: sketchtool 51.3 (57544) - http://www.bohemiancoding.com/sketch -->
    <title>14258D57-D7BA-445A-8740-DEEF16A787A4</title>
    <desc>Created with sketchtool.</desc>
    <defs></defs>
    <g id="Homepage" stroke="none" stroke-width="1" fill="none" fill-rule="evenodd">
        <g transform="translate(-434.000000, -4501.000000)" id="3rd-Section">
            <g transform="translate(-15.000000, 3515.000000)">
                <g id="Group-42" transform="translate(0.000000, 737.000000)">
                    <g id="trello-ico-big" transform="translate(450.000000, 250.000000)">
                        <circle id="Oval-3-Copy-2" stroke="#DFE4EB" fill="#FFFFFF" fill-rule="nonzero" cx="40" cy="40" r="40"></circle>
                        <path d="M42,27.6592629 C42,26.1905926 43.1905926,25 44.6592629,25 L52.3407371,25 C53.8094074,25 55,26.1905926 55,27.6592629 L55,40.3407371 C55,41.8094074 53.8094074,43 52.3407371,43 L44.6592629,43 C43.1905926,43 42,41.8094074 42,40.3407371 L42,27.6592629 Z M25,27.6592629 C25,26.1905926 26.1905926,25 27.6592629,25 L35.3407371,25 C36.8094074,25 38,26.1905926 38,27.6592629 L38,52.3407371 C38,53.8094074 36.8094074,55 35.3407371,55 L27.6592629,55 C26.1905926,55 25,53.8094074 25,52.3407371 L25,27.6592629 Z" id="Combined-Shape" fill="#0184D3"></path>
                    </g>
                </g>
            </g>
        </g>
    </g>
</svg>