<?xml version="1.0" encoding="UTF-8"?>
<svg width="92px" height="92px" viewBox="0 0 92 92" version="1.1" xmlns="http://www.w3.org/2000/svg" xmlns:xlink="http://www.w3.org/1999/xlink">
    <!-- Generator: sketchtool 51.3 (57544) - http://www.bohemiancoding.com/sketch -->
    <title>9A6CE7AD-400F-403A-99C5-F5E0053A7E56</title>
    <desc>Created with sketchtool.</desc>
    <defs></defs>
    <g id="Homepage" stroke="none" stroke-width="1" fill="none" fill-rule="evenodd">
        <g transform="translate(-554.000000, -4376.000000)" id="3rd-Section">
            <g transform="translate(-15.000000, 3515.000000)">
                <g id="Group-42" transform="translate(0.000000, 737.000000)">
                    <g id="invision-ico-big" transform="translate(570.000000, 125.000000)">
                        <circle id="Oval-3-Copy" stroke="#DFE4EB" fill="#FFFFFF" fill-rule="nonzero" cx="45" cy="45" r="45"></circle>
                        <path d="M58.0152018,62 C54.3640038,62 52.6183916,59.826439 52.6183916,56.8549209 C52.6183916,56.007078 52.7236879,55.1046391 52.988317,54.2028425 L54.7347836,47.943792 C54.9462305,47.2539562 54.9994126,46.618074 54.9994126,46.0342185 C54.9994126,44.0193069 53.7824179,42.7987129 51.8245044,42.7987129 C49.3371191,42.7987129 47.6968032,44.5400024 46.8503746,47.9881111 L43.4635921,61.5572376 L37.5373102,61.5572376 L38.6009526,57.3259447 C36.8591849,60.19448 34.4399325,61.9950757 31.4553265,61.9950757 C27.8570971,61.9950757 26.1638127,59.9292079 26.1638127,56.7990403 C26.1638127,56.0047228 26.2699633,55.0641739 26.4814103,54.1623773 L29.1800289,43.1444872 L25,43.1444872 L26.2699633,38.4342487 L36.3237328,38.4342487 L32.3547237,54.195349 C32.0900946,55.2039823 31.9843711,56.0302009 31.9843711,56.6127718 C31.9843711,57.6218333 32.4798832,57.9117271 33.2547616,58.0868623 C33.726566,58.1928427 37.4869047,58.1435993 39.5343094,53.5819474 L42.1408739,43.1444872 L37.9076628,43.1444872 L39.1776261,38.4342487 L48.2260614,38.4342487 L47.0622487,43.745899 C48.6493825,40.7750231 51.8245044,37.9420288 54.9462305,37.9420288 C58.2798308,37.9420288 61.0316316,40.3174877 61.0316316,44.8791396 C61.0316316,46.0455659 60.8729396,47.3130482 60.4496185,48.7447466 L58.7559069,54.841508 C58.5978556,55.4793171 58.4912778,56.0085767 58.4912778,56.4858095 C58.4912778,57.5462554 58.9150261,58.0761573 59.7089133,58.0761573 C60.5023734,58.0761573 61.5079213,57.4912313 62.6721611,54.2572244 L65,55.1581645 C63.6243132,59.9853025 61.1373551,62 58.0152018,62 Z M33.9422846,28 C35.9004117,28 37.540514,29.538107 37.540514,31.5530185 C37.540514,33.5694288 35.9004117,35.1077499 33.9422846,35.1077499 C31.9843711,35.1077499 30.3442688,33.5694288 30.3442688,31.5530185 C30.3442688,29.538107 31.9843711,28 33.9422846,28 Z" id="Combined-Shape" fill="#FF3266"></path>
                    </g>
                </g>
            </g>
        </g>
    </g>
</svg>