<?xml version="1.0" encoding="UTF-8"?>
<svg width="62px" height="62px" viewBox="0 0 62 62" version="1.1" xmlns="http://www.w3.org/2000/svg" xmlns:xlink="http://www.w3.org/1999/xlink">
    <!-- Generator: sketchtool 51.3 (57544) - http://www.bohemiancoding.com/sketch -->
    <title>99DDC896-CE1D-4398-8BDB-BBF243203043</title>
    <desc>Created with sketchtool.</desc>
    <defs></defs>
    <g id="Homepage" stroke="none" stroke-width="1" fill="none" fill-rule="evenodd">
        <g transform="translate(-224.000000, -4391.000000)" fill-rule="nonzero" id="3rd-Section">
            <g transform="translate(-15.000000, 3515.000000)">
                <g id="Group-42" transform="translate(0.000000, 737.000000)">
                    <g id="dontknowthisapp-ico-big" transform="translate(240.000000, 140.000000)">
                        <circle id="Oval-3-Copy" stroke="#DFE4EB" fill="#FFFFFF" cx="30" cy="30" r="30"></circle>
                        <path d="M36.4284527,25.5607552 L36.4284527,22.4645422 C37.2356231,22.0742895 37.7530249,21.2375007 37.7571639,20.3156304 L37.7571639,20.244106 C37.7571639,18.9273776 36.7255727,17.8599583 35.4530404,17.8599583 L35.3839167,17.8599583 C34.1113844,17.8599583 33.0797931,18.9273776 33.0797931,20.244106 L33.0797931,20.3156304 C33.0839322,21.2375007 33.6013339,22.0742895 34.4085044,22.4645422 L34.4085044,25.5607552 C33.2719633,25.7406703 32.2015421,26.228123 31.305618,26.9737601 L23.0998661,20.3601345 C23.157938,20.1420418 23.1889092,19.9171798 23.192031,19.6909837 C23.1938944,18.6043993 22.5629196,17.623675 21.5933952,17.2062237 C20.6238707,16.7887723 19.5067809,17.0168266 18.7631397,17.7840212 C18.0194984,18.5512159 17.7957938,19.7064232 18.1963624,20.7108511 C18.5969309,21.7152789 19.5428656,22.3710675 20.5929797,22.3723551 C21.0420091,22.3702782 21.4826655,22.2464235 21.8710002,22.0131435 L29.9523295,28.5186878 C28.4662915,30.8410765 28.505906,33.8680601 30.0521748,36.1479602 L27.594443,38.6910511 C27.3956929,38.6253785 27.1886303,38.5905622 26.9800101,38.587738 C25.8028939,38.5886158 24.8491817,39.5764 24.8494645,40.7943987 C24.8497473,42.0123974 25.8039181,42.9997073 26.9810345,42.9999999 C28.158151,43.0002925 29.1127801,42.0134571 29.1136285,40.7954587 C29.1109898,40.5795848 29.07734,40.3653169 29.0137831,40.159686 L31.4454015,37.6436155 C33.6179242,39.3735047 36.6012557,39.5221096 38.9243228,38.0161536 C41.24739,36.5101976 42.4196672,33.6676697 41.8631076,30.8902131 C41.3065481,28.1127565 39.1386717,25.986843 36.4284527,25.5607552 M35.4207826,35.7426551 C33.5634864,35.7408999 32.0589872,34.1820142 32.0598352,32.2602118 C32.0606831,30.3384095 33.5665573,28.7809459 35.4238543,28.7809455 C37.2811514,28.780945 38.7870263,30.3384078 38.7878752,32.2602101 C38.7878752,34.1826336 37.281752,35.7410657 35.4238548,35.7410657" id="Shape" fill="#EF8162"></path>
                    </g>
                </g>
            </g>
        </g>
    </g>
</svg>