<?xml version="1.0" encoding="UTF-8"?>
<svg width="72px" height="72px" viewBox="0 0 72 72" version="1.1" xmlns="http://www.w3.org/2000/svg" xmlns:xlink="http://www.w3.org/1999/xlink">
    <!-- Generator: sketchtool 51.3 (57544) - http://www.bohemiancoding.com/sketch -->
    <title>0322D647-F500-43E7-95CC-3D992149CDF1</title>
    <desc>Created with sketchtool.</desc>
    <defs></defs>
    <g id="Homepage" stroke="none" stroke-width="1" fill="none" fill-rule="evenodd">
        <g transform="translate(-324.000000, -4266.000000)" fill-rule="nonzero" id="3rd-Section">
            <g transform="translate(-15.000000, 3515.000000)">
                <g id="Group-42" transform="translate(0.000000, 737.000000)">
                    <g id="unsplash-ico-big" transform="translate(340.000000, 15.000000)">
                        <circle id="Oval-3" stroke="#DFE4EB" fill="#FFFFFF" cx="35" cy="35" r="35"></circle>
                        <g id="Logo_of_Unsplash" transform="translate(22.000000, 23.000000)" fill="#444655">
                            <path d="M17.4071702,13.5870446 C17.4071702,15.8656173 15.5660272,17.6378406 13.3901309,17.6378406 C11.2142347,17.6378406 9.37309166,15.8656173 9.37309166,13.5870446 C9.37309166,11.3084719 11.2142347,9.53624872 13.3901309,9.53624872 C15.6497155,9.6206403 17.4071702,11.3928635 17.4071702,13.5870446 Z M26.7802619,7.3420676 L26.7802619,19.9164133 C26.7802619,21.8574196 25.1901838,23.5452513 23.1816642,23.5452513 L3.59859769,23.5452513 C1.59007805,23.5452513 0,21.9418112 0,19.9164133 L0,7.25767602 C0,5.31666964 1.59007805,3.62883801 3.59859769,3.62883801 L6.69506547,3.62883801 L7.36457202,1.68783163 C7.69932529,0.759524234 8.78727343,0 9.79153325,0 L16.9887286,0 C17.9929885,0 19.0809366,0.759524234 19.4156899,1.68783163 L20.0851964,3.71322959 L23.1816642,3.71322959 C25.1901838,3.71322959 26.7802619,5.31666964 26.7802619,7.3420676 Z M19.5830665,13.6714362 C19.5830665,10.2113814 16.821352,7.3420676 13.3064426,7.3420676 C9.87522157,7.3420676 7.02981875,10.2113814 7.02981875,13.6714362 C7.02981875,17.1314911 9.79153325,20.0008048 13.3064426,20.0008048 C16.821352,19.9164133 19.5830665,17.1314911 19.5830665,13.6714362 Z" id="Shape"></path>
                        </g>
                    </g>
                </g>
            </g>
        </g>
    </g>
</svg>