<?xml version="1.0" encoding="UTF-8"?>
<svg width="62px" height="62px" viewBox="0 0 62 62" version="1.1" xmlns="http://www.w3.org/2000/svg" xmlns:xlink="http://www.w3.org/1999/xlink">
    <!-- Generator: sketchtool 51.3 (57544) - http://www.bohemiancoding.com/sketch -->
    <title>EDBD671F-D9DF-43CF-8F30-B42FD26FCE2F</title>
    <desc>Created with sketchtool.</desc>
    <defs></defs>
    <g id="Homepage" stroke="none" stroke-width="1" fill="none" fill-rule="evenodd">
        <g transform="translate(-224.000000, -4631.000000)" fill-rule="nonzero" id="3rd-Section">
            <g transform="translate(-15.000000, 3515.000000)">
                <g id="Group-42" transform="translate(0.000000, 737.000000)">
                    <g id="wordpress-ico-big" transform="translate(240.000000, 380.000000)">
                        <circle id="Oval-3-Copy-3" stroke="#DFE4EB" fill="#FFFFFF" cx="30" cy="30" r="30"></circle>
                        <g id="logo-wordpress" transform="translate(17.000000, 17.000000)" fill="#22749B">
                            <path d="M0,13 C0,11.13125 0.40625,9.34375 1.1375,7.71875 L7.3125,24.7 C3.00625,22.5875 0,18.159375 0,13 Z M21.775,12.35 C21.775,13.446875 21.328125,14.746875 20.8,16.534375 L19.5,20.88125 L14.70625,6.90625 C15.51875,6.865625 16.209375,6.784375 16.209375,6.784375 C16.9,6.703125 16.81875,5.6875 16.128125,5.728125 C16.128125,5.728125 14.015625,5.890625 12.675,5.890625 C11.415625,5.890625 9.2625,5.728125 9.2625,5.728125 C8.571875,5.6875 8.490625,6.74375 9.18125,6.784375 C9.18125,6.784375 9.871875,6.865625 10.5625,6.90625 L12.59375,12.471875 L9.75,21.003125 L5.0375,6.865625 C5.85,6.825 6.540625,6.74375 6.540625,6.74375 C7.23125,6.6625 7.15,5.646875 6.459375,5.6875 C6.459375,5.6875 4.346875,5.85 3.00625,5.85 C2.7625,5.85 2.478125,5.85 2.153125,5.85 C4.46875,2.315625 8.45,0 13,0 C16.371875,0 19.459375,1.3 21.815625,3.4125 C21.775,3.4125 21.69375,3.4125 21.653125,3.4125 C20.353125,3.4125 19.459375,4.55 19.459375,5.728125 C19.459375,6.784375 20.06875,7.71875 20.71875,8.775 C21.20625,9.628125 21.775,10.725 21.775,12.35 Z M13.24375,14.1375 L17.225,25.10625 C17.225,25.146875 17.265625,25.228125 17.30625,25.26875 C15.965625,25.75625 14.503125,26 13,26 C11.740625,26 10.521875,25.796875 9.34375,25.471875 L13.24375,14.1375 Z M24.415625,6.74375 C25.43125,8.6125 26,10.725 26,13 C26,17.79375 23.4,21.978125 19.540625,24.253125 L23.521875,12.75625 C24.253125,10.8875 24.496875,9.384375 24.496875,8.084375 C24.496875,7.596875 24.45625,7.15 24.415625,6.74375 Z" id="Combined-Shape"></path>
                        </g>
                    </g>
                </g>
            </g>
        </g>
    </g>
</svg>