<svg xmlns="http://www.w3.org/2000/svg" xmlns:xlink="http://www.w3.org/1999/xlink" width="102" height="102" viewBox="0 0 102 102">
    <defs>
        <path id="a" d="M.003.002H50v49.694H.003z"/>
    </defs>
    <g fill="none" fill-rule="evenodd" transform="translate(1 1)">
        <circle cx="50" cy="50" r="50" fill="#FFF" fill-rule="nonzero" stroke="#DFE4EB"/>
        <g transform="translate(25 25)">
            <mask id="b" fill="#fff">
                <use xlink:href="#a"/>
            </mask>
            <path fill="#1877F2" d="M50 25C50 11.193 38.807 0 25 0S0 11.193 0 25c0 12.478 9.142 22.82 21.094 24.696v-17.47h-6.348V25h6.348v-5.508c0-6.265 3.732-9.726 9.443-9.726 2.735 0 5.596.488 5.596.488v6.152H32.98c-3.105 0-4.074 1.927-4.074 3.904V25h6.934l-1.109 7.227h-5.825v17.47C40.858 47.82 50 37.477 50 25" mask="url(#b)"/>
        </g>
        <path fill="#FFFFFE" d="M59.731 57.227L60.84 50h-6.934v-4.69c0-1.977.969-3.904 4.074-3.904h3.153v-6.152s-2.861-.488-5.596-.488c-5.71 0-9.443 3.46-9.443 9.726V50h-6.348v7.227h6.348v17.47a25.187 25.187 0 0 0 7.812 0v-17.47h5.825"/>
    </g>
</svg>
