<?xml version="1.0" encoding="UTF-8"?>
<svg width="52px" height="52px" viewBox="0 0 52 52" version="1.1" xmlns="http://www.w3.org/2000/svg" xmlns:xlink="http://www.w3.org/1999/xlink">
    <!-- Generator: sketchtool 51.3 (57544) - http://www.bohemiancoding.com/sketch -->
    <title>EA697902-AA4D-4119-9F2F-82414C8B7092</title>
    <desc>Created with sketchtool.</desc>
    <defs>
        <polygon id="path-1" points="0 7.3089701e-06 23.9950821 7.3089701e-06 23.9950821 21.9966379 0 21.9966379"></polygon>
    </defs>
    <g id="Homepage" stroke="none" stroke-width="1" fill="none" fill-rule="evenodd">
        <g transform="translate(-134.000000, -4396.000000)" id="3rd-Section">
            <g transform="translate(-15.000000, 3515.000000)">
                <g id="Group-42" transform="translate(0.000000, 737.000000)">
                    <g id="asana" transform="translate(150.000000, 145.000000)">
                        <circle id="Oval-3-Copy" stroke="#DFE4EB" fill="#FFFFFF" fill-rule="nonzero" cx="25" cy="25" r="25"></circle>
                        <g id="Group-3" transform="translate(13.000000, 14.000000)">
                            <mask id="mask-2" fill="white">
                                <use xlink:href="#path-1"></use>
                            </mask>
                            <g id="Clip-2"></g>
                            <path d="M18.7766665,11.6451701 C15.8943083,11.6451701 13.558079,13.9622842 13.558079,16.8207249 C13.558079,19.6793362 15.8943083,21.9966452 18.7766665,21.9966452 C21.6586563,21.9966452 23.9950821,19.6793362 23.9950821,16.8207249 C23.9950821,13.9622842 21.6586563,11.6451701 18.7766665,11.6451701 M5.21853347,11.6456086 C2.33651914,11.6456086 -4.91299898e-06,13.9622842 -4.91299898e-06,16.8209929 C-4.91299898e-06,19.6793362 2.33651914,21.9966452 5.21853347,21.9966452 C8.10069519,21.9966452 10.4372929,19.6793362 10.4372929,16.8209929 C10.4372929,13.9622842 8.10069519,11.6456086 5.21853347,11.6456086 M17.2159296,5.17558649 C17.2159296,8.03397852 14.8796757,10.3515555 11.997686,10.3515555 C9.11540143,10.3515555 6.7790739,8.03397852 6.7790739,5.17558649 C6.7790739,2.31734064 9.11540143,7.3089701e-06 11.997686,7.3089701e-06 C14.8796757,7.3089701e-06 17.2159296,2.31734064 17.2159296,5.17558649" id="Fill-1" fill="#FD6879" mask="url(#mask-2)"></path>
                        </g>
                    </g>
                </g>
            </g>
        </g>
    </g>
</svg>