<?xml version="1.0" encoding="UTF-8"?>
<svg width="82px" height="82px" viewBox="0 0 82 82" version="1.1" xmlns="http://www.w3.org/2000/svg" xmlns:xlink="http://www.w3.org/1999/xlink">
    <!-- Generator: sketchtool 51.3 (57544) - http://www.bohemiancoding.com/sketch -->
    <title>94E91A3D-BE65-41C8-A545-047BC64A9E20</title>
    <desc>Created with sketchtool.</desc>
    <defs></defs>
    <g id="Homepage" stroke="none" stroke-width="1" fill="none" fill-rule="evenodd">
        <g transform="translate(-434.000000, -4261.000000)" fill-rule="nonzero" id="3rd-Section">
            <g transform="translate(-15.000000, 3515.000000)">
                <g id="Group-42" transform="translate(0.000000, 737.000000)">
                    <g id="skype-ico-big" transform="translate(450.000000, 10.000000)">
                        <circle id="Oval-3" stroke="#DFE4EB" fill="#FFFFFF" cx="40" cy="40" r="40"></circle>
                        <path d="M40.8950627,50 C35.7047341,50 33.3333353,47.4217966 33.3333353,45.5307798 C33.3326338,45.0796618 33.5225075,44.6481768 33.8582832,44.3378435 C34.1940589,44.0275103 34.6460911,43.8657282 35.1080264,43.8905609 C37.3302483,43.8905609 36.7489727,47.1409029 40.8950627,47.1409029 C43.014404,47.1409029 44.2592598,45.8969448 44.2592598,44.7282262 C44.2592598,44.0259918 43.8477372,43.2234382 42.4485604,42.9024168 L37.8189314,41.7637939 C34.0997961,40.8408573 33.451648,38.8244414 33.451648,36.9534884 C33.451648,33.0711354 37.0936229,31.6666667 40.5607006,31.6666667 C43.7551446,31.6666667 47.5514404,33.3871409 47.5514404,35.7145463 C47.5514404,36.7177383 46.692387,37.254446 45.6944448,37.254446 C43.7962969,37.254446 44.1152269,34.6561788 40.2983549,34.6561788 C38.400207,34.6561788 37.4022648,35.5239398 37.4022648,36.7378021 C37.4022648,37.9516644 38.878602,38.3629731 40.1748982,38.6388509 L43.5905356,39.3912449 C47.3353911,40.2138623 48.3333333,42.3556772 48.3333333,44.4072047 C48.3333333,47.5622435 45.8281896,50 40.8899187,50 M53.8972314,42.4547259 C54.0403834,41.6392745 54.1118377,40.8129714 54.1107841,39.9851864 C54.1283138,35.8270354 52.2911787,31.8751554 49.0945948,29.1948101 C45.8980108,26.5144648 41.6710041,25.3815436 37.553001,26.1014353 C36.2872746,25.3766903 34.851728,24.9967744 33.3912067,25.0000206 C30.393324,25.0182335 27.6299929,26.6161226 26.1310596,29.1981821 C24.6321263,31.7802415 24.6224297,34.9591644 26.1055835,37.5502204 C25.2779948,42.0726087 26.7276836,46.7115643 29.9870403,49.9707525 C33.2463969,53.2299407 37.9029842,54.6969455 42.4547802,53.898572 C43.7189579,54.6226949 45.1527399,55.0025972 46.6116082,54.9999866 C49.6079661,54.9807894 52.3696044,53.3835797 53.8682208,50.8030822 C55.3668371,48.2225847 55.3778776,45.0454631 53.8972314,42.4547259" id="Shape" fill="#49ACE8"></path>
                    </g>
                </g>
            </g>
        </g>
    </g>
</svg>