<?xml version="1.0" encoding="UTF-8"?>
<svg width="52px" height="52px" viewBox="0 0 52 52" version="1.1" xmlns="http://www.w3.org/2000/svg" xmlns:xlink="http://www.w3.org/1999/xlink">
    <!-- Generator: sketchtool 51.3 (57544) - http://www.bohemiancoding.com/sketch -->
    <title>0B9B462F-E9C8-4E4B-951E-B663B7A004A7</title>
    <desc>Created with sketchtool.</desc>
    <defs></defs>
    <g id="Homepage" stroke="none" stroke-width="1" fill="none" fill-rule="evenodd">
        <g transform="translate(-134.000000, -4276.000000)" fill-rule="nonzero" id="3rd-Section">
            <g transform="translate(-15.000000, 3515.000000)">
                <g id="Group-42" transform="translate(0.000000, 737.000000)">
                    <g id="pocket-ico-big" transform="translate(150.000000, 25.000000)">
                        <circle id="Oval-3" stroke="#DFE4EB" fill="#FFFFFF" cx="25" cy="25" r="25"></circle>
                        <path d="M15.0993603,15 C13.7917043,15.0828327 13,15.8084306 13,17.0989875 L13,24.8278251 C13,31.1053622 19.4233789,36.0387264 24.9799609,35.9997709 C31.2279442,35.955946 37,30.8277522 37,24.8278251 L37,17.0989875 C37,15.8035612 36.158252,15.0730415 34.8405225,15 L15.0993603,15 Z M20.1599219,21.287276 L24.9799609,25.7385138 L29.8050098,21.287276 C31.9644872,20.4058039 32.9064305,22.8018791 32.0195946,23.5031822 L25.736543,29.3326268 C25.5311427,29.522587 24.4338428,29.522587 24.2284425,29.3326268 L17.945337,23.5031299 C17.0985254,22.7287853 18.200835,20.2937545 20.1599219,21.287276 Z" id="Shape" fill="#EF4056"></path>
                    </g>
                </g>
            </g>
        </g>
    </g>
</svg>