<?xml version="1.0" encoding="UTF-8"?>
<svg width="82px" height="82px" viewBox="0 0 82 82" version="1.1" xmlns="http://www.w3.org/2000/svg" xmlns:xlink="http://www.w3.org/1999/xlink">
    <!-- Generator: sketchtool 51.3 (57544) - http://www.bohemiancoding.com/sketch -->
    <title>14A44628-294B-4A31-9DD0-5B559C7CD837</title>
    <desc>Created with sketchtool.</desc>
    <defs></defs>
    <g id="Homepage" stroke="none" stroke-width="1" fill="none" fill-rule="evenodd">
        <g transform="translate(-434.000000, -4381.000000)" fill-rule="nonzero" id="3rd-Section">
            <g transform="translate(-15.000000, 3515.000000)">
                <g id="Group-42" transform="translate(0.000000, 737.000000)">
                    <g id="paypal-ico-big" transform="translate(450.000000, 130.000000)">
                        <circle id="Oval-3-Copy" stroke="#DFE4EB" fill="#FFFFFF" cx="40" cy="40" r="40"></circle>
                        <g id="logo-paypal" transform="translate(28.000000, 26.000000)">
                            <path d="M22.2193761,7.26074972 C22.2176072,7.27258419 22.2171711,7.27530049 22.2139725,7.29643261 C22.2139725,7.29643261 22.2165774,7.27922537 22.2193761,7.26074972 Z" id="Shape" fill="#444444"></path>
                            <path d="M22.2193761,7.26074972 C22.2276754,7.20590912 22.224283,7.22816605 22.2193761,7.26074972 Z" id="Shape" fill="#444444"></path>
                            <path d="M20.9882061,2.1654559 C19.6417797,0.649806688 17.2079115,0 14.0943785,0 L5.05790703,0 C4.42090152,0 3.87956133,0.457559446 3.77986149,1.07797741 L0.0172436581,24.6466206 C-0.0575221334,25.1112999 0.306832371,25.5323508 0.783753553,25.5323508 L6.36251012,25.5323508 L7.76362663,16.755174 L7.72017984,17.0300352 C7.81992814,16.4096172 8.35718535,15.9520578 8.99341546,15.9520578 L11.644457,15.9520578 C16.8523772,15.9520578 20.930269,13.8628139 22.1214694,7.81909957 C22.1568108,7.64038597 22.2139604,7.29642064 22.2139604,7.29642064 C22.5518301,5.06004171 22.2115736,3.54215484 20.9882061,2.1654559 Z" id="Shape" fill="#006FBA"></path>
                            <path d="M23.6260416,8.44092953 C22.330707,14.391069 18.1990701,17.5405326 11.6445176,17.5405326 L9.26691456,17.5405326 L7.49393184,28.7186221 L11.3502159,28.7186221 C11.9068097,28.7186221 12.3805445,28.3182725 12.4673896,27.77567 L12.5132353,27.5389688 L13.3995813,21.9909737 L13.4567188,21.6843546 C13.5435639,21.1417521 14.0172986,20.7414145 14.5738925,20.7414145 L15.2776674,20.7414145 C19.8333163,20.7414145 23.4004479,18.9135101 24.4428558,13.6269024 C24.860604,11.5059843 24.6604047,9.72657848 23.6260416,8.44092953 Z" id="Shape" fill="#006FBA"></path>
                        </g>
                    </g>
                </g>
            </g>
        </g>
    </g>
</svg>