<?xml version="1.0" encoding="UTF-8"?>
<svg width="92px" height="92px" viewBox="0 0 92 92" version="1.1" xmlns="http://www.w3.org/2000/svg" xmlns:xlink="http://www.w3.org/1999/xlink">
    <!-- Generator: sketchtool 51.3 (57544) - http://www.bohemiancoding.com/sketch -->
    <title>5E68605B-3DD8-41B0-B697-3DCEE589B882</title>
    <desc>Created with sketchtool.</desc>
    <defs></defs>
    <g id="Homepage" stroke="none" stroke-width="1" fill="none" fill-rule="evenodd">
        <g transform="translate(-554.000000, -4616.000000)" id="3rd-Section">
            <g transform="translate(-15.000000, 3515.000000)">
                <g id="Group-42" transform="translate(0.000000, 737.000000)">
                    <g id="dribbble-ico-big" transform="translate(570.000000, 365.000000)">
                        <circle id="Oval-3-Copy-3" stroke="#DFE4EB" fill="#FFFFFF" fill-rule="nonzero" cx="45" cy="45" r="45"></circle>
                        <g id="dribbble-ball-icon" transform="translate(25.000000, 25.000000)">
                            <rect id="Rectangle-path" fill-opacity="0" fill="#000000" fill-rule="nonzero" x="0" y="0" width="40" height="40"></rect>
                            <circle id="Oval" fill="#EA4C89" fill-rule="nonzero" cx="20" cy="20" r="19.2"></circle>
                            <path d="M20,0 C8.9588,0 0,8.9588 0,20 C0,31.0412 8.9588,40 20,40 C31.01952,40 40,31.0412 40,20 C40,8.9588 31.01952,0 20,0 Z M33.2104,9.21908 C35.59652,12.1258 37.0282,15.83516 37.0716,19.84816 C36.5076,19.73968 30.86768,18.59004 25.1844,19.30584 C25.05424,19.02388 24.94576,18.72016 24.81564,18.41648 C24.46856,17.5922 24.07808,16.7462 23.68764,15.9436 C29.97832,13.38396 32.84164,9.69632 33.2104,9.21908 Z M20,2.950108 C24.3384,2.950108 28.30804,4.577 31.3232,7.24512 C31.01952,7.67896 28.43816,11.128 22.36444,13.40564 C19.56616,8.26464 16.4642,4.0564 15.987,3.40564 C17.2668,3.101952 18.61172,2.950108 20,2.950108 Z M12.7332,4.55532 C13.18872,5.16268 16.2256,9.39264 19.06724,14.42516 C11.0846,16.55096 4.03472,16.5076 3.275488,16.5076666 C4.38176,11.21476 7.96096,6.81128 12.7332,4.55532 Z M2.906724,20.02168 C2.906724,19.84816 2.906724,19.67464 2.906724,19.50108 C3.644252,19.52276 11.9306,19.63124 20.45552,17.0716 C20.95444,18.02604 21.40996,19.00216 21.8438,19.97832 C21.62688,20.0434 21.38828,20.10848 21.17136,20.17352 C12.36444,23.0152 7.67896,30.78092 7.28852,31.43168 C4.577,28.41648 2.906724,24.40348 2.906724,20.02168 Z M20,37.09328 C16.05208,37.09328 12.4078,35.74836 9.52276,33.4924 C9.82648,32.86336 13.2972,26.1822 22.9284,22.81996 C22.9718,22.79828 22.99348,22.79828 23.03688,22.77656 C25.44468,29.00216 26.42084,34.22992 26.68112,35.72668 C24.6204,36.61604 22.36444,37.09328 20,37.09328 Z M29.5228,34.16488 C29.34924,33.12364 28.4382,28.13448 26.20392,21.99568 C31.56184,21.14968 36.24728,22.53796 36.83296,22.7332 C36.09544,27.48372 33.36224,31.58352 29.5228,34.16488 Z" id="Shape" fill="#C32361"></path>
                        </g>
                    </g>
                </g>
            </g>
        </g>
    </g>
</svg>