<?xml version="1.0" encoding="UTF-8"?>
<svg width="82px" height="82px" viewBox="0 0 82 82" version="1.1" xmlns="http://www.w3.org/2000/svg" xmlns:xlink="http://www.w3.org/1999/xlink">
    <!-- Generator: sketchtool 51.3 (57544) - http://www.bohemiancoding.com/sketch -->
    <title>15614D54-3560-47C3-A91B-1E5B175FC168</title>
    <desc>Created with sketchtool.</desc>
    <defs></defs>
    <g id="Homepage" stroke="none" stroke-width="1" fill="none" fill-rule="evenodd">
        <g transform="translate(-434.000000, -4621.000000)" id="3rd-Section">
            <g transform="translate(-15.000000, 3515.000000)">
                <g id="Group-42" transform="translate(0.000000, 737.000000)">
                    <g id="intercom-ico-big" transform="translate(450.000000, 370.000000)">
                        <circle id="Oval-3-Copy-3" stroke="#DFE4EB" fill="#FFFFFF" fill-rule="nonzero" cx="40" cy="40" r="40"></circle>
                        <path d="M54.9998507,42.0454545 C54.9998507,42.7985227 54.3892863,43.4090909 53.6362228,43.4090909 C52.8831592,43.4090909 52.2725948,42.7985227 52.2725948,42.0454545 L52.2725948,29.7809091 C52.2725948,29.0278409 52.8831592,28.4172727 53.6362228,28.4172727 C54.3892863,28.4172727 54.9998507,29.0278409 54.9998507,29.7809091 L54.9998507,42.0454545 Z M54.5239446,50.5807955 C54.3132641,50.7611364 49.2617043,55 39.9999431,55 C30.7381819,55 25.6866221,50.7611364 25.4759416,50.5807955 C24.9045815,50.0905682 24.8381046,49.2297727 25.3283289,48.6577273 C25.8171895,48.0870455 26.6759342,48.0195455 27.2479761,48.5073864 C27.3280893,48.5742045 31.8386297,52.2727273 39.9999431,52.2727273 C48.2635286,52.2727273 52.7048649,48.5476136 52.748501,48.5101136 C53.3191793,48.0198864 54.181674,48.0856818 54.6715573,48.6577273 C55.1617816,49.2297727 55.0956456,50.0905682 54.5239446,50.5807955 Z M25.0000354,29.7809091 C25.0000354,29.0278409 25.6105998,28.4172727 26.3636634,28.4172727 C27.1167269,28.4172727 27.7272914,29.0278409 27.7272914,29.7809091 L27.7272914,42.0454545 C27.7272914,42.7985227 27.1167269,43.4090909 26.3636634,43.4090909 C25.6105998,43.4090909 25.0000354,42.7985227 25.0000354,42.0454545 L25.0000354,29.7809091 Z M31.8181753,27.0536364 C31.8181753,26.3005682 32.4287397,25.69 33.1818032,25.69 C33.9348668,25.69 34.5454312,26.3005682 34.5454312,27.0536364 L34.5454312,45.2711364 C34.5454312,46.0242045 33.9348668,46.6347727 33.1818032,46.6347727 C32.4287397,46.6347727 31.8181753,46.0242045 31.8181753,45.2711364 L31.8181753,27.0536364 Z M38.6363151,26.3636364 C38.6363151,25.6105682 39.2468795,25 39.9999431,25 C40.7530066,25 41.3635711,25.6105682 41.3635711,26.3636364 L41.3635711,46.1363636 C41.3635711,46.8894318 40.7530066,47.5 39.9999431,47.5 C39.2468795,47.5 38.6363151,46.8894318 38.6363151,46.1363636 L38.6363151,26.3636364 Z M45.454455,27.0536364 C45.454455,26.3005682 46.0650194,25.69 46.8180829,25.69 C47.5711465,25.69 48.1817109,26.3005682 48.1817109,27.0536364 L48.1817109,45.2711364 C48.1817109,46.0242045 47.5711465,46.6347727 46.8180829,46.6347727 C46.0650194,46.6347727 45.454455,46.0242045 45.454455,45.2711364 L45.454455,27.0536364 Z" id="intercom" fill="#1F8DED"></path>
                    </g>
                </g>
            </g>
        </g>
    </g>
</svg>