<?xml version="1.0" encoding="UTF-8"?>
<svg width="52px" height="52px" viewBox="0 0 52 52" version="1.1" xmlns="http://www.w3.org/2000/svg" xmlns:xlink="http://www.w3.org/1999/xlink">
    <!-- Generator: sketchtool 51.3 (57544) - http://www.bohemiancoding.com/sketch -->
    <title>554E85E5-3644-4990-AB66-608E95729B4C</title>
    <desc>Created with sketchtool.</desc>
    <defs></defs>
    <g id="Homepage" stroke="none" stroke-width="1" fill="none" fill-rule="evenodd">
        <g transform="translate(-134.000000, -4516.000000)" fill-rule="nonzero" id="3rd-Section">
            <g transform="translate(-15.000000, 3515.000000)">
                <g id="Group-42" transform="translate(0.000000, 737.000000)">
                    <g id="mockups-ico-big" transform="translate(150.000000, 265.000000)">
                        <circle id="Oval-3-Copy-2" stroke="#DFE4EB" fill="#FFFFFF" cx="25" cy="25" r="25"></circle>
                        <path d="M35.9915966,29.7 C35.5882353,29.7 35.3865546,29.6 35.2857143,29.5 C35.1848739,29.4 35.0840336,29.2 35.0840336,28.8 C35.0840336,28.5 35.1848739,28.1 35.2857143,27.5 L36.1932773,23 L36.394958,22.3 C36.4957983,21.9 36.4957983,21.6 36.5966387,21.2 C36.5966387,20.9 36.697479,20.6 36.697479,20.2 C36.697479,19.1 36.394958,18.3 35.789916,17.8 C35.0840336,17.3 34.3781513,17 33.4705882,17 C32.5630252,17 31.7563025,17.2 31.0504202,17.5 C30.2436975,17.8 29.4369748,18.4 28.6302521,19.3 C28.5294118,18.5 28.2268908,17.9 27.7226891,17.6 C27.1176471,17.2 26.512605,17 25.7058824,17 C23.9915966,17 22.3781513,17.7 20.8655462,19.2 C20.7647059,18.7 20.4621849,18.2 20.0588235,17.9 C19.3529412,17.3 18.4453782,17 17.2352941,17 C16.3277311,17 15.5210084,17.2 14.8151261,17.6 C14.4117647,17.7 14.1092437,17.9 13.8067227,18.1 L13,21.7 L13.2016807,21.5 C13.4033613,21.2 13.7058824,21 14.0084034,20.7 C14.3109244,20.5 14.6134454,20.3 14.9159664,20.2 C15.2184874,20.1 15.6218487,20 15.9243697,20 C16.1260504,20 16.3277311,20.1 16.5294118,20.3 C16.7310924,20.5 16.8319328,20.8 16.8319328,21.2 C16.8319328,21.4 16.8319328,21.7 16.7310924,22.1 L16.7310924,22.3 L14.512605,32.6 L18.4453782,32.6 L20.5630252,22.6 C21.0672269,21.8 21.6722689,21.3 22.1764706,20.9 C22.6806723,20.5 23.2857143,20.3 23.789916,20.3 C24.092437,20.3 24.394958,20.4 24.4957983,20.5 C24.5966387,20.6 24.697479,20.8 24.697479,21.1 C24.697479,21.5 24.5966387,22 24.4957983,22.6 L22.3781513,32.6 L26.1092437,32.6 L28.2268908,22.6 C28.6302521,21.9 29.2352941,21.3 29.7394958,20.9 C30.3445378,20.5 30.8487395,20.3 31.3529412,20.3 C31.7563025,20.3 31.9579832,20.4 32.0588235,20.5 C32.1596639,20.6 32.2605042,20.8 32.2605042,21.2 C32.2605042,21.5 32.1596639,21.9 32.0588235,22.5 L31.6554622,24.7 L30.9495798,27.8 C30.8487395,28.2 30.8487395,28.5 30.7478992,28.9 C30.7478992,29.2 30.6470588,29.5 30.6470588,29.9 C30.6470588,31 30.9495798,31.8 31.5546218,32.3 C32.1596639,32.8 32.8655462,33 33.7731092,33 C34.6806723,33 35.487395,32.8 36.1932773,32.5 L36.2941176,32.5 L37,29.4 C36.8991597,29.5 36.394958,29.7 35.9915966,29.7 Z" id="Shape" fill="#016AE5"></path>
                    </g>
                </g>
            </g>
        </g>
    </g>
</svg>