<?xml version="1.0" encoding="UTF-8"?>
<svg width="102px" height="102px" viewBox="0 0 102 102" version="1.1" xmlns="http://www.w3.org/2000/svg" xmlns:xlink="http://www.w3.org/1999/xlink">
    <!-- Generator: sketchtool 51.3 (57544) - http://www.bohemiancoding.com/sketch -->
    <title>252F81A8-889B-41AE-84F3-4791662C02DD</title>
    <desc>Created with sketchtool.</desc>
    <defs></defs>
    <g id="Homepage" stroke="none" stroke-width="1" fill="none" fill-rule="evenodd">
        <g transform="translate(-684.000000, -4611.000000)" fill-rule="nonzero" id="3rd-Section">
            <g transform="translate(-15.000000, 3515.000000)">
                <g id="Group-42" transform="translate(0.000000, 737.000000)">
                    <g id="Group-82" transform="translate(700.000000, 0.000000)">
                        <g id="airtable-ico-big" transform="translate(0.000000, 360.000000)">
                            <circle id="Oval-3-Copy-3" stroke="#DFE4EB" fill="#FFFFFF" cx="50" cy="50" r="50"></circle>
                            <g id="Group-5" transform="translate(25.000000, 29.000000)">
                                <path d="M22.3161582,0.542584459 L3.68367232,8.47230743 C2.64751412,8.91334797 2.65824859,10.4270642 3.70090395,10.852125 L22.4113559,18.4834628 C24.0554237,19.1540304 25.8862147,19.1540304 27.53,18.4834628 L46.2407345,10.852125 C47.2831073,10.4270642 47.2941243,8.91334797 46.2576836,8.47230743 L27.6254802,0.542584459 C25.9254802,-0.180861486 24.0158757,-0.180861486 22.3161582,0.542584459" id="Shape" fill="#FCB400"></path>
                                <path d="M26.630678,22.650773 L26.630678,41.7148811 C26.630678,42.6216581 27.519661,43.2425432 28.3391525,42.9084216 L49.1883051,34.5850162 C49.6642938,34.3909351 49.9764407,33.9179351 49.9764407,33.3914757 L49.9764407,14.3273676 C49.9764407,13.4205905 49.0874576,12.7997054 48.2679661,13.133827 L27.4188136,21.4572324 C26.9431073,21.6513135 26.630678,22.1243135 26.630678,22.650773" id="Shape" fill="#18BFFF"></path>
                                <path d="M21.7622599,23.634427 L15.5746893,26.7071838 L14.9464407,27.0195149 L1.88485876,33.4564405 C1.05689266,33.8672649 0.00011299435,33.2466703 0.00011299435,32.3006703 L0.00011299435,14.4074405 C0.00011299435,14.0651838 0.170734463,13.7697041 0.399548023,13.54715 C0.495028249,13.4486568 0.603220339,13.3675959 0.715649718,13.3033865 C1.02779661,13.1107581 1.47299435,13.0593324 1.85152542,13.2133189 L21.6583051,21.2848257 C22.6650847,21.69565 22.7441808,23.1466095 21.7622599,23.634427" id="Shape" fill="#F82B60"></path>
                                <path d="M21.7622599,23.634427 L15.5746893,26.7071838 L0.399548023,13.54715 C0.495028249,13.4486568 0.603220339,13.3675959 0.715649718,13.3033865 C1.02779661,13.1107581 1.47299435,13.0593324 1.85152542,13.2133189 L21.6583051,21.2848257 C22.6650847,21.69565 22.7441808,23.1466095 21.7622599,23.634427" id="Shape" fill-opacity="0.18" fill="#000000"></path>
                            </g>
                        </g>
                    </g>
                </g>
            </g>
        </g>
    </g>
</svg>