<?xml version="1.0" encoding="UTF-8"?>
<svg width="62px" height="62px" viewBox="0 0 62 62" version="1.1" xmlns="http://www.w3.org/2000/svg" xmlns:xlink="http://www.w3.org/1999/xlink">
    <!-- Generator: sketchtool 51.3 (57544) - http://www.bohemiancoding.com/sketch -->
    <title>204539AC-24E1-4382-8B1B-BB9541ED035B</title>
    <desc>Created with sketchtool.</desc>
    <defs></defs>
    <g id="Homepage" stroke="none" stroke-width="1" fill="none" fill-rule="evenodd">
        <g transform="translate(-224.000000, -4271.000000)" fill-rule="nonzero" id="3rd-Section">
            <g transform="translate(-15.000000, 3515.000000)">
                <g id="Group-42" transform="translate(0.000000, 737.000000)">
                    <g id="kissmetrics-ico-big" transform="translate(240.000000, 20.000000)">
                        <circle id="Oval-3" stroke="#DFE4EB" fill="#FFFFFF" cx="30" cy="30" r="30"></circle>
                        <path d="M34.1956102,17.0000095 C29.5154601,16.9931792 25.6490165,20.6699221 25.3968969,25.3670283 C20.6138291,25.5749242 16.8791073,29.5973903 17.002995,34.4076443 C17.1268826,39.2178984 21.0636604,43.0407726 25.8510241,42.9996717 L39.4549701,42.9996717 C40.3923893,43.0034613 41.2928301,42.6324213 41.9578172,41.968336 C42.6228044,41.3042508 42.9977469,40.4016375 43,39.45945 L43,25.823463 C42.9890407,20.9449479 39.0494726,16.9968496 34.1956102,17.0000095 Z M24.732736,39.1028603 C22.9076832,38.6275633 21.4771206,37.203892 20.9861871,35.3743593 C20.9426707,35.1983503 20.9141843,35.0189285 20.9010383,34.8380485 L24.732736,34.8380485 L24.732736,39.1028603 Z M25.7914199,39.2626125 L25.7914199,30.9098573 L29.4045689,30.9098573 L29.4045689,39.2654652 L25.7914199,39.2626125 Z M34.2523761,39.2626125 L30.6534185,39.2626125 L30.6534185,24.0462203 L34.2523761,24.0462203 L34.2523761,39.2626125 Z M39.1626257,38.5009371 C39.1656573,38.7031737 39.0882337,38.8982581 38.9475453,39.0428751 C38.8068569,39.187492 38.6145475,39.2696728 38.4133159,39.2711706 L35.5154172,39.2711706 L35.5154172,26.9873715 L39.1626257,26.9873715 L39.1626257,38.5009371 Z" id="kissmetrics" fill="#3C59F6"></path>
                    </g>
                </g>
            </g>
        </g>
    </g>
</svg>