<?xml version="1.0" encoding="UTF-8"?>
<svg width="92px" height="92px" viewBox="0 0 92 92" version="1.1" xmlns="http://www.w3.org/2000/svg" xmlns:xlink="http://www.w3.org/1999/xlink">
    <!-- Generator: sketchtool 51.3 (57544) - http://www.bohemiancoding.com/sketch -->
    <title>C32D7DE9-ADDE-45C3-B795-179459F61EC4</title>
    <desc>Created with sketchtool.</desc>
    <defs></defs>
    <g id="Homepage" stroke="none" stroke-width="1" fill="none" fill-rule="evenodd">
        <g transform="translate(-554.000000, -4256.000000)" fill-rule="nonzero" id="3rd-Section">
            <g transform="translate(-15.000000, 3515.000000)">
                <g id="Group-42" transform="translate(0.000000, 737.000000)">
                    <g id="messenger-ico-big" transform="translate(570.000000, 5.000000)">
                        <circle id="Oval-3" stroke="#DFE4EB" fill="#FFFFFF" cx="45" cy="45" r="45"></circle>
                        <path d="M45,25 C33.9536156,25 25,33.2883333 25,43.5133333 C25,49.33 27.8975503,54.52 32.4299183,57.9133333 L32.4299183,65 L39.2554087,61.2516667 C41.0754272,61.7566667 43.0031989,62.0266667 45,62.0266667 C56.0463844,62.0266667 65,53.7383333 65,43.5133333 C65,33.2883333 56.0463844,25 45,25 Z M46.6024197,49.6306173 L41.4981107,44.3922486 L31.6666667,49.7619048 L42.4451993,38.4646208 L47.5495083,43.7029895 L57.3809524,38.3333333 L46.6024197,49.6306173 Z" id="Shape" fill="#0085FA"></path>
                    </g>
                </g>
            </g>
        </g>
    </g>
</svg>