<?xml version="1.0" encoding="UTF-8"?>
<svg width="102px" height="102px" viewBox="0 0 102 102" version="1.1" xmlns="http://www.w3.org/2000/svg" xmlns:xlink="http://www.w3.org/1999/xlink">
    <!-- Generator: sketchtool 51.3 (57544) - http://www.bohemiancoding.com/sketch -->
    <title>81A2FC55-26B9-4DB6-BF6D-BB31CB1DEB40</title>
    <desc>Created with sketchtool.</desc>
    <defs></defs>
    <g id="Homepage" stroke="none" stroke-width="1" fill="none" fill-rule="evenodd">
        <g transform="translate(-684.000000, -4491.000000)" fill-rule="nonzero" id="3rd-Section">
            <g transform="translate(-15.000000, 3515.000000)">
                <g id="Group-42" transform="translate(0.000000, 737.000000)">
                    <g id="Group-82" transform="translate(700.000000, 0.000000)">
                        <g id="spotify-ico-big" transform="translate(0.000000, 240.000000)">
                            <circle id="Oval-3-Copy-2" stroke="#DFE4EB" fill="#FFFFFF" cx="50" cy="50" r="50"></circle>
                            <path d="M50,25 C36.1995968,25 25,36.1995968 25,50 C25,63.8004032 36.1995968,75 50,75 C63.8004032,75 75,63.8004032 75,50 C75,36.1995968 63.8004032,25 50,25 Z M60.1512097,61.7842742 C59.7278226,61.7842742 59.4657258,61.6532258 59.0725806,61.421371 C52.7822581,57.6310484 45.4637097,57.4697581 38.2358871,58.9516129 C37.8427419,59.0524194 37.328629,59.2137097 37.0362903,59.2137097 C36.0584677,59.2137097 35.4435484,58.4375 35.4435484,57.6209677 C35.4435484,56.5826613 36.0584677,56.0887097 36.8145161,55.9274194 C45.0705645,54.1028226 53.5080645,54.2641129 60.7056452,58.5685484 C61.3205645,58.9616935 61.6834677,59.3145161 61.6834677,60.2318548 C61.6834677,61.1491935 60.9677419,61.7842742 60.1512097,61.7842742 Z M62.8629032,55.171371 C62.3387097,55.171371 61.9858871,54.9395161 61.6229839,54.7479839 C55.3225806,51.0181452 45.9274194,49.516129 37.5705645,51.7842742 C37.0866935,51.9153226 36.8245968,52.046371 36.3709677,52.046371 C35.2923387,52.046371 34.4153226,51.1693548 34.4153226,50.0907258 C34.4153226,49.0120968 34.9395161,48.296371 35.9778226,48.0040323 C38.7802419,47.2177419 41.6431452,46.6330645 45.8366935,46.6330645 C52.3790323,46.6330645 58.6995968,48.2560484 63.6794355,51.2197581 C64.4959677,51.703629 64.8185484,52.328629 64.8185484,53.2056452 C64.8084677,54.2943548 63.9616935,55.171371 62.8629032,55.171371 Z M65.9879032,47.4899194 C65.4637097,47.4899194 65.141129,47.358871 64.6875,47.0967742 C57.5100806,42.8125 44.6774194,41.7842742 36.3709677,44.1028226 C36.0080645,44.203629 35.5544355,44.3649194 35.0705645,44.3649194 C33.7399194,44.3649194 32.7217742,43.3266129 32.7217742,41.9858871 C32.7217742,40.6149194 33.5685484,39.8387097 34.4758065,39.5766129 C38.0241935,38.5383065 41.9959677,38.0443548 46.3205645,38.0443548 C53.6794355,38.0443548 61.391129,39.5766129 67.0262097,42.8629032 C67.8125,43.3165323 68.3266129,43.9415323 68.3266129,45.141129 C68.3266129,46.5120968 67.2177419,47.4899194 65.9879032,47.4899194 Z" id="Shape" fill="#1ED761"></path>
                        </g>
                    </g>
                </g>
            </g>
        </g>
    </g>
</svg>