<?xml version="1.0" encoding="UTF-8"?>
<svg width="102px" height="102px" viewBox="0 0 102 102" version="1.1" xmlns="http://www.w3.org/2000/svg" xmlns:xlink="http://www.w3.org/1999/xlink">
    <!-- Generator: Sketch 55.2 (78181) - https://sketchapp.com -->
    <title>slack-ico-big</title>
    <desc>Created with Sketch.</desc>
    <g id="Homepage" stroke="none" stroke-width="1" fill="none" fill-rule="evenodd">
        <g id="Group-23" transform="translate(-699.000000, 1.000000)" fill-rule="nonzero">
            <g id="Group-82" transform="translate(700.000000, 0.000000)">
                <g id="slack-ico-big">
                    <circle id="Oval-3" stroke="#DFE4EB" fill="#FFFFFF" cx="50" cy="50" r="50"></circle>
                    <g id="Slack_Mark-4" transform="translate(25.000000, 25.000000)">
                        <g id="Group" transform="translate(0.000000, 26.209677)" fill="#E01E5A">
                            <path d="M10.6451613,5.32258065 C10.6451613,8.18548387 8.30645161,10.5241935 5.44354839,10.5241935 C2.58064516,10.5241935 0.241935484,8.18548387 0.241935484,5.32258065 C0.241935484,2.45967742 2.58064516,0.120967742 5.44354839,0.120967742 L10.6451613,0.120967742 L10.6451613,5.32258065 Z" id="Shape"></path>
                            <path d="M13.266129,5.32258065 C13.266129,2.45967742 15.6048387,0.120967742 18.4677419,0.120967742 C21.3306452,0.120967742 23.6693548,2.45967742 23.6693548,5.32258065 L23.6693548,18.3467742 C23.6693548,21.2096774 21.3306452,23.5483871 18.4677419,23.5483871 C15.6048387,23.5483871 13.266129,21.2096774 13.266129,18.3467742 L13.266129,5.32258065 Z" id="Shape"></path>
                        </g>
                        <g id="Group" fill="#36C5F0">
                            <path d="M18.4677419,10.6451613 C15.6048387,10.6451613 13.266129,8.30645161 13.266129,5.44354839 C13.266129,2.58064516 15.6048387,0.241935484 18.4677419,0.241935484 C21.3306452,0.241935484 23.6693548,2.58064516 23.6693548,5.44354839 L23.6693548,10.6451613 L18.4677419,10.6451613 Z" id="Shape"></path>
                            <path d="M18.4677419,13.266129 C21.3306452,13.266129 23.6693548,15.6048387 23.6693548,18.4677419 C23.6693548,21.3306452 21.3306452,23.6693548 18.4677419,23.6693548 L5.44354839,23.6693548 C2.58064516,23.6693548 0.241935484,21.3306452 0.241935484,18.4677419 C0.241935484,15.6048387 2.58064516,13.266129 5.44354839,13.266129 L18.4677419,13.266129 Z" id="Shape"></path>
                        </g>
                        <g id="Group" transform="translate(26.209677, 0.000000)" fill="#2EB67D">
                            <path d="M13.1451613,18.4677419 C13.1451613,15.6048387 15.483871,13.266129 18.3467742,13.266129 C21.2096774,13.266129 23.5483871,15.6048387 23.5483871,18.4677419 C23.5483871,21.3306452 21.2096774,23.6693548 18.3467742,23.6693548 L13.1451613,23.6693548 L13.1451613,18.4677419 Z" id="Shape"></path>
                            <path d="M10.5241935,18.4677419 C10.5241935,21.3306452 8.18548387,23.6693548 5.32258065,23.6693548 C2.45967742,23.6693548 0.120967742,21.3306452 0.120967742,18.4677419 L0.120967742,5.44354839 C0.120967742,2.58064516 2.45967742,0.241935484 5.32258065,0.241935484 C8.18548387,0.241935484 10.5241935,2.58064516 10.5241935,5.44354839 L10.5241935,18.4677419 Z" id="Shape"></path>
                        </g>
                        <g id="Group" transform="translate(26.209677, 26.209677)" fill="#ECB22E">
                            <path d="M5.32258065,13.1451613 C8.18548387,13.1451613 10.5241935,15.483871 10.5241935,18.3467742 C10.5241935,21.2096774 8.18548387,23.5483871 5.32258065,23.5483871 C2.45967742,23.5483871 0.120967742,21.2096774 0.120967742,18.3467742 L0.120967742,13.1451613 L5.32258065,13.1451613 Z" id="Shape"></path>
                            <path d="M5.32258065,10.5241935 C2.45967742,10.5241935 0.120967742,8.18548387 0.120967742,5.32258065 C0.120967742,2.45967742 2.45967742,0.120967742 5.32258065,0.120967742 L18.3467742,0.120967742 C21.2096774,0.120967742 23.5483871,2.45967742 23.5483871,5.32258065 C23.5483871,8.18548387 21.2096774,10.5241935 18.3467742,10.5241935 L5.32258065,10.5241935 Z" id="Shape"></path>
                        </g>
                    </g>
                </g>
            </g>
        </g>
    </g>
</svg>