<?xml version="1.0" encoding="UTF-8"?>
<svg width="72px" height="72px" viewBox="0 0 72 72" version="1.1" xmlns="http://www.w3.org/2000/svg" xmlns:xlink="http://www.w3.org/1999/xlink">
    <!-- Generator: sketchtool 51.3 (57544) - http://www.bohemiancoding.com/sketch -->
    <title>033120AD-FB01-47EB-B166-5053BAF0D688</title>
    <desc>Created with sketchtool.</desc>
    <defs></defs>
    <g id="Homepage" stroke="none" stroke-width="1" fill="none" fill-rule="evenodd">
        <g transform="translate(-324.000000, -4626.000000)" fill-rule="nonzero" id="3rd-Section">
            <g transform="translate(-15.000000, 3515.000000)">
                <g id="Group-42" transform="translate(0.000000, 737.000000)">
                    <g id="whatsapp" transform="translate(340.000000, 375.000000)">
                        <circle id="Oval-3-Copy-3" stroke="#DFE4EB" fill="#FFFFFF" cx="35" cy="35" r="35"></circle>
                        <path d="M21,49 L22.977845,41.8101717 C21.7578628,39.7061583 21.1159019,37.3191233 21.1168981,34.8737667 C21.1199802,27.2237467 27.3741146,21 35.0584602,21 C38.7879128,21.0014817 42.2883507,22.4465033 44.9204732,25.0690183 C47.5526661,27.691545 49.0014404,31.1775333 48.9999989,34.8848383 C48.9968816,42.5348583 42.7421964,48.7594217 35.0586477,48.7594217 L35.0586126,48.7594217 L35.0529054,48.7594217 C32.7195614,48.758465 30.4269061,48.1759483 28.390618,47.0706483 L21,49 Z M28.7330151,44.55871 L29.1561568,44.8086683 C30.935234,45.859415 32.9746277,46.415285 35.0538546,46.41609 L35.0586008,46.41609 C41.4453604,46.41609 46.6435331,41.2427983 46.6461231,34.8839633 C46.6473067,31.802575 45.443157,28.9051467 43.2553877,26.7253933 C41.0676185,24.54564 38.1582102,23.3445217 35.0631947,23.3433433 C28.6715366,23.3433433 23.473317,28.5162617 23.4707622,34.874665 C23.4698716,37.0536017 24.0825112,39.17578 25.242433,41.0118917 L25.5179843,41.4481667 L24.3473512,45.7036533 L28.7330151,44.55871 Z M31.5741361,29.073835 C31.8644418,29.7679433 32.5610956,31.4743333 32.648192,31.6478517 C32.7352767,31.8213817 32.7933449,32.0238333 32.6772202,32.2552183 C32.5611191,32.4865683 32.5030509,32.6311767 32.3288933,32.8336283 C32.1547123,33.03608 31.9630698,33.285665 31.8063853,33.4409833 C31.6320051,33.61379 31.4504175,33.8014483 31.6536151,34.1485083 C31.8568126,34.4955683 32.5559861,35.6309567 33.5915096,36.5501617 C34.9220498,37.7312483 36.0444822,38.09736 36.3928443,38.2708667 C36.7411712,38.44442 36.9443805,38.415475 37.1475546,38.18409 C37.3507639,37.95274 38.0183544,37.1718317 38.2505567,36.8248067 C38.4827942,36.4777467 38.7149966,36.53559 39.0342953,36.651265 C39.3536291,36.7669283 41.0662708,37.60568 41.4146329,37.7791867 C41.7629598,37.95274 41.995209,38.0395167 42.0822585,38.18409 C42.1693549,38.32871 42.1693549,39.02283 41.8790844,39.8326367 C41.5887788,40.6424433 40.1970648,41.3816433 39.5278102,41.4811483 C38.9275928,41.5703983 38.1682066,41.6076033 37.3336657,41.3438083 C36.8277989,41.1839517 36.1789003,40.970685 35.3478049,40.61351 C31.8533789,39.1118233 29.5711888,35.6101083 29.3970312,35.3787233 C29.2228502,35.1473383 27.9746367,33.4988267 27.9746367,31.7924717 C27.9746367,30.0861167 28.8745115,29.2473767 29.1938102,28.900305 C29.5131324,28.5532567 29.890511,28.4665033 30.1227368,28.4665033 C30.3549625,28.4665033 30.5874227,28.4686267 30.7903741,28.4786833 C31.0042009,28.4892767 31.291401,28.39781 31.5741361,29.073835 Z" id="Combined-Shape" fill="#25D465"></path>
                    </g>
                </g>
            </g>
        </g>
    </g>
</svg>