<?xml version="1.0" encoding="UTF-8"?>
<svg width="72px" height="72px" viewBox="0 0 72 72" version="1.1" xmlns="http://www.w3.org/2000/svg" xmlns:xlink="http://www.w3.org/1999/xlink">
    <!-- Generator: sketchtool 51.3 (57544) - http://www.bohemiancoding.com/sketch -->
    <title>615A7EDE-30B2-4713-A86A-B8EB3EE9E410</title>
    <desc>Created with sketchtool.</desc>
    <defs></defs>
    <g id="Homepage" stroke="none" stroke-width="1" fill="none" fill-rule="evenodd">
        <g transform="translate(-324.000000, -4386.000000)" fill-rule="nonzero" id="3rd-Section">
            <g transform="translate(-15.000000, 3515.000000)">
                <g id="Group-42" transform="translate(0.000000, 737.000000)">
                    <g id="wechat-ico-big" transform="translate(340.000000, 135.000000)">
                        <circle id="Oval-3-Copy" stroke="#DFE4EB" fill="#FFFFFF" cx="35" cy="35" r="35"></circle>
                        <g id="wechat" transform="translate(21.000000, 23.000000)" fill="#56CA39">
                            <path d="M19.4293282,7.95185841 C16.8416794,8.08619469 14.5915267,8.86566372 12.764687,10.6266903 C10.9189313,12.4058761 10.0763664,14.5860531 10.3066718,17.288708 C9.29525191,17.1642478 8.37403053,17.0272566 7.44757252,16.9497345 C7.12760305,16.9229735 6.74789313,16.9609912 6.47687023,17.1129558 C5.57723664,17.6173805 4.71479389,18.1869027 3.69258015,18.8218407 C3.8801374,17.9788673 4.00154198,17.240708 4.21645802,16.5306903 C4.37451908,16.0088496 4.30131298,15.7184071 3.81751145,15.3785841 C0.711221374,13.1993628 -0.598152672,9.9380177 0.381740458,6.58035398 C1.28832061,3.47415929 3.51464122,1.59037168 6.53970992,0.608389381 C10.6686412,-0.731787611 15.3088397,0.635256637 17.819542,3.89267257 C18.7263359,5.06930973 19.2823817,6.3899469 19.4293282,7.95185841 Z M7.52003053,6.90562832 C7.5438626,6.29150442 7.00833588,5.73823009 6.37224427,5.71975221 C5.7209771,5.70074336 5.18534351,6.19529204 5.16632061,6.83299115 C5.14708397,7.47929204 5.64456489,7.99720354 6.30053435,8.01376991 C6.95083969,8.03012389 7.49598473,7.53493805 7.52003053,6.90562832 Z M13.7335725,5.71932743 C13.0951298,5.73100885 12.5556489,6.27132743 12.5669771,6.88789381 C12.578626,7.52697345 13.1078473,8.02693805 13.7643511,8.01907965 C14.4225649,8.01122124 14.9217557,7.5059469 14.9155573,6.85338053 C14.9101069,6.21281416 14.3832366,5.70753982 13.7335725,5.71932743 Z" id="Shape"></path>
                            <path d="M25.242855,23.9819469 C24.4234809,23.6193982 23.6718626,23.075469 22.8716183,22.9924248 C22.0744733,22.9096991 21.2365038,23.3666549 20.4024885,23.4513982 C17.8620763,23.7096637 15.5861679,23.0061239 13.7095267,21.2816283 C10.1403817,18.0012743 10.6503664,12.971469 14.7797252,10.2832566 C18.4497557,7.8940885 23.8320611,8.69054867 26.4196031,12.0056283 C28.6776641,14.8983717 28.4123053,18.7383717 25.6556947,21.168531 C24.8580153,21.8718584 24.5709618,22.4506195 25.0827634,23.3778053 C25.1772366,23.5489912 25.1880305,23.7657345 25.242855,23.9819469 Z M15.9158626,15.0086018 C16.4374962,15.0091327 16.8670076,14.603469 16.8867786,14.0915044 C16.9076183,13.5494867 16.468916,13.0948673 15.9227023,13.0926372 C15.3819389,13.0901947 14.928916,13.5511858 14.9477252,14.0851327 C14.9654656,14.595292 15.3979695,15.0079646 15.9158626,15.0086018 Z M21.9284885,13.0947611 C21.4223511,13.0912566 20.9923053,13.5029735 20.9716794,14.011115 C20.949771,14.5545133 21.3747939,15.0007434 21.9159847,15.0021239 C22.4394351,15.003823 22.8530229,14.6104779 22.8720458,14.092885 C22.8923511,13.5482124 22.4671145,13.0984779 21.9284885,13.0947611 Z" id="Shape"></path>
                        </g>
                    </g>
                </g>
            </g>
        </g>
    </g>
</svg>