<?xml version="1.0" encoding="UTF-8"?>
<svg width="46px" height="46px" viewBox="0 0 46 46" version="1.1" xmlns="http://www.w3.org/2000/svg" xmlns:xlink="http://www.w3.org/1999/xlink">
    <!-- Generator: Sketch 63.1 (92452) - https://sketch.com -->
    <desc>Created with Sketch.</desc>
    <g id="Page-13-(2020-Q1)" stroke="none" stroke-width="1" fill="none" fill-rule="evenodd">
        <g id="leadpages" fill-rule="nonzero">
            <rect id="Rectangle-17-Copy-7" fill="#FFFFFF" x="0" y="0" width="46" height="46" rx="4"></rect>
            <g id="Unknown" transform="translate(10.000000, 13.000000)" fill="#020020">
                <path d="M4.85100671,4.78120805 L12.842953,8.96912752 C12.947651,9.02147651 13.0697987,9.02147651 13.1744966,8.96912752 L21.166443,4.78120805 C21.3234899,4.69395973 21.3234899,4.48456376 21.166443,4.39731544 L13.1744966,0.209395973 C13.0697987,0.15704698 12.947651,0.15704698 12.842953,0.209395973 L4.85100671,4.39731544 C4.69395973,4.48456376 4.69395973,4.69395973 4.85100671,4.78120805 Z M2.63489933,8.65503356 L12.842953,13.9946309 C12.947651,14.0469799 13.0697987,14.0469799 13.1744966,13.9946309 L23.3825503,8.65503356 C23.5395973,8.56778523 23.5395973,8.35838926 23.3825503,8.27114094 L20.4510067,6.73557047 L13.1744966,10.557047 C13.0697987,10.609396 12.947651,10.609396 12.842953,10.557047 L5.56644295,6.75302013 L2.63489933,8.2885906 C2.47785235,8.35838926 2.47785235,8.56778523 2.63489933,8.65503356 L2.63489933,8.65503356 Z M25.7208054,12.3718121 L22.5100671,10.6966443 L13.1744966,15.6 C13.0697987,15.652349 12.947651,15.652349 12.842953,15.6 L3.48993289,10.6966443 L0.279194631,12.3718121 C0.122147651,12.4590604 0.122147651,12.6684564 0.279194631,12.7557047 L12.8255034,19.3342282 C12.9302013,19.3865772 13.052349,19.3865772 13.157047,19.3342282 L25.7033557,12.7557047 C25.8778523,12.6684564 25.8778523,12.4590604 25.7208054,12.3718121 Z" id="Shape"></path>
            </g>
        </g>
    </g>
</svg>