<?xml version="1.0" encoding="UTF-8"?>
<svg width="46px" height="46px" viewBox="0 0 46 46" version="1.1" xmlns="http://www.w3.org/2000/svg" xmlns:xlink="http://www.w3.org/1999/xlink">
    <!-- Generator: Sketch 50.2 (55047) - http://www.bohemiancoding.com/sketch -->
    <title>messenger-icon</title>
    <desc>Created with Sketch.</desc>
    <defs></defs>
    <g id="Page-1" stroke="none" stroke-width="1" fill="none" fill-rule="evenodd">
        <g id="all-app-icons-for-left-bar" transform="translate(-836.000000, -656.000000)">
            <g id="messenger-icon" transform="translate(836.000000, 656.000000)">
                <rect id="Rectangle-7" fill="#0085F9" x="0" y="0" width="46" height="46" rx="2"></rect>
                <g id="messenger" transform="translate(10.000000, 10.000000)" fill="#FFFFFF" fill-rule="nonzero">
                    <path d="M4.59359398,16.0203203 C4.57209023,16.0406511 4.55039098,16.0607865 4.52888722,16.0813128 L4.54413534,16.0977338 C4.57404511,16.0789669 4.60415038,16.0602 4.63406015,16.0414331 C4.67042105,16.0218842 4.70697744,16.0027263 4.74314286,15.982982 C6.74396992,14.8823805 8.74499248,13.7817789 10.746015,12.6813729 C10.8730827,12.6115835 10.8730827,12.6115835 10.971218,12.7171474 C12.0010526,13.8220496 13.0304962,14.9271474 14.0603308,16.0320496 C14.0851579,16.0586361 14.1117444,16.0834632 14.1420451,16.1135684 C16.4632782,13.6332075 18.7766917,11.1614481 21.0901053,8.68949323 L21.0734887,8.66857594 C19.0022857,9.8219594 16.9310827,10.9753429 14.8559699,12.1308767 C13.7383609,10.9604857 12.627594,9.79674135 11.5115489,8.6277188 C11.4755789,8.66525263 11.4472331,8.69438045 11.4192782,8.72409474 C9.58090226,10.6885609 7.74213534,12.6526361 5.90395489,14.6172977 C5.46664662,15.0845158 5.03031579,15.5525158 4.59359398,16.0203203 M12.7718647,0.0207413534 L12.9575789,0.0207413534 C13.0619699,0.026606015 13.1663609,0.032275188 13.2705564,0.0381398496 C13.3659549,0.0387263158 13.4615489,0.039312782 13.5571429,0.0398992481 L13.5569474,0.0408766917 C13.6605564,0.0471323308 13.7643609,0.0533879699 13.8681654,0.059643609 C13.8808722,0.0604255639 13.8935789,0.0612075188 13.9064812,0.0619894737 C13.9760752,0.0684406015 14.0460602,0.0746962406 14.1156541,0.0811473684 C14.1217143,0.0819293233 14.1277744,0.0823203008 14.1340301,0.082124812 C14.196782,0.0883804511 14.2593383,0.0950270677 14.3222857,0.101478195 C14.3283459,0.102455639 14.334406,0.102846617 14.3406617,0.102651128 C14.3965714,0.108711278 14.4524812,0.114966917 14.5081955,0.121027068 C14.595188,0.135688722 14.6821805,0.151914286 14.7695639,0.164621053 C14.9382707,0.189252632 15.1085414,0.205869173 15.2760752,0.236756391 C15.5180902,0.281523308 15.7599098,0.32863609 15.998797,0.388064662 C16.3250677,0.468996992 16.6515338,0.551493233 16.9719398,0.652365414 C18.4289173,1.11117744 19.7693835,1.79851579 20.9847368,2.72610977 C21.9680451,3.47659098 22.8229173,4.35257594 23.5432932,5.35895188 C24.0634887,6.08597444 24.4945414,6.86245564 24.8356692,7.68898195 C25.0522707,8.21386917 25.2289925,8.75185414 25.3623158,9.30352331 C25.444812,9.64386917 25.5237895,9.98538797 25.5550677,10.3362902 C25.5726617,10.5362752 25.6172331,10.7339143 25.6334586,10.9338992 C25.6565263,11.2183353 25.6649323,11.5037489 25.6793985,11.7887714 C25.6793985,11.9680346 25.679203,12.1474932 25.679203,12.3269519 C25.6754887,12.8496887 25.610391,13.3667564 25.5253534,13.8810872 C25.4119699,14.5666662 25.2307519,15.2356286 24.9822857,15.8844556 C24.8499398,16.2298842 24.7060602,16.5723805 24.5445865,16.9051023 C23.8021203,18.434997 22.7660301,19.7381248 21.4673985,20.8316887 C20.0264511,22.0450872 18.3927519,22.897418 16.5811579,23.4105759 C15.9598947,23.5865158 15.3292481,23.7186662 14.6888271,23.8007714 C14.4841504,23.8269669 14.2786917,23.8457338 14.0736241,23.868215 C13.9969925,23.8744707 13.9203609,23.8807263 13.8437293,23.886982 C13.8376692,23.8879594 13.8318045,23.8885459 13.8257444,23.8885459 C13.7285865,23.8948015 13.6316241,23.9012526 13.5346617,23.9078992 L13.5364211,23.9106361 C13.4472782,23.9112226 13.3579398,23.911809 13.268797,23.9123955 C13.121985,23.911809 12.9749774,23.9110271 12.8281654,23.9108316 C12.6641504,23.9104406 12.5001353,23.9108316 12.3361203,23.9108316 C12.2960451,23.9094632 12.2561654,23.9080947 12.2160902,23.9067263 C12.1187368,23.9006662 12.0215789,23.894606 11.9242256,23.8887414 C11.9046767,23.8877639 11.8851278,23.886982 11.8653835,23.8860045 C11.795594,23.8801398 11.7254135,23.8742752 11.6556241,23.8684105 L11.6173083,23.8654782 C11.5543609,23.859418 11.4918045,23.8531624 11.4290526,23.8471023 L11.2263308,23.8259895 C11.0943759,23.8119143 10.9616391,23.8033128 10.8308571,23.7827865 C10.66,23.7556135 10.4897293,23.7225759 10.3208271,23.6856286 C9.98517293,23.6119293 9.64971429,23.5376436 9.31640602,23.4547564 C9.22218045,23.4312977 9.14906767,23.4408767 9.06442105,23.487794 C7.696,24.2462902 6.32601504,25.0014632 4.95603008,25.757418 C4.9157594,25.7795083 4.87314286,25.7980797 4.8203609,25.8234932 L4.8203609,25.6837188 C4.8203609,24.2629068 4.8203609,22.8420947 4.82016541,21.4214782 C4.82016541,21.3769068 4.81703759,21.3323353 4.81547368,21.2877639 L4.80159398,21.2695835 C4.4546015,21.0041098 4.11855639,20.7255383 3.79893233,20.4276135 C2.76030075,19.4591624 1.91207519,18.3468316 1.2653985,17.0816286 C0.834932331,16.2392677 0.522736842,15.3540947 0.30593985,14.4352977 C0.242210526,14.1655233 0.205849624,13.8892977 0.159518797,13.6156135 C0.135082707,13.4721248 0.107909774,13.3282451 0.0965714286,13.182997 C0.0738947368,12.8989519 0.0613834586,12.6139293 0.0445714286,12.3292977 C0.0439849624,12.2866812 0.0430075188,12.2442602 0.0422255639,12.2016436 C0.0416390977,11.9959895 0.0410526316,11.7901398 0.0404661654,11.5846812 C0.0420300752,11.5557489 0.0433984962,11.5266211 0.0447669173,11.4976887 C0.0686165414,11.0175684 0.109473684,10.5388165 0.199398496,10.0661248 C0.252571429,9.78598947 0.312195489,9.50683158 0.377097744,9.22923759 C0.501819549,8.69711729 0.684015038,8.18239549 0.884977444,7.67529774 C0.990736842,7.40845564 1.12112782,7.1508015 1.25073684,6.89412481 C1.94393985,5.52042556 2.8773985,4.33087669 4.02784962,3.31198947 C5.14506767,2.32223008 6.4012782,1.5557188 7.78553383,0.998184962 C8.21873684,0.823613534 8.65858647,0.666049624 9.10899248,0.544455639 C9.50935338,0.436545865 9.91596992,0.350530827 10.3225865,0.268230075 C10.6195338,0.208215038 10.9211729,0.169899248 11.2208571,0.121809023 C11.2769624,0.115748872 11.3332632,0.109493233 11.3895639,0.103237594 C11.4642406,0.0958090226 11.5389173,0.0883804511 11.6137895,0.0811473684 C11.6835789,0.0746962406 11.7533684,0.0682451128 11.8229624,0.0619894737 C11.8358647,0.0610120301 11.8483759,0.0602300752 11.8612782,0.0592526316 C11.9584361,0.0531924812 12.055594,0.0473278195 12.1529474,0.0412676692 L12.1627218,0.0414631579 L12.1724962,0.0398992481 C12.2678947,0.039312782 12.3632932,0.0387263158 12.4588872,0.0381398496 C12.5632782,0.032275188 12.6674737,0.026606015 12.7718647,0.0207413534" id="Fill-1"></path>
                </g>
            </g>
        </g>
    </g>
</svg>