<?xml version="1.0" encoding="UTF-8"?>
<svg width="46px" height="46px" viewBox="0 0 46 46" version="1.1" xmlns="http://www.w3.org/2000/svg" xmlns:xlink="http://www.w3.org/1999/xlink">
    <!-- Generator: Sketch 51.3 (57544) - http://www.bohemiancoding.com/sketch -->
    <title>Office365Calendar</title>
    <desc>Created with Sketch.</desc>
    <defs></defs>
    <g id="Page-8" stroke="none" stroke-width="1" fill="none" fill-rule="evenodd">
        <g id="Office365Calendar" fill-rule="nonzero">
            <rect id="Rectangle-17-Copy-7" fill="#FFFFFF" x="0" y="0" width="46" height="46" rx="4"></rect>
            <g id="calendar" transform="translate(12.000000, 10.000000)" fill="#0178D7">
                <path d="M19.4117647,1.3 L19.4117647,7.15 L22,3.9 L22,26 L0,26 L0,7.15 L0,3.9 L2.58823529,3.9 L2.58823529,1.3 C2.58823529,2.01797017 3.1676315,2.6 3.88235294,2.6 C4.59707438,2.6 5.17647059,2.01797017 5.17647059,1.3 L5.17647059,7.15 L7.76470588,3.9 L16.8235294,3.9 L16.8235294,1.3 C16.8235294,2.01797017 17.4029256,2.6 18.1176471,2.6 C18.8323685,2.6 19.4117647,2.01797017 19.4117647,1.3 Z M1.29411765,9.1 L1.29411765,24.7 L20.7058824,24.7 L20.7058824,9.1 L1.29411765,9.1 Z M7.76470588,11.7 L10.3529412,11.7 L10.3529412,14.3 L7.76470588,14.3 L7.76470588,11.7 Z M11.6470588,11.7 L14.2352941,11.7 L14.2352941,14.3 L11.6470588,14.3 L11.6470588,11.7 Z M15.5294118,11.7 L18.1176471,11.7 L18.1176471,14.3 L15.5294118,14.3 L15.5294118,11.7 Z M15.5294118,15.6 L18.1176471,15.6 L18.1176471,18.2 L15.5294118,18.2 L15.5294118,15.6 Z M11.6470588,15.6 L14.2352941,15.6 L14.2352941,18.2 L11.6470588,18.2 L11.6470588,15.6 Z M11.6470588,19.5 L14.2352941,19.5 L14.2352941,22.1 L11.6470588,22.1 L11.6470588,19.5 Z M7.76470588,15.6 L10.3529412,15.6 L10.3529412,18.2 L7.76470588,18.2 L7.76470588,15.6 Z M7.76470588,19.5 L10.3529412,19.5 L10.3529412,22.1 L7.76470588,22.1 L7.76470588,19.5 Z M3.88235294,15.6 L6.47058824,15.6 L6.47058824,18.2 L3.88235294,18.2 L3.88235294,15.6 Z M3.88235294,19.5 L6.47058824,19.5 L6.47058824,22.1 L3.88235294,22.1 L3.88235294,19.5 Z" id="Combined-Shape"></path>
            </g>
        </g>
    </g>
</svg>