<?xml version="1.0" encoding="UTF-8"?>
<svg width="62px" height="56px" viewBox="0 0 62 56" version="1.1" xmlns="http://www.w3.org/2000/svg" xmlns:xlink="http://www.w3.org/1999/xlink">
    <!-- Generator: Sketch 55.2 (78181) - https://sketchapp.com -->
    <title>outlook</title>
    <desc>Created with Sketch.</desc>
    <g id="Page-1" stroke="none" stroke-width="1" fill="none" fill-rule="evenodd">
        <g id="outlook" transform="translate(0.000000, -3.000000)">
            <path d="M55.40475,3.875 L22.09525,3.875 C20.5928974,3.875 19.375,5.09289741 19.375,6.59525 L19.375,9.6875 L38.149375,15.5 L58.125,9.6875 L58.125,6.59525 C58.125,5.09289741 56.9071026,3.875 55.40475,3.875 Z" id="Path" fill="#0364B8" fill-rule="nonzero"></path>
            <path d="M61.321875,33.7221875 C61.60567,32.8301624 61.8321731,31.9209139 62,31 C61.9994654,30.5395285 61.7535929,30.1142356 61.3548125,29.884 L61.329625,29.8685 L61.321875,29.864625 L40.32325,17.9025 C40.2326666,17.8437147 40.1388751,17.7900272 40.0423125,17.7416875 C39.2281741,17.33751 38.2718259,17.33751 37.4576875,17.7416875 C37.3611523,17.7893656 37.2673599,17.8424068 37.17675,17.9005625 L16.178125,29.8665625 L16.170375,29.8704375 L16.147125,29.884 C15.7475987,30.1137431 15.5009341,30.5391288 15.5,31 C15.6678423,31.9209106 15.8943453,32.8301581 16.178125,33.7221875 L38.443875,50.006875 L61.321875,33.7221875 Z" id="Path" fill="#0A2767" fill-rule="nonzero"></path>
            <polygon id="Path" fill="#28A8EA" fill-rule="nonzero" points="46.5 9.6875 32.9375 9.6875 29.0218125 15.5 32.9375 21.3125 46.5 32.9375 58.125 32.9375 58.125 21.3125"></polygon>
            <polygon id="Path" fill="#0078D4" fill-rule="nonzero" points="19.375 9.6875 32.9375 9.6875 32.9375 21.3125 19.375 21.3125"></polygon>
            <polygon id="Path" fill="#50D9FF" fill-rule="nonzero" points="46.5 9.6875 58.125 9.6875 58.125 21.3125 46.5 21.3125"></polygon>
            <polygon id="Path" fill="#0364B8" fill-rule="nonzero" points="46.5 32.9375 32.9375 21.3125 19.375 21.3125 19.375 32.9375 32.9375 44.5625 53.9245 47.988"></polygon>
            <path d="M19.4350625,9.6875 L58.125,9.6875" id="Path"></path>
            <polygon id="Path" fill="#0078D4" fill-rule="nonzero" points="32.9375 21.3125 46.5 21.3125 46.5 32.9375 32.9375 32.9375"></polygon>
            <polygon id="Path" fill="#064A8C" fill-rule="nonzero" points="19.375 32.9375 32.9375 32.9375 32.9375 44.5625 19.375 44.5625"></polygon>
            <polygon id="Path" fill="#0078D4" fill-rule="nonzero" points="46.5 32.9375 58.125 32.9375 58.125 44.5625 46.5 44.5625"></polygon>
            <path d="M39.118125,48.859875 L16.2691875,32.197375 L17.22825,30.51175 C17.22825,30.51175 38.0466875,42.36925 38.3644375,42.5475 C38.6272236,42.6526587 38.9218342,42.6442413 39.1781875,42.52425 L60.360875,30.453625 L61.321875,32.1373125 L39.118125,48.859875 Z" id="Path" fill="#0A2767" fill-rule="nonzero" opacity="0.5"></path>
            <path d="M61.3548125,32.1179375 L61.3276875,32.1334375 L61.321875,32.1373125 L40.32325,44.0994375 C39.4751992,44.6462706 38.4038902,44.7130439 37.4945,44.27575 L44.806625,54.0814375 L60.79875,57.563125 L60.79875,57.570875 C61.5533692,57.0249873 62.0000001,56.1501164 62.0000001,55.21875 L62.0000001,31 C62.0000001,31.4611638 61.7541921,31.8873556 61.3548125,32.1179375 L61.3548125,32.1179375 Z" id="Path" fill="#1490DF" fill-rule="nonzero"></path>
            <path d="M62.0000001,55.21875 L62.0000001,53.788875 L42.6579375,42.768375 L40.32325,44.0994375 C39.4751992,44.6462706 38.4038902,44.7130439 37.4945,44.27575 L44.806625,54.0814375 L60.79875,57.563125 L60.79875,57.570875 C61.5533692,57.0249873 62.0000001,56.1501164 62.0000001,55.21875 L62.0000001,55.21875 Z" id="Path" fill="#000000" fill-rule="nonzero" opacity="0.05"></path>
            <path d="M61.903125,55.9608125 L40.7010625,43.884375 L40.32325,44.0975 C39.475544,44.6449586 38.4042225,44.7124666 37.4945,44.27575 L44.806625,54.0814375 L60.79875,57.563125 L60.79875,57.570875 C61.341047,57.1779739 61.7311316,56.609956 61.903125,55.96275 L61.903125,55.9608125 Z" id="Path" fill="#000000" fill-rule="nonzero" opacity="0.1"></path>
            <path d="M16.178125,32.143125 L16.178125,32.12375 L16.15875,32.12375 L16.100625,32.085 C15.7238776,31.853803 15.4959214,31.4420113 15.4999462,31 L15.4999462,55.21875 C15.4989698,55.9898508 15.8048323,56.7296656 16.3500834,57.2749166 C16.8953344,57.8201677 17.6351492,58.1260302 18.40625,58.1250026 L59.09375,58.1250026 C59.335806,58.1226293 59.5766219,58.0900866 59.810625,58.028125 C59.9320265,58.0070025 60.0495803,57.9678179 60.159375,57.911875 C60.2005453,57.9078618 60.2402808,57.8946166 60.275625,57.873125 C60.4341971,57.8083012 60.5839282,57.7236705 60.72125,57.62125 C60.76,57.601875 60.779375,57.601875 60.79875,57.563125 L16.178125,32.143125 Z" id="Path" fill="#28A8EA" fill-rule="nonzero"></path>
            <path d="M34.875,47.7923125 L34.875,16.1451875 C34.8707442,14.7205751 33.7169249,13.5667558 32.2923125,13.5625 L19.433125,13.5625 L19.433125,28.0085 L16.178125,29.864625 L16.1684375,29.8685 L16.1451875,29.8820625 C15.7458079,30.1126444 15.4999999,30.5388362 15.4999999,31 L15.4999999,31.0096875 L15.4999999,31 L15.4999999,50.375 L32.2923125,50.375 C33.7169249,50.3707442 34.8707442,49.2169249 34.875,47.7923125 L34.875,47.7923125 Z" id="Path" fill="#000000" fill-rule="nonzero" opacity="0.1"></path>
            <path d="M32.9375,49.7298125 L32.9375,18.0826875 C32.9332442,16.6580751 31.7794249,15.5042558 30.3548125,15.5 L19.433125,15.5 L19.433125,28.0085 L16.178125,29.864625 L16.1684375,29.8685 L16.1451875,29.8820625 C15.7458079,30.1126444 15.4999999,30.5388362 15.4999999,31 L15.4999999,31.0096875 L15.4999999,31 L15.4999999,52.3125 L30.3548125,52.3125 C31.7794249,52.3082442 32.9332442,51.1544249 32.9375,49.7298125 Z" id="Path" fill="#000000" fill-rule="nonzero" opacity="0.2"></path>
            <path d="M32.9375,45.8548125 L32.9375,18.0826875 C32.9332442,16.6580751 31.7794249,15.5042558 30.3548125,15.5 L19.433125,15.5 L19.433125,28.0085 L16.178125,29.864625 L16.1684375,29.8685 L16.1451875,29.8820625 C15.7458079,30.1126444 15.4999999,30.5388362 15.4999999,31 L15.4999999,31.0096875 L15.4999999,31 L15.4999999,48.4375 L30.3548125,48.4375 C31.7794249,48.4332442 32.9332442,47.2794249 32.9375,45.8548125 L32.9375,45.8548125 Z" id="Path" fill="#000000" fill-rule="nonzero" opacity="0.2"></path>
            <path d="M30.9999999,45.8548125 L30.9999999,18.0826875 C30.9957442,16.6580751 29.8419249,15.5042558 28.4173125,15.5 L19.433125,15.5 L19.433125,28.0085 L16.178125,29.864625 L16.1684375,29.8685 L16.1451875,29.8820625 C15.7458079,30.1126444 15.4998428,30.5388362 15.4999999,31 L15.4999999,31.0096875 L15.4999999,31 L15.4999999,48.4375 L28.4173125,48.4375 C29.8419249,48.4332442 30.9957442,47.2794249 30.9999999,45.8548125 L30.9999999,45.8548125 Z" id="Path" fill="#000000" fill-rule="nonzero" opacity="0.2"></path>
            <path d="M2.5826875,15.5 L28.4173125,15.5 C29.8436914,15.5 31,16.6563086 31,18.0826875 L31,43.9173125 C31,45.3436914 29.8436914,46.5 28.4173125,46.5 L2.5826875,46.5 C1.15630858,46.5 0,45.3436914 0,43.9173125 L0,18.0826875 C0,16.6563086 1.15630858,15.5 2.5826875,15.5 Z" id="Path" fill="#0078D4" fill-rule="nonzero"></path>
            <path d="M7.4923125,26.09425 C8.17857311,24.6316789 9.2864834,23.4077147 10.6736875,22.579625 C12.2105501,21.699848 13.9604382,21.2613703 15.7305625,21.3125 C17.3695913,21.276945 18.9868721,21.6924917 20.40575,22.51375 C21.7413617,23.3093022 22.8170148,24.4758271 23.501875,25.8714375 C24.2479544,27.4097555 24.6197347,29.1026834 24.586875,30.8120625 C24.6227519,32.5975343 24.2398779,34.3665844 23.4689375,35.9774375 C22.7691774,37.4227204 21.6610941,38.6311711 20.28175,39.4533125 C18.8072189,40.3007464 17.1285409,40.7276198 15.4283125,40.6875 C13.7533039,40.7273851 12.0994252,40.3072141 10.6465625,39.4726875 C9.30027917,38.6758382 8.21195417,37.5081422 7.5116875,36.1091875 C6.76049439,34.5935861 6.38376992,32.9199195 6.413125,31.228625 C6.38063664,29.4576424 6.74959134,27.7022924 7.4923125,26.09425 L7.4923125,26.09425 Z M10.8829375,34.344125 C11.2485302,35.2687057 11.8685737,36.0707988 12.67125,36.6575 C13.4891779,37.2299852 14.4690054,37.5253594 15.4670625,37.5003125 C16.5302817,37.5416601 17.5781397,37.2363465 18.45275,36.630375 C19.2464877,36.0439963 19.8507536,35.2376347 20.1906875,34.3111875 C20.571843,33.2790038 20.759683,32.1854598 20.7448125,31.08525 C20.7566291,29.9746115 20.5797391,28.8700319 20.2216875,27.818625 C19.90575,26.8727597 19.3230589,26.0384214 18.5438125,25.416125 C17.6922673,24.7796841 16.647456,24.4560458 15.58525,24.4996875 C14.5654698,24.4739096 13.5637091,24.771657 12.7235625,25.35025 C11.905131,25.9379505 11.2707753,26.7463508 10.8945625,27.6810625 C10.0623242,29.8239204 10.0574895,32.1998353 10.881,34.3460625 L10.8829375,34.344125 Z" id="Shape" fill="#FFFFFF" fill-rule="nonzero"></path>
            <polygon id="Path" points="0 0 62 0 62 62 0 62"></polygon>
        </g>
    </g>
</svg>