<?xml version="1.0" encoding="UTF-8"?>
<svg width="46px" height="46px" viewBox="0 0 46 46" version="1.1" xmlns="http://www.w3.org/2000/svg" xmlns:xlink="http://www.w3.org/1999/xlink">
    <g id="Page-14-(2020-Q2)" stroke="none" stroke-width="1" fill="none" fill-rule="evenodd">
        <g id="scribd" fill-rule="nonzero">
            <rect id="Rectangle-17-Copy-7" fill="#FFFFFF" x="0" y="0" width="46" height="46" rx="4"></rect>
            <path d="M28.0025272,21.5663987 L28.227508,21.5715093 C29.5602194,21.5275059 30.8376994,22.1084688 31.6852354,23.1439888 C32.5617451,24.1923085 33,25.6502365 33,27.5177729 C33,30.0934457 32.1942322,32.1119817 30.5826966,33.573381 C28.891861,35.0283193 26.7605305,35.8635052 24.5368499,35.9425141 C24.127927,35.9998957 23.7086517,35.9998957 23.2738477,35.9998957 C19.4291801,36.0139912 15.7147797,34.5991686 12.8437269,32.0269359 L12.8437269,32.0269359 L12,31.2667306 L15.3179689,27.3147043 L17.2642347,28.8247012 L15.4214937,30.9907657 C17.6991117,32.6917402 20.463044,33.6051097 23.2997289,33.5942086 C26.6849889,33.5942086 29.029825,32.3029009 29.940843,30.0535262 C29.9927037,29.8246254 30.0187493,29.5905736 30.0184866,29.3558035 C30.0184866,28.6893222 29.7441459,28.3560815 29.1954646,28.3560815 C28.9447836,28.3786964 28.6968828,28.42578 28.4552625,28.4966674 C28.15105,28.5669698 27.8407148,28.6070814 27.5287158,28.6164258 C26.7216445,28.6002502 25.9512681,28.2742548 25.3754005,27.7052207 C24.6994599,27.0819011 24.331902,26.1899653 24.3712103,25.2683982 C24.3573658,24.2964385 24.730061,23.3591837 25.406458,22.6649553 C26.149196,21.9131326 27.1752946,21.5154143 28.227508,21.5715093 Z M22.1040177,10.0018091 C25.4422926,9.94851335 28.6934804,11.0742807 31.2918413,13.1832163 L31.2918413,13.1832163 L32.1821543,13.8861459 L29.4180429,17.8537928 L27.3786049,16.5 L28.8486566,14.3755931 C26.852718,13.0552806 24.5080851,12.3694971 22.1195465,12.4073903 C20.9366273,12.3878057 19.7631485,12.6221159 18.6773478,13.0946992 C18.3296246,13.2742412 17.9956942,13.4796147 17.6783337,13.7091117 C16.5671679,14.5144434 16.0115849,15.4777173 16.0115849,16.5989334 C16.0115849,17.2654147 16.2859256,17.5986554 16.8346069,17.5986554 C17.0852834,17.5760079 17.333181,17.5289249 17.574809,17.4580695 C17.8790448,17.3878985 18.1893671,17.3477886 18.5013557,17.3383111 C19.2965744,17.3554401 20.0561792,17.6733512 20.6287897,18.2286886 C21.3070879,18.8565359 21.6730925,19.7550274 21.6278038,20.6811318 C21.6416483,21.6530915 21.268953,22.5903463 20.5925561,23.2845747 C19.8498181,24.0363974 18.8237194,24.4341157 17.771506,24.3780207 C16.4405463,24.4245627 15.163378,23.8475882 14.3137787,22.815955 C13.4338181,21.7693709 12.9627804,20.2906154 12.9576041,18.4213434 L12.9576041,18.4213434 L12.9576041,18.0828958 C12.9576041,13.3238022 16.7207296,10.0018091 22.1040177,10.0018091 Z" id="Combined-Shape" fill="#1E7B85"></path>
        </g>
    </g>
</svg>