<?xml version="1.0" encoding="UTF-8"?>
<svg width="46px" height="46px" viewBox="0 0 46 46" version="1.1" xmlns="http://www.w3.org/2000/svg" xmlns:xlink="http://www.w3.org/1999/xlink">
    <!-- Generator: Sketch 64 (93537) - https://sketch.com -->
    <desc>Created with Sketch.</desc>
    <g id="Page-13-(2020-Q1)" stroke="none" stroke-width="1" fill="none" fill-rule="evenodd">
        <g id="skip" fill-rule="nonzero">
            <rect id="Rectangle-17-Copy-7" fill="#FFFFFF" x="0" y="0" width="46" height="46" rx="4"></rect>
            <g id="Order-Restaurant-Food-Delivery-Online-&amp;-Take-Out-_-SkipTheDishes-0" transform="translate(10.000000, 18.000000)" fill="#000000">
                <path d="M18.8834848,0.579090909 C18.9083769,0.494670203 18.8920801,0.403456914 18.8394949,0.332878788 C18.7866596,0.262345435 18.7037338,0.220760935 18.6156061,0.220606061 L16.2283333,0.220606061 L13.3007071,10.144596 L12.1884848,5.32343434 L15.5921212,0.674292929 C15.6158784,0.644599354 15.6329037,0.610100671 15.6420202,0.573181818 L15.7024242,0.369646465 C15.7124785,0.333681153 15.7051407,0.295083458 15.6825901,0.265316662 C15.6600395,0.235549866 15.6248694,0.218037192 15.5875253,0.217979798 L13.1621717,0.217979798 L10.5582323,4.0319697 L11.669798,0.576464646 C11.6948253,0.491958892 11.6782571,0.400590178 11.6251515,0.330252525 C11.5723843,0.25963774 11.4894149,0.218031371 11.4012626,0.217979798 L8.99954545,0.217979798 L6.92217172,7.27540404 C6.96813131,6.06272727 6.02858586,5.10873737 5.4810101,4.50469697 C5.03782828,4.01161616 4.77060606,3.66166667 4.81853535,3.27232323 C4.8769697,2.79828283 5.25449495,2.35313131 5.8690404,2.30520202 C6.46651515,2.25792929 6.72257576,2.44111111 7.10469697,2.6190404 C7.14841247,2.64072197 7.19641164,2.65238532 7.24520202,2.65318182 C7.28409547,2.653229 7.32264279,2.64587605 7.35878788,2.63151515 C7.43995537,2.60028572 7.50252458,2.53385123 7.52883838,2.4509596 L8.08757576,0.562676768 L7.70085859,0.382777778 L7.64439394,0.356515152 L7.6260101,0.347979798 L7.6260101,0.347979798 C7.16608915,0.153974381 6.67082046,0.0578274114 6.17171717,0.0656565657 C4.07070707,0.0656565657 2.15287879,1.57575758 1.83838384,3.4239899 C1.61777778,4.72070707 2.44833333,5.63464646 3.05434343,6.30237374 L3.10752525,6.36080808 C3.54545455,6.83090909 3.84944444,7.1959596 3.77787879,7.61878788 C3.67742424,8.20969697 3.1009596,8.55111111 2.54419192,8.59641414 C1.93292929,8.64631313 1.55146465,8.47560606 1.07282828,8.26813131 C1.00717172,8.24121212 0.895555556,8.18474747 0.796414141,8.21757576 C0.702919693,8.24467876 0.629063964,8.316565 0.599444444,8.40929293 L0.0663131313,10.2338889 L0.0663131313,10.2338889 L0.000656565657,10.4669697 C0.000656565657,10.4669697 1.04787879,10.9968182 2.25924242,10.9968182 C4.05166667,10.9968182 5.60247475,10.3080808 6.52232323,8.64631313 L5.97934343,10.4984848 C5.95442372,10.5829964 5.97098302,10.6743161 6.0239899,10.744697 C6.07661966,10.8150427 6.15936779,10.8564168 6.24722222,10.8563131 L8.64893939,10.8563131 L9.24838384,8.8209596 L9.97914141,7.77045455 L10.5418182,10.6370202 C10.568103,10.7677047 10.682961,10.8616795 10.8162626,10.8615657 L15.8632828,10.8615657 L18.8834848,0.579090909 Z" id="Path"></path>
                <path d="M25.304697,1.02424242 C24.8529798,0.525252525 24.2180808,0.236363636 23.4663131,0.223232323 L19.4901515,0.223232323 L19.3214141,0.785909091 C19.3053767,0.838142523 19.3130566,0.894781774 19.3424242,0.940858586 L19.4553535,1.11878788 C19.5662037,1.29275288 19.5952393,1.50656107 19.534798,1.70378788 L16.9538384,10.4912626 C16.9277671,10.5754602 16.94311,10.6670303 16.995202,10.7381313 C17.0468628,10.8093467 17.1291479,10.8519499 17.2171212,10.8530303 L19.5288889,10.8530303 L20.2511111,8.41060606 L21.2950505,8.41520202 C23.8136364,8.44737374 25.09,6.67858586 25.6592424,4.75747475 C25.8916667,3.96959596 26.0019697,3.40757576 25.998758,3.03005051 C25.9921212,2.1889899 25.785303,1.55540404 25.304697,1.02424242 Z M23.3894949,3.26313131 C23.3638889,3.76080808 23.174798,4.3989899 22.9528788,4.89272727 C22.6561111,5.55454545 22.3803535,6.04762626 21.5990404,6.14020202 L20.9194949,6.13560606 L21.9844444,2.51858586 L22.88,2.52449495 C23.0027103,2.52191894 23.1212002,2.5693149 23.2082828,2.65580808 C23.3507576,2.79368687 23.4032828,2.99656566 23.3894949,3.26313131 L23.3894949,3.26313131 Z" id="Shape"></path>
            </g>
        </g>
    </g>
</svg>