<?xml version="1.0" encoding="UTF-8"?>
<svg width="46px" height="46px" viewBox="0 0 46 46" version="1.1" xmlns="http://www.w3.org/2000/svg" xmlns:xlink="http://www.w3.org/1999/xlink">
    <!-- Generator: Sketch 51.3 (57544) - http://www.bohemiancoding.com/sketch -->
    <title>todoist</title>
    <desc>Created with Sketch.</desc>
    <defs></defs>
    <g id="Page-1" stroke="none" stroke-width="1" fill="none" fill-rule="evenodd">
        <g id="todoist" fill-rule="nonzero">
            <rect id="Rectangle-17-Copy-2" fill="#FFFFFF" x="0" y="0" width="46" height="46" rx="4"></rect>
            <g id="b5b89fbf0c5e2ef098ad9241de7fd6a8" transform="translate(10.000000, 10.000000)">
                <g id="Clipped" fill="#E44332">
                    <path d="M22.7502029,0 L3.24979714,0 C1.45822809,0.00401135763 0.00624415815,1.45608592 0,3.25 L0,22.75 C0,24.5375 1.46220585,26 3.24979714,26 L22.7502029,26 C24.5377941,26 26,24.5375 26,22.75 L26,3.25 C26,1.4625 24.5377941,0 22.7502029,0" id="Shape"></path>
                </g>
                <path d="M5.35127273,11.8414062 C5.79248485,11.5859375 15.2706667,6.12421875 15.4873333,5.99765625 C15.704,5.87265625 15.7158182,5.48828125 15.4715758,5.34921875 C15.2289091,5.2109375 14.768,4.9484375 14.5970303,4.84765625 C14.3529172,4.71448524 14.0562474,4.7180438 13.8154545,4.85703125 C13.6941212,4.92734375 5.59551515,9.59140625 5.32527273,9.74453125 C4.99987879,9.92890625 4.60042424,9.93203125 4.27739394,9.74453125 L0,7.25546875 L0,9.37109375 C1.04,9.97890625 3.62975758,11.4882812 4.25690909,11.84375 C4.63115152,12.0546875 4.98963636,12.05 5.35206061,11.8414062" id="Shape" fill="#FFFFFF"></path>
                <path d="M5.35127273,15.8414063 C5.79248485,15.5859375 15.2706667,10.1242188 15.4873333,9.99765625 C15.704,9.87265625 15.7158182,9.48828125 15.4715758,9.34921875 C15.2289091,9.2109375 14.768,8.9484375 14.5970303,8.84765625 C14.3529172,8.71448524 14.0562474,8.7180438 13.8154545,8.85703125 C13.6941212,8.92734375 5.59551515,13.5914063 5.32527273,13.7445313 C4.99987879,13.9289063 4.60042424,13.9320313 4.27739394,13.7445313 L0,11.2554688 L0,13.3710938 C1.04,13.9789063 3.62975758,15.4882813 4.25690909,15.84375 C4.63115152,16.0546875 4.98963636,16.05 5.35206061,15.8414063" id="Shape" fill="#FFFFFF"></path>
                <path d="M5.35127273,20.0914062 C5.79248485,19.8359375 15.2706667,14.3742187 15.4873333,14.2476562 C15.704,14.1226562 15.7158182,13.7382812 15.4715758,13.5992187 C15.2289091,13.4609375 14.768,13.1984375 14.5970303,13.0976562 C14.3529172,12.9644852 14.0562474,12.9680438 13.8154545,13.1070313 C13.6941212,13.1773438 5.59551515,17.8414062 5.32527273,17.9945313 C4.99987879,18.1789063 4.60042424,18.1820313 4.27739394,17.9945313 L0,15.5054687 L0,17.6210937 C1.04,18.2289062 3.62975758,19.7382812 4.25690909,20.09375 C4.63115152,20.3046875 4.98963636,20.3 5.35206061,20.0914062" id="Shape" fill="#FFFFFF"></path>
            </g>
        </g>
    </g>
</svg>