<?xml version="1.0" encoding="UTF-8"?>
<svg width="46px" height="46px" viewBox="0 0 46 46" version="1.1" xmlns="http://www.w3.org/2000/svg" xmlns:xlink="http://www.w3.org/1999/xlink">
    <!-- Generator: Sketch 64 (93537) - https://sketch.com -->
    <desc>Created with Sketch.</desc>
    <g id="Page-13-(2020-Q1)" stroke="none" stroke-width="1" fill="none" fill-rule="evenodd">
        <g id="uber-eats" fill-rule="nonzero">
            <rect id="Rectangle-17-Copy-7" fill="#FFFFFF" x="0" y="0" width="46" height="46" rx="4"></rect>
            <g id="ee037401cb5d31b23cf780808ee4ec1f" transform="translate(10.000000, 12.000000)">
                <path d="M12.2092837,18.571934 C12.2092837,17.4575472 11.3353341,16.5819575 10.232493,16.5819575 C9.1452581,16.5819575 8.25570228,17.4575472 8.25570228,18.571934 C8.25570228,19.6863208 9.1452581,20.5619104 10.232493,20.5619104 C11.3353341,20.5619104 12.2092837,19.6863208 12.2092837,18.571934 M13.8219288,15.3136792 L13.8219288,21.8354953 L12.1780712,21.8354953 L12.1780712,21.2464623 C11.6058423,21.7293632 10.8827531,22 10.0972389,22 C8.15166066,22 6.63265306,20.4770047 6.63265306,18.571934 C6.63265306,16.6721698 8.15686275,15.1438679 10.0972389,15.1438679 C10.8827531,15.1438679 11.6058423,15.4145047 12.1780712,15.8974057 L12.1780712,15.3136792 L13.8219288,15.3136792 Z M19.2841136,20.3549528 L18.0460184,20.3549528 C17.6714686,20.3549528 17.4269708,20.1904481 17.4269708,19.8402123 L17.4269708,16.7889151 L19.2789116,16.7889151 L19.2789116,15.3136792 L17.4269708,15.3136792 L17.4269708,13.4563679 L15.767507,13.4563679 L15.767507,15.3136792 L14.5190076,15.3136792 L14.5190076,16.7942217 L15.767507,16.7942217 L15.767507,20.259434 C15.767507,21.1350236 16.3865546,21.8301887 17.4997999,21.8301887 L19.2789116,21.8301887 L19.2789116,20.3549528 L19.2841136,20.3549528 Z M23.0296118,22 C24.9283713,22 26,21.0925708 26,19.8402123 C26,18.9487028 25.3653461,18.2853774 24.0388155,17.9988208 L22.6342537,17.7122642 C21.8227291,17.5636792 21.5626251,17.4097877 21.5626251,17.1073113 C21.5626251,16.7146226 21.9527811,16.4758255 22.6758703,16.4758255 C23.4613846,16.4758255 24.0336134,16.6880896 24.20008,17.4097877 L25.8439376,17.4097877 C25.7555022,16.0512972 24.7723089,15.1438679 22.785114,15.1438679 C21.0684274,15.1438679 19.8615446,15.8549528 19.8615446,17.2293632 C19.8615446,18.1792453 20.527411,18.8001179 21.9579832,19.1025943 L23.5238095,19.4634434 C24.1428571,19.5854953 24.3093237,19.75 24.3093237,20.004717 C24.3093237,20.4133255 23.8411365,20.6680425 23.0868347,20.6680425 C22.140056,20.6680425 21.5938375,20.4557783 21.3857543,19.7340802 L19.7262905,19.7340802 C19.9707883,21.0925708 20.979992,22 23.0296118,22 M0,13 L6.19567827,13 L6.19567827,14.5070755 L1.67507003,14.5070755 L1.67507003,16.6668632 L6.07603041,16.6668632 L6.07603041,18.1314858 L1.67507003,18.1314858 L1.67507003,20.3178066 L6.19567827,20.3178066 L6.19567827,21.8248821 L0,21.8248821 L0,13 Z" id="Shape" fill="#06C167"></path>
                <path d="M26,3.53932584 L26,2.35245417 L25.5548842,2.35245417 C24.8479355,2.35245417 24.3242699,2.68243643 24.0100705,3.19869899 L24.0100705,2.40035482 L22.7427996,2.40035482 L22.7427996,8.84565346 L24.0205438,8.84565346 L24.0205438,5.18391484 C24.0205438,4.18332348 24.627996,3.53932584 25.465861,3.53932584 L26,3.53932584 Z M16.804431,5.0295683 C17.0348439,4.04494382 17.8308157,3.3849793 18.7786506,3.3849793 C19.7264854,3.3849793 20.5276939,4.03962153 20.7423968,5.0295683 L16.804431,5.0295683 Z M18.8048338,2.27794205 C16.9196375,2.27794205 15.4847936,3.80544057 15.4847936,5.62566529 C15.4847936,7.5470136 16.9772407,8.98935541 18.9200403,8.98935541 C20.098288,8.98935541 21.0618328,8.47309284 21.7059416,7.61088114 L20.7790534,6.92962744 C20.297281,7.57362507 19.6636455,7.87699586 18.9148036,7.87699586 C17.8255791,7.87699586 16.9510574,7.09461857 16.7730111,6.04612655 L22.0306293,6.04612655 L22.0306293,5.63098758 C22.035851,3.70431697 20.6690836,2.27794205 18.8048338,2.27794205 M11.4944612,7.87699586 C10.2533736,7.87699586 9.26364552,6.87640449 9.26364552,5.64163217 C9.26364552,4.39089296 10.2638469,3.40626848 11.4944612,3.40626848 C12.7093656,3.40626848 13.7095874,4.39089296 13.7095874,5.64163217 C13.7148036,6.87640449 12.7146022,7.87699586 11.4944612,7.87699586 M8.01208459,8.85097575 L9.27935549,8.85097575 L9.27935549,8.04198699 C9.86062437,8.63808397 10.6880161,9 11.5834844,9 C13.4843907,9 14.9768379,7.49379066 14.9768379,5.63630988 C14.9768379,3.76818451 13.4843907,2.26197516 11.5834844,2.26197516 C10.6827795,2.26197516 9.87109768,2.62921348 9.2898288,3.21998817 L9.2898288,0 L8.01208459,0 L8.01208459,8.85097575 Z M3.51379658,7.81312833 C4.74441088,7.81312833 5.69224572,6.86575991 5.69224572,5.46067416 L5.69224572,0 L7.0223565,0 L7.0223565,8.84565346 L5.70271903,8.84565346 L5.70271903,8.02602011 C5.10574018,8.64340627 4.2835851,9 3.35669688,9 C1.45579053,9 0,7.62152572 0,5.53518628 L0,0 L1.33534743,0 L1.33534743,5.46067416 C1.33534743,6.89237138 2.27270896,7.81312833 3.51379658,7.81312833" id="Shape" fill="#142328"></path>
            </g>
        </g>
    </g>
</svg>