<?xml version="1.0" encoding="UTF-8"?>
<svg width="46px" height="46px" viewBox="0 0 46 46" version="1.1" xmlns="http://www.w3.org/2000/svg" xmlns:xlink="http://www.w3.org/1999/xlink">
    <!-- Generator: Sketch 55.2 (78181) - https://sketchapp.com -->
    <desc>Created with Sketch.</desc>
    <g id="Pare-12-(Q4)" stroke="none" stroke-width="1" fill="none" fill-rule="evenodd">
        <g id="visme" fill-rule="nonzero">
            <rect id="Rectangle-17-Copy-7" fill="#FFFFFF" x="0" y="0" width="46" height="46" rx="4"></rect>
            <g id="Group-17" transform="translate(10.000000, 15.000000)">
                <path d="M21.7674909,11.2687645 C21.7807562,11.2687645 21.7807562,11.2687645 21.7940215,11.2687645 L25.9858583,9.117202 C24.7389195,8.2937645 18.172593,5.132827 15.6256542,7.8156395 C15.4532052,7.98829575 15.2807562,8.17423325 15.1215726,8.36017075 C17.8011644,8.75860825 20.1491236,9.79454575 21.7674909,11.2687645 Z" id="XMLID_708_" fill="#F05E4E"></path>
                <path d="M19.7909603,9.87423325 L23.4389195,7.8687645 C20.1491236,6.52735825 18.2919807,6.92579575 16.1827971,8.22735825 C16.050144,8.30704575 15.9307562,8.38673325 15.8113685,8.479702 C17.2838175,8.75860825 18.6236134,9.23673325 19.7909603,9.87423325 Z" id="XMLID_509_" fill="#B23232"></path>
                <path d="M11.8715726,8.214077 C14.5246338,8.06798325 16.9919807,8.5593895 19.0215726,9.489077 L19.0348379,9.489077 C19.0348379,9.489077 20.255246,8.532827 22.0460624,7.2843895 C23.8368787,6.04923325 25.0042256,5.1593895 25.0042256,5.1593895 C24.0756542,4.5218895 21.8072868,3.9375145 20.3878991,3.73829575 C16.1695317,3.1406395 12.7205522,5.2125145 11.3409603,8.25392075 C11.5266746,8.2406395 11.6991236,8.22735825 11.8715726,8.214077 Z" id="XMLID_506_" fill="#6CC294"></path>
                <path d="M11.8715726,8.214077 C13.9011644,8.107827 15.8246338,8.36017075 17.522593,8.904702 L19.1807562,3.65860825 C15.1215726,3.52579575 11.6062664,5.51798325 10.4123889,8.28048325 C10.3991236,8.30704575 10.3858583,8.33360825 10.3858583,8.36017075 C10.8634093,8.2937645 11.3674909,8.2406395 11.8715726,8.214077 Z" id="XMLID_503_" fill="#4B9F71"></path>
                <path d="M11.8715726,8.214077 C13.4766746,8.1343895 15.0287154,8.30704575 16.4481032,8.62579575 L18.7827971,0.0461082488 C16.9654501,-0.0999855012 15.0154501,0.0992332488 13.105246,0.670326999 C7.8389195,2.25079575 4.73483787,6.195327 5.61034807,9.84767075 C7.4011644,8.9312645 9.55014399,8.3468895 11.8715726,8.214077 Z" id="XMLID_500_" fill="#F3DE3C"></path>
                <path d="M11.8715726,8.214077 C12.5746338,8.17423325 13.2644297,8.1875145 13.9409603,8.22735825 L11.0756542,1.4406395 C7.06953175,3.326577 4.85422562,6.68673325 5.61034807,9.84767075 C7.4011644,8.9312645 9.55014399,8.3468895 11.8715726,8.214077 Z" id="XMLID_497_" fill="#CDAF31"></path>
                <path d="M11.8715726,8.214077 C12.1368787,8.20079575 12.4154501,8.20079575 12.6807562,8.1875145 C12.455246,7.64298325 11.7654501,6.02267075 10.677695,4.123452 C9.32463379,1.785952 8.4756542,0.298451999 8.4756542,0.298451999 C6.47259297,1.042202 4.03177664,2.33048325 2.61238889,3.73829575 C-0.50495805,6.84610825 -0.770264172,10.6312645 1.48483787,13.4468895 C3.26238889,10.5781395 7.20218481,8.46642075 11.8715726,8.214077 Z" id="XMLID_485_" fill="#19ABD6"></path>
                <path d="M15.2542256,12.1718895 L12.6542256,13.9914207 L13.5960624,11.2156395 C13.2909603,11.135952 12.9858583,11.0961082 12.6542256,11.0961082 C10.7970828,11.0961082 9.29810317,12.410952 9.29810317,14.0179832 C9.29810317,15.6382957 10.7970828,16.9398582 12.6542256,16.9398582 C14.5113685,16.9398582 16.0103481,15.6250145 16.0103481,14.0179832 C16.0103481,13.3273582 15.7185113,12.676577 15.2542256,12.1718895 Z" id="XMLID_330_" fill="#314152"></path>
            </g>
        </g>
    </g>
</svg>