<?xml version="1.0" encoding="UTF-8"?>
<svg width="46px" height="46px" viewBox="0 0 46 46" version="1.1" xmlns="http://www.w3.org/2000/svg" xmlns:xlink="http://www.w3.org/1999/xlink">
    <!-- Generator: Sketch 55.2 (78181) - https://sketchapp.com -->
    <title>woven</title>
    <desc>Created with Sketch.</desc>
    <g id="Pare-12-(Q4)" stroke="none" stroke-width="1" fill="none" fill-rule="evenodd">
        <g id="woven">
            <rect id="Rectangle-17-Copy-7" fill="#FFFFFF" fill-rule="nonzero" x="0" y="0" width="46" height="46" rx="4"></rect>
            <path d="M30.7947709,23.6098253 L27.3483813,29.6419763 C27.141686,30.0037263 26.7604748,30.2259035 26.3484195,30.2246878 L19.4757757,30.2042012 C19.0641877,30.2029805 18.6844587,29.9789043 18.4797262,29.6164761 L15.0594138,23.5597744 C14.8564172,23.2002896 14.8560567,22.7586616 15.058586,22.3988241 L18.4516327,16.3677718 C18.6572865,16.0021696 19.0408744,15.7770626 19.4557604,15.7783591 L26.3691158,15.8013827 C26.7799693,15.8028748 27.1589106,16.026015 27.3637365,16.3873445 L30.7965067,22.440384 C31.0020002,22.8025409 31.0013326,23.2483737 30.7947709,23.6098253 Z M11.0607019,23.4488215 C12.3323183,21.1959612 14.4877172,17.4401903 14.9070095,16.705161 C15.3702845,15.986883 16.5373783,15.9174764 16.5623473,16.0376664 C16.5690502,16.0700977 16.5625343,16.1062456 16.5404093,16.1448214 L11.6998816,24.7642514 C11.2723255,25.5254592 11.2756302,26.460014 11.7085206,27.2182377 L15.1498497,33.1901648 C15.7807642,34.2952182 17.3017369,34.9801967 18.7110299,34.9873855 C18.2608536,34.7159713 18.0214583,34.6378431 17.6369891,33.9714472 C16.2399668,31.5500144 13.8694607,27.4074545 13.4625595,26.6986035 C13.2928904,26.3051139 13.6342447,25.0219661 13.7880244,25.0409556 C13.8360396,25.0470594 13.8825861,25.0813761 13.9248198,25.1508234 L18.7972998,33.7423524 C19.2280752,34.5020681 20.0242525,34.9720583 20.8880063,34.97667 L27.6016764,35 C29.9183189,34.9373346 31.0667594,32.7961326 31.0667594,32.7961326 C31.0667594,32.7961326 30.3877895,33.2077979 29.3452336,33.2194629 C26.4723299,33.2121384 21.6905126,33.1973537 21.3156572,33.1973537 C20.9052576,33.1920638 19.9926607,32.2138331 20.0904404,32.0775156 C20.1227665,32.0323477 20.1819845,32.0039991 20.2729678,31.9992517 L30.0318144,32.0319408 C30.9021242,32.0347892 31.7072744,31.5645278 32.1420287,30.7993865 L35.5606453,24.8558079 C36.1687139,23.7856139 36.1727197,22.1380168 35.4020188,20.6958048 C35.4868065,21.4227908 35.4180416,21.688671 35.081294,22.2748091 C33.6811606,24.7120303 31.328066,28.7121689 30.7994442,29.5460793 C30.5335978,29.9656117 29.3690009,30.2485553 29.286216,30.0806338 C29.241619,29.9901624 29.2553719,29.8640179 29.3532451,29.7069476 L34.1702593,21.2752559 C34.6052807,20.5138583 34.6067494,19.5745832 34.1741315,18.8116936 L30.7644609,12.8650496 C30.1399689,11.7639433 29.0681712,11.2645465 27.2095162,11.0656179 C27.6337222,11.3397449 27.9352195,11.4379614 28.2935981,12.063679 C29.6515379,14.4344912 31.905157,18.36856 32.3678179,19.1762649 C32.6520906,19.6799614 32.2018475,20.8069748 32.0310702,20.7864797 C31.9573649,20.7777174 31.8852619,20.7216306 31.8225056,20.6047909 L27.02779,12.2461139 C26.5957061,11.4873205 25.7985674,11.0186582 24.9348003,11.0158627 L18.1766533,11.000012 C16.9205924,10.9958315 15.5248921,12.0832518 14.8974625,13.1875184 C15.5082817,12.8655243 16.2810255,12.7811974 16.5911618,12.7822282 C19.3819216,12.7911668 23.4136941,12.8083117 24.4339515,12.8083117 C25.2507182,12.8289017 25.773732,13.7321238 25.6781287,13.8895739 C25.6344664,13.9614085 25.538062,14.0059524 25.3752961,14.0059524 L15.8395282,13.9735211 C14.9704467,13.970632 14.1661912,14.4395777 13.7311031,15.2030235 L10.3738674,21.0778329 C9.74459924,22.1816384 9.97004981,24.0136235 10.6020734,25.1158285 C10.6465556,24.6039258 10.6391758,24.1956515 11.0607019,23.4488215 Z" id="Shape" fill="#FA6401"></path>
        </g>
    </g>
</svg>